<svg viewBox="0 0 411.42 132.13" xmlns="http://www.w3.org/2000/svg" xmlns:xlink="http://www.w3.org/1999/xlink" overflow="hidden"><defs></defs><g id="Layer_2"><g id="Layer_1-2"><rect x="5.6" y="7.21" width="398.1" height="119.6" fill="#E6E2DF"/><path d="M408.57 125.6C408.5 127.12 409.34 126.6 409.49 126.81 409.3 124.25 408.36 125.66 408.57 125.6Z" fill="#E9E6E3"/><path d="M406.67 100.36 407.01 100.81 406.18 97.09 406.67 100.36Z" fill="#E9E6E3"/><path d="M406.69 76.76C405.26 79 406.92 85.31 406.41 89.52L406.08 90.21 407.23 92.11C407.05 87 406.29 80.36 406.69 76.76Z" fill="#E9E6E3"/><path d="M409.77 64.18C409.22 64.96 409.3 61.46 409.6 67.12 409.66 66.83 409.7 66.75 409.74 66.58 409.73 66.08 409.73 65.37 409.77 64.18Z" fill="#E9E6E3"/><path d="M409.74 66.58C409.74 69.07 410.21 64.96 409.74 66.58Z" fill="#E9E6E3"/><path d="M409.42 55.11 409.92 58.38C410.25 57.7 410.32 54.78 410.56 55.87 410.29 52.51 410 53.2 409.42 55.11Z" fill="#E9E6E3"/><path d="M408.38 52 408.59 53.69C408.73 53.4 408.78 53 408.38 52Z" fill="#E9E6E3"/><path d="M409 57.3 408.56 53.7C408.33 54.18 407.87 54.23 408.72 55.35 408.33 55.06 408.73 55.77 409 57.3Z" fill="#E9E6E3"/><path d="M408.82 59.34C408.51 61.17 408.31 63.54 407.82 60.26 408 66.52 409 65.6 408.82 59.34Z" fill="#E9E6E3"/><path d="M405.21 75.56 404.79 78 405.27 80.13C405 79.08 405.66 75.41 405.21 75.56Z" fill="#E9E6E3"/><path d="M410.16 34.72C409.86 34.51 409.35 35.82 408.96 36.06L409.31 38.48C409.52 37.24 409.71 34.88 410.16 34.72Z" fill="#E9E6E3"/><path d="M409 36.06 408.48 32.44C408.38 35.68 408.63 36.27 409 36.06Z" fill="#E9E6E3"/><path d="M406.8 51.42 407.89 57.36 406.78 50.28 406.8 51.42Z" fill="#E9E6E3"/><path d="M410.2 20.9 410.9 22.95 409.84 19.3 410.2 20.9Z" fill="#E9E6E3"/><path d="M410.08 9.1C410.37 10.38 410.61 9.36 410.83 8.27 411.05 7.18 411.24 6.08 411.42 7.59 411.36 4.68 411.16 2.14 410.91 0 409.05 0.17 407.33 0.36 405.75 0.55 407.29 0.45 408.86 0.4 410.51 0.4 410.51 2.92 410.37 5.85 410.08 9.1Z" fill="#E9E6E3"/><path d="M399.59 1.2C401.43 1.06 403.43 0.81 405.75 0.55 403.65 0.68 401.58 0.88 399.59 1.2Z" fill="#E9E6E3"/><path d="M408.59 26.28C409.161 25.4433 409.464 24.4529 409.46 23.44L408.6 24.86Z" fill="#E9E6E3"/><path d="M408.58 24.91 408.58 24.86C408.58 23.31 408.58 22.24 408.58 21.78 408.64 22.18 408.62 23.12 408.58 24.91Z" fill="#E9E6E3"/><path d="M408.59 26.64 408.59 26.28C408.51 26.42 408.48 26.5 408.59 26.64Z" fill="#E9E6E3"/><path d="M407.57 41.94C407.09 39.81 406.57 35.38 405.85 39.67 406.44 41.19 406.85 38.74 407.57 41.94Z" fill="#E9E6E3"/><path d="M407.52 28.41 407.33 32.25C407.55 32.17 407.88 31.48 408.12 32.53Z" fill="#E9E6E3"/><path d="M407.25 26.53 407.52 28.41 407.59 26.98 407.25 26.53Z" fill="#E9E6E3"/><path d="M408.91 3.49C408.85 3.06 408.79 2.63 408.75 2.17 406.2 2.39 403.75 2.42 400.96 2.47 403.39 2.58 405.83 2.66 408.21 2.7L408.21 5.87C408.46 6.13 408.94 7.43 408.91 3.49Z" fill="#E9E6E3"/><path d="M408.67 16.27 408.67 15.9C408.55 16.13 408.53 16.31 408.67 16.27Z" fill="#E9E6E3"/><path d="M378.88 2.46 379.2 2.61C379.2 2.61 379.2 2.52 379.28 2.47Z" fill="#E9E6E3"/><path d="M408 6.57C407.853 8.41555 407.958 10.2725 408.31 12.09 408.22 10.09 408.17 8.09 408.16 5.87 408.07 5.75 408 5.77 408 6.57Z" fill="#E9E6E3"/><path d="M392.38 1.6C393.24 1.78 394.22 1.93 395.24 2.07 394.4 1.8 392.68 1.38 392.38 1.6Z" fill="#E9E6E3"/><path d="M408.86 15.34 408.86 15.59C409.08 15.05 409 15.11 408.86 15.34Z" fill="#E9E6E3"/><path d="M408.86 15.34C408.8 15.03 408.72 14.25 408.63 13.7 408.54 13.15 408.43 12.61 408.34 12.09 408.38 12.89 408.42 13.66 408.46 14.4L408.46 14.94 408.46 15.27 408.55 15.9C408.633 15.7028 408.737 15.5151 408.86 15.34Z" fill="#E9E6E3"/><path d="M372.76 8C373.05 7.2 377.39 6.47 381.14 7.32 384.83 6.73 382.42 4.12 379.2 2.66 379.09 3.01 379.09 3.33 375.29 3.8 376.62 4.23 383.71 4.8 380.51 5.53 375.51 5.93 376.39 5.25 373.94 4.83 376.02 5.83 367.54 6.26 368.64 7.71L373.05 7.2C373.13 7.38 371.53 7.74 372.76 8Z" fill="#E9E6E3"/><path d="M386.44 2.7 388 2.6C386.166 2.41838 384.354 2.05664 382.59 1.52 379.99 1.91 379.45 2.2 379.28 2.52L386.97 2.63Z" fill="#E9E6E3"/><path d="M395 2.59C393.78 3.46 390 3.82 392.33 4.76 393.569 4.83538 394.812 4.68978 396 4.33 397.079 3.96225 398.202 3.73701 399.34 3.66L396.34 3.66 395.67 3.66 395.39 3.66C395.16 3.66 395.49 3.53 395.88 3.43 396.27 3.33 397.15 3.2 397.19 3.07 397.23 2.94 397.08 2.94 396.66 2.87L395.88 2.78C395.65 2.78 395.37 2.71 395.04 2.68L395.58 2.68C395.78 2.68 395.87 2.68 396.19 2.68L397.83 2.62 400.93 2.55 397.79 2.37 396.24 2.27C395.95 2.27 395.82 2.27 395.67 2.21L395.21 2.15 395.38 2.2 395.38 2.2C395.7 2.31 395.8 2.38 395.44 2.32L395.29 2.32C395.204 2.452 395.087 2.56166 394.95 2.64 392.81 2.46 394.62 2.42 395.29 2.32 395.29 2.32 395.37 2.23 395.38 2.18L395.38 2.18 388 2.6C389.57 2.72 391.53 2.69 395 2.59Z" fill="#E9E6E3"/><path d="M404 35.72C404.07 35.49 404.13 35.5 404.2 35.48 404.09 35 404 34.82 404 35.72Z" fill="#E9E6E3"/><path d="M404.52 32.67C404.847 33.5442 404.973 34.4805 404.89 35.41 404.63 36.93 404.48 35.41 404.2 35.48 404.43 36.53 404.81 39.17 405.2 35.86L405.09 35.34C405.38 32.34 406.46 28.52 406.58 29.04 405.646 30.0916 404.944 31.3286 404.52 32.67Z" fill="#E9E6E3"/><path d="M406.2 15.38 405.78 7.67C405.53 9.18 405.28 10.6 405.03 11.91L405.48 11.56C405.335 12.6873 405.389 13.8314 405.64 14.94 405.8 15.24 406 15.16 406.2 15.38Z" fill="#E9E6E3"/><path d="M378.17 2.03 378.99 1.12 375.42 2.41 378.17 2.03Z" fill="#E9E6E3"/><path d="M370.15 2.14 370.44 1.35 368.33 1.83 370.15 2.14Z" fill="#E9E6E3"/><path d="M10.35 95.31 10.58 97.12C10.5383 96.5127 10.4615 95.9084 10.35 95.31Z" fill="#E9E6E3"/><path d="M10.41 82.18 10 81.86C10.23 82.46 10.39 82.71 10.41 82.18Z" fill="#E9E6E3"/><path d="M173.15 2.23C170.51 1.49 167.56 0.34 167.88 1.23L168.69 2.1C170.176 1.96195 171.674 2.00561 173.15 2.23Z" fill="#E9E6E3"/><path d="M38.23 7.41 39.01 7.67 40.79 6.84Z" fill="#E9E6E3"/><path d="M36.37 11 32.89 10.44C34.0378 10.6961 35.1998 10.8831 36.37 11Z" fill="#E9E6E3"/><path d="M45.82 121.14 47.94 120.25C44.63 120.26 46.08 120.7 45.82 121.14Z" fill="#E9E6E3"/><path d="M288 2.46C286.116 2.16831 284.216 1.99464 282.31 1.94 285.05 2.43 287.27 3.18 288 2.46Z" fill="#E9E6E3"/><path d="M1.15 90.14C1.3 91.25 1.48 91.73 1.67 91.69 1.53 90.55 1.36 89.9 1.15 90.14Z" fill="#E9E6E3"/><path d="M275.72 1.94C276.13 2.03 276.52 2.07 276.93 2.14 278.718 1.9664 280.514 1.89962 282.31 1.94 280.14 1.45482 277.89 1.45482 275.72 1.94Z" fill="#E9E6E3"/><path d="M305.9 121.85C306.09 121.85 306.32 121.91 306.49 121.96 306.55 121.84 306.29 121.83 305.9 121.85Z" fill="#E9E6E3"/><path d="M381.67 130.61C380.93 130.61 379.67 130.61 378.56 130.68 379.597 130.74 380.637 130.717 381.67 130.61Z" fill="#E9E6E3"/><path d="M337.87 1.76C339.58 1.7 338.14 1.67 337.87 1.76Z" fill="#E9E6E3"/><path d="M346.15 5.19C345.79 5.29 345.51 5.41 345.47 5.61 345.64 5.39452 345.881 5.24584 346.15 5.19Z" fill="#E9E6E3"/><path d="M258.78 7.34 258.63 7.34C259.14 7.51 259.05 7.47 258.78 7.34Z" fill="#E9E6E3"/><path d="M340.43 2.16C339.8 2.05 339.06 1.96 338.26 1.9 338.61 2 339.27 2.05 340.43 2.16Z" fill="#E9E6E3"/><path d="M340.09 1.75 341.58 1.83C341.79 1.68 341.6 1.59 340.09 1.75Z" fill="#E9E6E3"/><path d="M335.5 1.81C336.421 1.7932 337.342 1.82324 338.26 1.9 337.92 1.84 337.78 1.79 337.87 1.76Z" fill="#E9E6E3"/><path d="M166.55 124.18C166.672 124.198 166.792 124.225 166.91 124.26 168.63 123.9 167.88 124 166.55 124.18Z" fill="#E9E6E3"/><path d="M128.87 11.24 129.07 11.24 128.82 11.24Z" fill="#E9E6E3"/><path d="M122.76 11.88C124.661 11.033 126.775 10.7854 128.82 11.17L126.82 8.67Z" fill="#E9E6E3"/><path d="M10.6 121.79C10.8073 121.149 11.0683 120.527 11.38 119.93 11.6257 120.09 11.9076 120.186 12.2 120.21 12.4323 120.117 12.6432 119.977 12.82 119.8 12.9667 119.55 13.1339 119.312 13.32 119.09 13.09 119.33 12.9 119.53 12.71 119.7 12.28 120.08 12.07 120.03 11.96 119.79 11.9071 119.645 11.8735 119.494 11.86 119.34L11.86 119.21 11.86 119 11.86 117.58C11.79 113.82 11.62 110.34 10.39 110.07L10.96 107.24C10.96 108.05 11.09 108.18 11.07 108.98 12.37 103.48 9.07 104.9 9.49 97.81 9.7 95.34 10.09 93.61 10.41 95.3L9.68 89.8C9.74 88.2 10.21 88.59 10.15 90.19L9.94 81.79 10.02 81.86C9.59 80.66 8.93 77.94 8.65 76.62 9.04 74.49 8.94 77.69 9.28 77.14L8.62 72.49C9.33 70.6 10.01 74.49 9.91 77.66 12.62 73.32 9.23 73.81 10.81 64.44L11.15 68.83C12.69 66 12.15 62.57 13.1 57.61 12.59 58.79 10.68 67.54 10 62.5 10.2721 60.5009 10.1875 58.4695 9.75 56.5 10.75 56.5 10.48 53.82 10.43 50.5L11.71 50.73C11.34 47.14 10.71 47.42 10.11 45.31 10.24 41.31 11.23 40.47 12.11 39.52 12.32 33.11 10.52 43.96 10.28 36.36 10.77 31.02 10.28 27.28 9.48 20.89 9.93 17.16 10.27 21.55 10.63 20.21L9.63 16.89C9.63 16.08 9.97 16.35 10.13 16.48 10.0961 16.0324 9.97014 15.5966 9.76 15.2 9.69625 15.1056 9.61872 15.0214 9.53 14.95L9.3 14.86C8.98 14.71 8.68 14.46 8.5 13 7.88 12.44 8.2 11.19 8.62 10.19 9.82 10.46 10.96 10.77 11.89 10.9 12.335 10.9544 12.785 10.9544 13.23 10.9L13.39 10.9 13.7 10.9C13.9 10.9 14.11 10.9 14.31 10.81 14.7053 10.7494 15.0962 10.6626 15.48 10.55 16.82 10.91 14.84 11.33 15.25 11.83 22.69 10.83 21.63 11.06 27.75 9.65L32.96 10.49C29.13 9.49 34.02 8.39 38.3 7.49 36.94 7.03 35.78 6.62 35.01 6.43L41.84 5.74C42.67 5.95 41.98 6.39 40.84 6.92 41.31 6.82 41.75 6.71 42.09 6.62 44.54 7.09 43.27 7.83 41.52 8.54 40.69 8.29 39.86 8.02 39.06 7.75 37.37 8.53 35.79 9.39 36.14 10.14 36.8732 9.94945 37.6236 9.83221 38.38 9.79 37.94 10.01 37.66 10.19 37.86 10.32 38.06 10.45 38.81 10.17 39.92 9.85L41.48 11.27 41.86 10.71 50.8 11.6C57.2 10.16 62.8 8.05 72.92 7.46 70.4 8.46 72.38 9.17 72.24 10.46 69.47 9.15 64.38 11.01 59.11 10.75 61.86 10.89 61.26 11.48 60.56 11.68L69.94 10.49C69.73 11.49 71.94 11.25 74.39 11.67 72.54 9.67 81.39 10.34 85.21 9.72 85.45 10.39 84.53 11.08 79.87 10.92 85 12.3 86.46 8.44 91.51 9.72 90.37 9.72 89.76 9.63 89.31 9.97 91.97 9.37 98.47 9.85 96.94 10.43L95.8 10.43C103.36 10.66 118.8 10.43 119.93 8.74 119.619 9.6323 119.125 10.4498 118.48 11.14L132 5.43C130.81 6.89 135.37 10.37 129.11 11.2 131.704 11.5463 134.333 11.5227 136.92 11.13 135.7 10.93 133.92 9.02 135.54 8.89 140.14 10.51 138.74 9.76 144.41 11.14 142.57 10.83 144.62 8.54 147.52 8.61 147.07 8.96 147.76 10.87 146.7 11.11L153.94 8.86C152.13 9.27 153.62 10.77 155.24 11.41 154.49 10.97 161.49 11.41 163.42 11.22L160.35 10.7C168.52 11.04 168.42 7.54 176.53 7.7 175.53 8.16 174.1 10.56 178.22 10.84 180.11 9.69 186.59 5.3 193.76 4.41L195.13 5.07 200.63 4.32C194.707 7.02057 188.598 9.29306 182.35 11.12 185.4 11.64 183.2 11.9 187.78 11.84 189.39 12.45 185.28 12.77 183.93 12.84L194.59 13.24C194.12 11.89 202.74 11.89 202.34 10.77L190.76 12.16C190.29 10.82 197.45 8.35 205 8.58 206.93 9.12 203.57 10.98 203.73 11.43 204.73 10.96 210.89 10.54 211.59 10.87L208.38 11.59C212.59 12.09 215.24 9.81 220.3 11.09 222.04 11.18 225.5 12.82 225.81 12.03 222.96 10.49 222.41 5.75 224.3 4.59 224.91 4.7 233.46 6.06 235.45 6.82 238.32 8.02 231.14 9.68 233.58 10.72 233.69 10.35 235.27 9.9 235.93 9.72 237.77 10.04 235.18 10.86 239.16 10.72 239.82 9.36 247.25 10.84 241.04 9.57 244.93 9.18 245.17 9.85 249.74 9.79 248.29 8.91 253.85 6.79 257.74 6.4 257.51 6.75 258.38 7.2 258.81 7.4 266.81 7.52 271.07 8.14 278.51 8.15 279.2 8.48 282.79 8.88 281.26 9.47 282.667 9.01742 284.132 8.76823 285.61 8.73 290.05 9.91 280.49 8.92 283.87 10.33 284.16 9.54 289.81 9.24 293.08 8.74 292.08 7.52 285.53 8.51 282.25 9 282.25 7.32 287.94 5.55 295.71 4.77 301.89 4.35 298.39 5.86 299.47 5.62 311.07 5.91 309.36 2.67 319 3.89 322.82 4.97 319.17 6.03 320 6.81 315 7.21 312.27 6.12 308.85 6.17L313.06 6.67C310.822 7.11561 308.53 7.22347 306.26 6.99 309.47 7.99 325.87 7.18 334.83 8.07 336.42 7.71 339.17 7.34 337.83 6.9L335 7C332.39 6.14 340.33 5.8 336.74 5.4 340.54 4.79 344.8 3.83 350.16 4.32L351.16 5.55C351.05 5.19 347.66 4.82 346.16 5.19 348.39 4.65 354.37 6.85 356.81 5.25L353.06 4.4C356.88 3.78 361.59 2.48 366.34 2.86 364.18 1.65 365.24 3 361.87 1.59 364.79 3.35 349.74 1.51 354.43 3.36 350.98 1.72 348.43 2.67 343.93 1.26 344.07 1.67 345.53 2.04 341.55 1.84 341.269 1.98842 340.974 2.10899 340.67 2.2L340.4 2.2 340.62 2.2C340.45 2.26 340.44 2.28 340.71 2.2 341.405 2.29372 342.081 2.49974 342.71 2.81 340.71 3.74 334.41 3.71 332.27 4.2 329.9 4 333.27 3.73 331.96 3.3L328.82 4C328.5 3.1 322.54 2.51 328.1 2L323.1 2C319.963 1.46304 316.767 1.35204 313.6 1.67 311.23 1.48 307.6 2.67 309.69 1.96L301.83 2.52 301.76 2.3C294.01 2.18 285.76 3.79 276.94 2.16 273.729 2.51556 270.495 2.59919 267.27 2.41L266.41 1.63C263.06 1.9 256.35 0.86 254.91 1.63 251.3-0.46 238.65 1.17 232.76 0.8L232.54 1.8C228.48 1.75 224.59 2.04 219.54 2.44L219.85 3.34C215.5 4.07 208.68 2.7 201.85 2.79 202.32 2.45 204.06 2.54 205.29 2.79 197.09 0.79 187.98 4.26 180.54 2.79 179.056 3.06732 177.534 3.06732 176.05 2.79 176.203 2.80147 176.357 2.80147 176.51 2.79 176.32 2.79 176.03 2.79 175.74 2.79 174.93 2.63 174.08 2.45 173.17 2.31 173.881 2.52295 174.606 2.68338 175.34 2.79 173.91 2.79 171.74 2.92 169.61 3.14L168.71 2.14 168.22 2.14C166.13 1.78 166.54 2.59 167.65 3.32 166.701 3.44848 165.762 3.64228 164.84 3.9 163.15 2.34 159.26 4.42 156.95 2.77 155.52 3.57 146.26 3.37 145.13 5.08 145.06 4.85 144.43 4.75 145.58 4.73 143.301 4.42611 140.989 4.45981 138.72 4.83L137.72 3.6 132.55 5.25C129.4 4.5 128.1 4.07 131.22 3.12 123.69 4.58 125.11 3.67 118.7 5.12L119.01 4.33C116.72 4.33 113.01 5.42 111.68 4.76 106.55 3.26 86.32 4.56 73.16 3.15 75.71 5.49 67.05 2.15 66.53 3.92 65.73 3.35 63.9 3 66 2.56 59.28 3.1 55.91 1.68 51.27 3.21 50.5 2.65 52.71 2.4 52.03 2.07 51.109 2.34688 50.135 2.39832 49.19 2.22 48.51 1.89 50.19 1.76 51.24 1.52 44.38 1.61 43.69 3.31 43.19 4.9 39.71 4.15 37.98 4.25 35.47 5.3 34.26 4.78 32.24 4.23 36.47 4.05 34.08 3.97 21.83 3.28 21.58 4.56 20.2539 4.34347 18.9002 4.36039 17.58 4.61 12.58 4.54 10.98 4.42 4.1 4.54L6.21 4.75C5.55501 5.30149 4.71512 5.58383 3.86 5.54 3.8651 6.60188 3.81504 7.66331 3.71 8.72 3.58702 10.1799 3.54696 11.6456 3.59 13.11L3.44 12.92 3.14 16.35C3.07 17.16 3.04 17.78 3.03 18.28 3.01186 18.9482 3.04529 19.6169 3.13 20.28 3.24 21.28 3.33 22.34 2.7 27.16L3.7 26.64C5.76 27.53 2.48 35.17 3.27 40.76L3.82 38.76C4.53 41.82 1.01 47.3 0.76 50.36 0.58 51.03 0.47 49.31 0.34 48.36-0.88 56.36 1.59 49.36 1.88 55.36 1.25 56.52 0.2 54 0.07 58-0.47 60 2.27 69.7 1 75.2 1.5 74 2 72.78 2.41 75.56 2.6 79.82 0.41 87.08 2.08 90.92 1.94 91.47 1.8 91.67 1.67 91.69 2.1 94.95 2.38 102.27 3.27 104.23 1.62 105.74 2.02 110.8 2.45 115.47 2.56 116.64 2.66 117.79 2.75 118.85L2.81 119.85 2.81 120.85C2.81 121.5 2.81 122.1 2.81 122.66 2.81 124.88 2.52 126.51 1.81 127.03L1.81 130.57 13.11 130.45 12.71 130.76 14.05 130.76 15.11 130.76C15.79 130.76 16.41 130.76 16.98 130.76 17.9606 130.72 18.9386 130.63 19.91 130.49 21.237 130.273 22.5422 129.938 23.81 129.49 25.29 129.69 24.21 129.98 24.09 130.14 33.44 130.76 34.37 130.63 42.21 129.14L43.03 130.14C45.15 129.57 56.55 131.7 65.73 130.54 65.64 130.66 65.45 130.85 64.73 130.99 75.05 129.82 89.44 133.74 93.22 130.13L100.03 129.24C91.22 128.96 101.34 127.67 97.72 127.07 101.18 126.86 106.72 128.16 102.42 128.35L101.75 128.17C100.19 130.05 112.75 128.83 112.46 130.11 129.8 130.02 146.7 131.11 162.95 131.11L161.08 129.65 166.74 129.73C168.23 130.07 168.74 130.88 164.74 130.82 166.86 131.65 171.51 130.12 171.63 129.82 179.54 130.41 168.54 131.52 170.97 131.56L174.26 131.45 173.52 131.28C176.19 130.68 176.43 130.04 181.28 130.12 184.36 130.41 182.86 131.02 184.07 131.12 184.07 131.23 184.47 131.28 185.93 131.12L193.07 131.24 190.22 130C193.39 129.43 196.93 130.06 193.64 128.75 198.47 130.75 220.27 129.47 223.23 130.1 227.67 129.26 232.04 129.27 237.46 129.38 236.11 129.13 235.3 127.84 239.98 127.99 238.27 130.67 248.53 129.16 252.31 131.09 248.94 129.81 265.6 130.77 260.31 128.95 264.21 129.17 260.55 129.95 263.51 130.59 272.79 129.59 283.96 131.26 295.43 130.91 295.61 130.56 293.69 130.02 296.15 129.5L302.21 131.26C304.47 131.09 304.29 129.26 308.43 130.45 307.85 130.15 306.98 129.71 308.5 129.59 330.97 131.31 354.42 128.19 377.24 131.41 374.15 130.73 376.24 130.66 378.57 130.64 377.04 130.47 378.57 129.77 378.31 129.29L387.86 130.62C389.6 129.29 398.11 130.53 399.1 129.26L396.1 129.49C400.1 127.99 390.47 126.17 391.1 124.25 386.59 125.95 379.21 121.74 371.82 124.17 370.19 123.78 373.21 123.55 372.34 123.11 370.47 123.93 368.2 124.11 364.01 123.73L364.48 123.53C352.7 123.73 347.65 122.92 334.42 122.38L335.42 123.38C333.809 123.321 332.207 123.1 330.64 122.72 327.38 124.15 338.64 122.8 335.64 124.38 331.86 122.45 315.58 124.38 313.03 122.16 308.65 122.16 314.31 123.26 309.94 123.25L308.78 122.65 307.67 123.42C304.8 123.29 303.36 122.55 303.25 122.05 304.16 122.04 305.068 121.976 305.97 121.86 302.25 121.17 295.48 122.1 294.21 121.86L298.41 122.22C286.47 122.77 271.89 122 260.35 123.22L261.23 123.67C252.42 124.5 254.17 123.18 244.5 123.56L244.85 123.45C242.492 123.936 240.086 124.145 237.68 124.07 240.13 123.55 233.09 123.07 236.29 122.48 226.74 123.36 231.57 123.17 225.29 124.84L223.83 124.09C221.68 124.76 221.5 125.09 216.67 125.31 220.67 124.67 213.59 124.18 218.03 123.31 207.89 121.69 202.98 124.95 198.32 122.57 193.67 124.63 207.1 123.71 204.49 124.15 206.67 124.82 200.65 125.69 197.49 125.48 194.25 125.48 191.98 122.85 183.83 122.89 184.65 122.89 184.7 122.75 185.51 122.76 182.51 122.23 179.51 123.47 175.8 122.62 173.7 123.86 170.94 122.55 170.34 124.13L177.81 123.76C173.57 124.18 169.6 126.03 162.62 125.13 163.93 124.652 165.288 124.317 166.67 124.13 164.67 123.66 162.74 124.44 160.62 123.96 161.23 122.37 169.71 123.61 174.24 122.4 172.05 121.73 165.66 123.55 167.94 121.84 164.66 124.02 159.94 121.56 154.4 123.23L154.76 122.23C153.351 122.553 151.915 122.744 150.47 122.8L153.38 121.57C148.92 122.57 144.77 120.65 140.49 121.22 149.49 121.22 142.49 122.37 146.29 123.06 135.23 124.33 139.93 120.58 127.55 121.06 129.22 120.93 133.84 121.63 131.22 122.06 128.885 121.929 126.567 121.574 124.3 121 116.09 121.2 125.56 122 122.07 122.56 119.27 121.41 118.07 123.03 114.44 123.4L114.44 122.4C105.09 121.78 111.96 124.4 103.54 123.66L107.1 122.32 102.71 122.67 103.61 121.57C98.84 122.39 97.35 122.18 92.67 121.87 93.76 122.55 92.06 123.62 87.92 123.65 85.1 123.08 89.5 122.73 83.63 122.87 85.2428 121.911 87.2043 121.738 88.96 122.4 89.22 122.08 90.27 121.79 90.54 121.48 87.54 120.82 82.9 121.33 80.77 121.34 81.5413 121.353 82.3103 121.426 83.07 121.56L74.42 123C73.08 122.64 74.14 122.35 75.19 122.06 73.47 122.17 72.28 122.61 69.74 122.69 70.4 121.91 70.24 121.1 73.83 120.69L65.72 121.56C65.18 121.22 61.56 120.62 62.61 120.34 58.12 119.88 51.61 121.86 45.61 121.25 44.9066 121.503 44.1672 121.641 43.42 121.66 37.81 121.48 32.85 120.52 26.21 121.59L22.45 120.19C17.25 120.51 27.55 121.96 18.89 122.49 12.76 122.94 16.6 121.29 14.45 120.9 13.01 121.14 13.07 121.47 12.35 121.76 11.611 122.078 10.8229 122.268 10.02 122.32 9.96716 121.525 10.1078 120.729 10.43 120 10.71 120.62 10.5 121.24 10.6 121.79ZM10 62.62C10.2 63.87 10.83 66.34 10.26 67.25 9.13 65.84 9.66 64.74 10 62.62ZM47.67 9.27C46.34 9.53469 44.965 9.4625 43.67 9.06 45.0069 8.96936 46.3499 9.03987 47.67 9.27ZM319.23 2.55 319.09 2.55C316.32 2.22 317.31 2.37 319.23 2.55ZM325 3C325.58 2.86 325.54 2.73 325.3 2.59 324.265 2.85121 323.189 2.91566 322.13 2.78 322.52 3 323.26 3.18 325 3ZM184.72 130.67 183.6 130.42C186.13 130.14 185.42 130.39 184.72 130.67Z" fill="#E9E6E3"/><path d="M36.62 10.58C36.3774 10.4899 36.1847 10.3008 36.09 10.06 35.6 10.22 35.59 10.41 36.62 10.58Z" fill="#E9E6E3"/><path d="M45.43 121.3 45.62 121.3C45.7004 121.262 45.7693 121.203 45.82 121.13Z" fill="#E9E6E3"/><path d="M235.83 11.15C235.048 11.0868 234.277 10.9186 233.54 10.65 233.48 10.88 234 11.08 235.83 11.15Z" fill="#E9E6E3"/><path d="M355.48 1.33 351.8 1.58C352.915 1.53767 354.032 1.64189 355.12 1.89 355 1.67 354.33 1.34 355.48 1.33Z" fill="#E9E6E3"/><path d="M387.48 7.3C388.02 7.18 388.63 7.3 389.16 7.16L389 6.72C386.72 6.74 385.11 7.11 387.48 7.3Z" fill="#E9E6E3"/><path d="M358.9 4.53C359.19 5.34 361.5 5.07 364.08 4.92L363.63 4.92C364.39 3.78 361.64 4.16 358.9 4.53Z" fill="#E9E6E3"/><path d="M364.68 4.89C365.476 4.85009 366.274 4.85009 367.07 4.89 367.37 4.41 366.1 4.77 364.68 4.89Z" fill="#E9E6E3"/><path d="M332.28 2.43C333.51 2.63 333.05 1.43 333.75 1.72 335.11 0.69 325.58 3 332.28 2.43Z" fill="#E9E6E3"/><path d="M360.99 7.21 360.06 6.2 358.62 7.01 360.99 7.21Z" fill="#E9E6E3"/><path d="M340.6 6.47 344.72 6.75C344.66 6.58 345.18 6.48 345.83 6.41 343.29 6.37 340.5 6.17 340.6 6.47Z" fill="#E9E6E3"/><path d="M345.83 6.41C346.94 6.45979 348.051 6.40286 349.15 6.24 348.43 6.25 346.89 6.28 345.83 6.41Z" fill="#E9E6E3"/><path d="M355.35 7.51 354.13 7.3 351.21 7.22 355.35 7.51Z" fill="#E9E6E3"/><path d="M296.24 6.28 291.73 6.56C291.27 6.91 292.5 7.12 294.18 6.98 295.26 6.74 296.93 6.61 296.24 6.28Z" fill="#E9E6E3"/><path d="M309.86 9C309.146 8.89394 308.464 8.63467 307.86 8.24L307.72 9.48Z" fill="#E9E6E3"/><path d="M296.72 9.31C296.27 9.66 290.19 10.31 295.9 10.22 296.35 9.88 300.86 9.59 296.72 9.31Z" fill="#E9E6E3"/><path d="M228.86 7.74 230.01 7.72 229.84 5.69 228.86 7.74Z" fill="#E9E6E3"/><path d="M169.05 12.61C174.39 13.1 170.32 11.36 175.14 11.97 176.4 11.48 171.2 11.47 172.49 11.05 169.27 11.56 167.57 11.27 169.05 12.61Z" fill="#E9E6E3"/><path d="M172.49 11.05C173 10.97 173.55 10.87 174.13 10.74 173.577 10.8036 173.028 10.9073 172.49 11.05Z" fill="#E9E6E3"/><path d="M394.25 131.7 397.68 132.13 395.46 131.44 394.25 131.7Z" fill="#E9E6E3"/><path d="M400.83 130.19 401.64 131.49 403.7 130.32C402.744 130.456 401.77 130.412 400.83 130.19Z" fill="#E9E6E3"/><path d="M12.6 53.09 12.28 52.83C11.95 53.36 11.92 54.16 11.87 55.77Z" fill="#E9E6E3"/><path d="M11.63 99.63 11.65 98.83 10.48 100.33 11.63 99.63Z" fill="#E9E6E3"/><path d="M17.49 119.29C16.7 119.29 15.83 119.29 14.96 119.37L13.67 119.44 13.35 119.44C13.29 119.44 13.35 119.44 13.35 119.44L13.35 119.44 13.35 119.44 13.7 119.44C14.08 119.44 14.45 119.5 14.78 119.54 15.45 119.63 16.02 119.75 16.46 119.84 17.31 120 17.71 120 17.49 119.29Z" fill="#E9E6E3"/></g></g></svg>