<svg xmlns="http://www.w3.org/2000/svg" viewBox="0 0 470.56 64.01"><defs><style>.cls-1{fill:#e6e2df;}.cls-2{fill:#e9e6e3;}</style></defs><g id="Layer_2" data-name="Layer 2"><g id="Layer_1-2" data-name="Layer 1"><path class="cls-1" d="M457.13,61.34H35.85S-9.62,46,3.17,33.22c63.75-63.75,465.19-6.34,465.19-6.34Z"/><path class="cls-2" d="M459.8,61c-.48,1.36.07,1,.08,1.23C460.54,59.91,459.68,61,459.8,61Z"/><polygon class="cls-2" points="466.28 38.04 466.31 38.5 467.01 35.03 466.28 38.04"/><path class="cls-2" d="M457.62,23.9a18.64,18.64,0,0,0,5.26,1c.94.08,2.76.27,4.28.45,1.37.32,3.92-.1,2.56,1.76l-.46.9c0,.67-.06,1.41-.13,2.25.25-.83.52-1.69.79-2.57l.39-1.31.2-.66.05-.17a.65.65,0,0,0-.17,0l-.36,0-5.63-.65-3.79-.43C459.48,24.22,458.46,24.07,457.62,23.9Z"/><path class="cls-2" d="M446,20.83c.7.37-2.58-.09,2.75.44l-.49-.13Z"/><path class="cls-2" d="M448.28,21.14c2.33.28-1.5-.43,0,0Z"/><path class="cls-2" d="M437.48,19.93l3.11.14c-.62-.24-3.35-.62-2.32-.61C435.1,19.2,435.73,19.44,437.48,19.93Z"/><path class="cls-2" d="M434.51,20.09l1.6.09A3.52,3.52,0,0,0,434.51,20.09Z"/><path class="cls-2" d="M439.52,20.38l-3.41-.2c.43.17.45.4,1.56.11C437.37,20.47,438.06,20.35,439.52,20.38Z"/><path class="cls-2" d="M441.41,20.73c1.71.37,3.92.75.81.61C448.1,22,447.3,21.38,441.41,20.73Z"/><path class="cls-2" d="M456.4,24.49l2.27.51,2,0C459.68,25,456.28,24.25,456.4,24.49Z"/><path class="cls-2" d="M418.38,17.24c-.21.13,1,.53,1.19.75l2.29.09A17.13,17.13,0,0,1,418.38,17.24Z"/><path class="cls-2" d="M419.57,18l-3.43-.14C419.18,18.23,419.75,18.18,419.57,18Z"/><polygon class="cls-2" points="433.86 20.81 439.51 20.96 432.79 20.68 433.86 20.81"/><polygon class="cls-2" points="405.4 15.72 407.37 15.59 403.87 15.73 405.4 15.72"/><path class="cls-2" d="M396.78,14.81c1.46-.13-1.91-.7-.38-.71a56,56,0,0,0-6.19-.15A42,42,0,0,1,396.78,14.81Z"/><path class="cls-2" d="M387.15,14c1,0,2,0,3.06,0A28.4,28.4,0,0,0,387.15,14Z"/><path class="cls-2" d="M410.36,17.1a7.85,7.85,0,0,0-2.62-.74l1.29.58Z"/><path class="cls-2" d="M409.07,17l0,0-2.89-.36Z"/><path class="cls-2" d="M410.7,17.14l-.34,0A.41.41,0,0,0,410.7,17.14Z"/><path class="cls-2" d="M425,19.34c-2,0-6.22-.25-2.23.6C424.24,19.82,422,19.34,425,19.34Z"/><path class="cls-2" d="M412.3,17.86l3.6.52c-.06-.12-.69-.36.31-.36Z"/><polygon class="cls-2" points="410.52 17.79 412.3 17.86 410.97 17.67 410.52 17.79"/><path class="cls-2" d="M393.29,15c-1.58,0-3.29-.16-5.22-.34,2.06.3,4.19.59,6.22.81C394.59,15.39,395.51,15.25,393.29,15Z"/><path class="cls-2" d="M401,16l-.35,0C400.82,16,401,16.06,401,16Z"/><path class="cls-2" d="M369.08,12.69l.3.11a.29.29,0,0,1,.08-.07Z"/><path class="cls-2" d="M394.63,15.61a15.79,15.79,0,0,0,3.38.22c-1.16-.09-2.4-.2-3.72-.34C394.15,15.54,394.13,15.57,394.63,15.61Z"/><path class="cls-2" d="M381.83,13.58c.8.17,1.71.35,2.66.52A11.78,11.78,0,0,0,381.83,13.58Z"/><path class="cls-2" d="M400.1,15.8h.23C399.83,15.66,399.89,15.71,400.1,15.8Z"/><path class="cls-2" d="M400.1,15.8c-.81,0-1.45,0-2.09,0,.95.07,1.83.12,2.6.14A5,5,0,0,1,400.1,15.8Z"/><path class="cls-2" d="M363.05,14.84c.32-.37,4.44-.32,7.92.46,3.5.06,1.37-1.47-1.59-2.5-.13.16-.14.32-3.74.19,1.23.34,7.87,1.31,4.83,1.36-4.76-.28-3.87-.54-6.15-1,1.91.68-6.09.12-5.13.94l4.18.16C363.43,14.59,361.91,14.62,363.05,14.84Z"/><path class="cls-2" d="M376.18,13.54l1.48.1a48.48,48.48,0,0,1-5-1.06c-2.47-.06-3,0-3.17.15l7.23.8Z"/><path class="cls-2" d="M384.25,14.34c-1.19.3-4.74.11-2.63.8,4.32.43,3.06,0,5.66.06-7-.64,2,0-3-.81,1.38.08,2.61.18,3.77.29-1.25-.18-2.45-.38-3.58-.58l.16,0h0c.29.09.39.13.05.06h-.15a.76.76,0,0,1-.33.12c-2-.3-.3-.14.33-.12,0,0,.09,0,.1-.06h0l-7-.5C379.12,13.86,381,14,384.25,14.34Z"/><path class="cls-2" d="M419,20.41c-.22-.06-.2-.09-.22-.12C418.29,20.29,418.11,20.3,419,20.41Z"/><path class="cls-2" d="M416.12,19.82a11.11,11.11,0,0,1,2.6.11c1.41.3,0,.21,0,.36,1,0,3.51.11.43-.47h-.5c-2.79-.48-6.32-1.43-5.83-1.44A12.79,12.79,0,0,0,416.12,19.82Z"/><path class="cls-2" d="M400,17.12l-5.83-.43,2.92.7-.13-.24C400.24,17.6,399.56,17.25,400,17.12Z"/><polygon class="cls-2" points="368.44 12.41 369.25 12.03 365.83 12.33 368.44 12.41"/><polygon class="cls-2" points="360.88 11.71 361.2 11.34 359.19 11.38 360.88 11.71"/><path class="cls-2" d="M51.16,59l1.72-.11C52.07,58.89,51.55,58.93,51.16,59Z"/><path class="cls-2" d="M38.76,58.94l-.31.2C39,59,39.26,59,38.76,58.94Z"/><path class="cls-2" d="M174.88.68c-2.5-.38-5.29-1-5-.52l.76.44A34.42,34.42,0,0,1,174.88.68Z"/><path class="cls-2" d="M48,13.12l.74,0,1.56-.76Z"/><path class="cls-2" d="M46.74,15.29l-3.23.51C44.24,15.72,45.28,15.56,46.74,15.29Z"/><path class="cls-2" d="M118.93,58.51l2-.44C117.8,58.07,119.18,58.29,118.93,58.51Z"/><path class="cls-2" d="M283.45,5.3c-2.14-.33-3.85-.52-5.35-.64C280.67,5.08,282.74,5.61,283.45,5.3Z"/><path class="cls-2" d="M46.28,63.57c1-.08,1.5-.16,1.47-.26C46.67,63.38,46.06,63.47,46.28,63.57Z"/><path class="cls-2" d="M271.88,4.26l1.13.17c1.58,0,3.17.08,5.09.23A26.34,26.34,0,0,0,271.88,4.26Z"/><path class="cls-2" d="M364.71,58.87l.55.05C365.32,58.86,365.07,58.86,364.71,58.87Z"/><path class="cls-2" d="M436.31,63.25c-.7,0-1.85,0-2.94,0C433.9,63.31,434.79,63.31,436.31,63.25Z"/><path class="cls-2" d="M330.51,8.67c1.6.11.26,0,0,0Z"/><path class="cls-2" d="M338.15,11.08c-.35,0-.61.05-.66.15A1.37,1.37,0,0,1,338.15,11.08Z"/><path class="cls-2" d="M255.72,6h-.14C256.06,6.08,256,6.06,255.72,6Z"/><path class="cls-2" d="M332.9,9.08c-.59-.1-1.28-.21-2-.31C331.19,8.83,331.81,8.93,332.9,9.08Z"/><path class="cls-2" d="M332.6,8.85,334,9C334.2,9,334,8.9,332.6,8.85Z"/><path class="cls-2" d="M328.27,8.5c.92.07,1.77.17,2.59.27-.31-.06-.44-.09-.35-.1Z"/><path class="cls-2" d="M233,60l.34,0C235,59.89,234.27,59.92,233,60Z"/><path class="cls-2" d="M133.1,5.71l.18,0H133Z"/><path class="cls-2" d="M127.36,6.25A16.71,16.71,0,0,1,133,5.68l-1.95-1.19Z"/><path class="cls-2" d="M80.87,58.84l-4.05-.39c4.89-.64,8.44-.42,4.63-1-.58,1.35-15.76.13-16.33,1.49l-2.67-.28c.77,0,.89-.07,1.65-.06-5.2-.65-3.87,1-10.56.79-2.34-.1-4-.3-2.38-.46L46,59.3c-1.51,0-1.14-.26.37-.23l-7.94.11.06,0-1.07.17a9.43,9.43,0,0,0-1.13.2,1.21,1.21,0,0,1-.38,0c-.11,0-.41-.08-.6-.12l-1.11-.26c-1.8-.87,1,.22.57-.12-1.39-.39-2.79-.81-4.18-1.24-1.51-1,1.95.06,4.74,1.11a8.78,8.78,0,0,0-4-2,29.1,29.1,0,0,1-7.27-3.08c1.26.51,2.53,1,3.8,1.47-2.11-1.73-5.15-2.73-9-5.23.41.36,2.31,1.65,3.6,2.6s2,1.6-.25.78a37.65,37.65,0,0,0-5-2.38c.21-.45-2-1.46-4.61-3l.51-.44c-2.81-1.59-2.76-1.21-4.45-2.1-2.74-2.28-2.69-3.23-2.87-4-.74-1-.89-1.24-1-1.21s0,.4.15.76.25.7.09.67S4.41,41.24,3.74,40a4.77,4.77,0,0,1-.41-2.25,4.42,4.42,0,0,1,.69-2,8.51,8.51,0,0,1,.81-1l1.22-1.23a28.09,28.09,0,0,1,2.86-2.7c2.86-1.83-.25.67.84.09.72-.7,1.37-1.5,2.16-2.13.64-.38.52-.12.46,0,2.09-1.49-.19-.69,3.23-2.88.32-.54,2.28-1.34,4.72-2.22,1.23-.41,2.57-.87,3.87-1.4a27.81,27.81,0,0,0,3.73-1.67c1.22-.27-.43.59,0,.68l2-1,1.56-.64,2.17-.91L35.65,18l3-1.28c1.61-.3,3.2-.64,4.83-.87-3.61.4.69-1.25,4.52-2.68-1.3.08-2.41.15-3.15.23L48,12.41l3.13-.85c.78-.06.19.29-.79.77l1.13-.4c2.31-.25,1.21.36-.33,1.06l-2.36.1c-1.47.72-2.8,1.53-2.39,1.8a17.41,17.41,0,0,1,2-.67c-.38.2-.62.36-.42.37a9.93,9.93,0,0,0,1.84-.65l1.58.39.29-.35c1.38-.21,2.76-.45,4.15-.65L60,12.78C65.76,11,70.79,9.12,80.28,7.64c-2.3.8-.4.91-.46,1.54a17.33,17.33,0,0,0-5.27.56c-2.11.44-4.49.94-6.94,1.29,2.56-.34,2,0,1.41.25,2.87-.65,5.77-1.22,8.66-1.83-.14.52,1.91.16,4.22.09-.92-.39.69-.75,3-1.11s5.27-.61,7-.95c.26.31-.57.74-4.94,1.1,4.89.28,6.11-1.84,10.91-1.58a6.73,6.73,0,0,0-2,.3c2.47-.51,8.6-.79,7.18-.37L102,7c7.11-.46,21.64-1.37,22.67-2.21.07.11-.89,1.06-1.31,1.25l6.29-1.7,6.32-1.64c-1.1.76,3.25,2.36-2.64,3a52.38,52.38,0,0,0,7.37-.26c-1.16-.09-2.92-1-1.34-1.09,4.37.71,3,.36,8.4.94C146,5.17,147.87,4,150.62,4c-.43.17.25,1.13-.75,1.26L156.68,4c-1.7.22-.29,1,1.24,1.26-.71-.23,5.9,0,7.71-.12l-2.89-.26c7.71.14,7.62-1.58,15.28-1.48-.93.23-2.3,1.4,1.58,1.59a56.69,56.69,0,0,1,14.73-3l1.29.36,5.21-.26c-3.26.78-12.38,2.4-17.34,3.07,2.88.3.8.4,5.12.43,1.52.33-2.36.43-3.63.43l10,.38c-.43-.69,7.7-.49,7.34-1.05l-10.94.44c-.43-.67,6.36-1.8,13.49-1.47,1.8.32-1.39,1.16-1.25,1.39a46.18,46.18,0,0,1,7.42-.06l-3,.26c4,.39,6.5-.67,11.25.14,1.64.11,4.87,1.06,5.17.67-2.65-.87-3.08-3.26-1.27-3.77.58.07,8.62,1.08,10.48,1.56,2.68.73-4.13,1.25-1.85,1.87A7.56,7.56,0,0,1,234.07,6c1.72.24-.74.53,3,.62.66-.66,7.63.44,1.8-.49,3.68,0,3.9.34,8.21.53-1.35-.51,4-1.3,7.64-1.28-.22.16.59.44,1,.56,7.53.5,11.55,1,18.56,1.52.64.21,4,.63,2.55.83a24.9,24.9,0,0,1,4.12-.1c4.15.88-4.83-.24-1.69.69.3-.38,5.63-.15,8.73-.18-.9-.68-7.11-.63-10.21-.58,0-.85,5.48-1.36,12.84-1.23,5.84.22,2.48.73,3.51.69,10.93,1,9.43-.76,18.47.57,3.56.83.08,1.08.84,1.53-4.75-.19-7.25-.92-10.47-1.16l3.94.57a40.55,40.55,0,0,1-6.41-.35c3,.71,18.47,1.55,26.86,2.75,1.51,0,4.12,0,2.91-.33L327.6,11c-2.42-.65,5.07-.16,1.71-.66A84.58,84.58,0,0,1,342,11l.89.7a17.36,17.36,0,0,0-4.69-.62c2.12-.07,7.65,1.54,10,1l-3.49-.75a92.17,92.17,0,0,1,12.57.43c-2-.8-1,0-4.14-1,2.67,1.13-11.42-1.13-7.09.22-3.18-1.12-5.6-.88-9.8-2,.12.21,1.48.52-2.27.09a7.78,7.78,0,0,1-.84.1l-.25,0,.21,0c-.17,0-.18,0,.07,0a10.16,10.16,0,0,1,1.89.48c-1.91.29-7.87-.26-9.91-.18-2.21-.29,1-.15-.24-.47l-3.05.1c-.26-.48-5.85-1.25-.58-1.07l-4.72-.41a61.5,61.5,0,0,0-8.95-.9c-2.22-.27-5.67.06-3.7-.14l-7.43-.29-.06-.12c-7.31-.6-15.11-.35-23.42-1.71-2.47,0-5-.07-9.14-.45l-.78-.43c-3.17-.07-9.48-.94-10.87-.62-3.35-1.24-15.35-1-20.92-1.45l-.23.49c-3.83-.2-7.52-.19-12.29-.18l.28.46c-4.12.23-10.54-.7-17-.81a12.09,12.09,0,0,1,3.25.07c-7.73-1.25-16.39.33-23.41-.49A22.58,22.58,0,0,1,177.6,1L178,1h-.72L174.88.68c.74.12,1.44.21,2.05.26-1.35,0-3.41,0-5.42.14L170.65.6h-.46c-2-.19-1.59.22-.54.59-1,.07-1.94.17-2.66.28-1.6-.77-5.27.28-7.47-.54-1.35.41-10.11.42-11.17,1.29-.07-.11-.66-.15.42-.18a41.82,41.82,0,0,0-6.49.18l-1-.59-4.88,1c-3-.27-4.22-.45-1.28-1-7.11.95-5.78.47-11.81,1.45l.27-.41c-2.17.1-5.6.82-6.92.57-2.44-.25-8.44.08-15.38.6S86.5,5.06,80.26,5.5c1.28.44-.18.48-2,.53s-4,.19-4.19.66c-.76-.17-2.51-.09-.54-.6-1.57.28-3,.48-4.21.64l-3.45.48A26.46,26.46,0,0,0,59.76,8.6C59,8.46,61,8,60.36,7.91a10.7,10.7,0,0,1-2.64.56c-.67,0,.88-.39,1.85-.7C53.14,9,52.68,10,52.38,10.9a17.34,17.34,0,0,0-7.1,1.81c-1.18,0-3.12.22.8-.84-1.1.28-4.53.93-7.64,1.86-1.56.44-3,.86-4.15,1.27s-1.79.75-1.8.92a19.52,19.52,0,0,0-3.6,1.22l-5,1.85c-1.29.5-2.54,1.1-4.85,2.14l1.33-.48c-1.51,1.48-3.73,1.92-7.27,4l.06-.13A46.32,46.32,0,0,0,9,26.85c-.79.57-1.18.89-1.57,1.21s-.77.64-1.55,1.18l-3.71,3h.72c0,.32-.4.8-1,1.54A8.4,8.4,0,0,0,.21,36.92a7.17,7.17,0,0,0,.44,4.65A10.81,10.81,0,0,0,3.3,45.24a19.07,19.07,0,0,1-1.11-1.7c1.06,1.1,2.26,2.82,3.66,4.45A24,24,0,0,0,10,52.06c.51.42-1-.43-1.76-.9,3.16,2.43,3.5,2.34,3.62,2.15s.09-.61,2.65.73c.78.8-1.64.12,1.79,2a42.31,42.31,0,0,0,6.49,2.7,81.54,81.54,0,0,1,8.81,3.52c-1-.66-2-1.31.58-.55.48.17,1,.37,1.54.59l.84.34.56.22c.21,0,.41.21.64.19l1.2.06,1,.07,2,.13A28.3,28.3,0,0,0,47,63.1c.51.08.71.14.73.21,3.07-.21,10-.35,11.85-.8,2.84,1.66,19.13-.81,19.06.72l9.46-.08-.25.16a46.25,46.25,0,0,0,10.32-.64c1.4.11.38.25.26.33a87.85,87.85,0,0,0,17.13-.52l.77.5c2-.29,12.78.78,21.45.2a2.27,2.27,0,0,1-1,.22c9.75-.58,23.35,1.37,26.92-.43l6.44-.45c-8.33-.14,1.24-.78-2.19-1.08,3.28-.1,8.47.55,4.44.64l-.63-.09c-1.47.94,10.35.33,10.13,1,16.38,0,32.35.48,47.7.52l-1.76-.73,5.35,0c1.4.17,1.88.57-1.93.54a19.11,19.11,0,0,0,6.51-.51c7.48.3-2.92.86-.63.87l3.12,0-.71-.09A36,36,0,0,1,247,63c2.91.15,1.49.46,2.64.48,0,.06.38.08,1.75,0l6.75.07-2.7-.58c3-.28,6.34,0,3.23-.62,4.57,1,25.16.36,28,.67A121.49,121.49,0,0,1,300,62.65c-1.28-.12-2-.77,2.38-.69-1.62,1.34,8.09.58,11.65,1.54-3.19-.64,12.56-.15,7.55-1.06,3.69.11.23.5,3,.82,8.77-.52,19.33.33,30.17.16.17-.18-1.64-.45.68-.71l5.73.88c2.14-.09,2-1,5.88-.4-.55-.15-1.38-.38.06-.43,21.24.85,43.4-.7,65,.91-2.92-.35-1-.38,1.26-.39-1.45-.08,0-.44-.25-.67l9,.66c1.64-.66,9.68-.05,10.62-.68l-2.86.12c3.8-.75-5.32-1.66-4.76-2.62-4.26.85-11.23-1.26-18.22,0-1.54-.2,1.32-.31.49-.53a29.41,29.41,0,0,1-7.87.31l.45-.1c-11.13.1-15.91-.31-28.41-.58l.92.47a39.24,39.24,0,0,1-4.51-.33c-3.08.72,7.55,0,4.74.84-3.57-1-19,0-21.36-1.11-4.14,0,1.21.55-2.93.54l-1.09-.3-1.05.38c-2.71-.06-4.08-.43-4.18-.68.66,0,1.87-.07,2.58-.09-3.52-.35-9.91.12-11.12,0l4,.19c-11.28.27-25.06-.12-36,.49l.83.22c-8.33.41-6.67-.25-15.81-.05l.33-.06a52.5,52.5,0,0,1-6.77.31c2.3-.26-4.35-.51-1.32-.8-9,.45-4.46.35-10.43,1.18L287.06,60a29.93,29.93,0,0,1-6.77.61c3.75-.32-2.91-.56,1.28-1-9.58-.82-14.22.81-18.62-.37-4.4,1,8.29.57,5.83.79,2.06.33-3.63.77-6.64.66s-5.2-1.31-12.9-1.29c.77,0,.82-.08,1.58-.07-2.88-.26-5.64.35-9.18-.07-2,.62-4.58,0-5.15.76l7.06-.19c-4,.21-7.76,1.14-14.35.69A32.89,32.89,0,0,1,233,60c-1.93-.23-3.71.15-5.71-.09.57-.79,8.58-.17,12.87-.77-2.07-.34-8.11.57-6-.29-3.1,1.09-7.58-.13-12.8.7l.35-.48a39.15,39.15,0,0,1-4.06.29l2.75-.61c-4.22.52-8.13-.46-12.18-.18,8.47,0,1.9.57,5.48.92-10.45.64-6-1.24-17.71-1,1.58-.07,5.95.28,3.47.5a65,65,0,0,1-6.54-.53c-7.75.1,1.19.49-2.11.78-2.64-.58-3.81.24-7.21.42l0-.48c-8.84-.31-2.34,1-10.3.63l3.37-.67-4.15.18.85-.55a65,65,0,0,1-10.33.15c1,.33-.58.87-4.5.89-2.67-.29,1.5-.46-4.05-.39a10.42,10.42,0,0,1,5-.24c.25-.16,1.23-.3,1.49-.46a87.44,87.44,0,0,0-9.23-.07c.77,0,1.69,0,2.17.11l-8,.67c-1.27-.18-.27-.32.73-.47-1.63.06-2.76.28-5.15.32.62-.39.47-.8,3.86-1l-7.66.43c-.51-.17-3.94-.47-2.94-.61-4.25-.23-10.42.76-16.05.46a13.61,13.61,0,0,1-2.08.2c-5.29-.09-10-.57-16.26,0l-3.56-.7c-4.91.15,4.82.88-3.36,1.15-5.79.22-2.16-.6-4.19-.8a55.62,55.62,0,0,1-13.21.5C77.85,58.79,79.23,58.9,80.87,58.84ZM22.35,53.5c1.09.41,3.32,1.06,4,1.65C24.91,55.13,24.07,54.48,22.35,53.5ZM56.94,12.2a16.73,16.73,0,0,1-3.68.64A21.68,21.68,0,0,1,56.94,12.2Zm256-4.63h-.13C310.18,7.18,311.1,7.33,312.9,7.57Zm5.41.65c.55,0,.52-.09.29-.17a14.79,14.79,0,0,1-3-.15A8,8,0,0,0,318.31,8.22ZM250.19,63.28l-1.06-.13C251.52,63,250.85,63.14,250.19,63.28Z"/><path class="cls-2" d="M46.92,15a.75.75,0,0,1-.54-.14C46,15.08,46,15.18,46.92,15Z"/><path class="cls-2" d="M118.56,58.59h.19a.41.41,0,0,0,.18-.09Z"/><path class="cls-2" d="M234,6.77a14.31,14.31,0,0,1-2.15-.35C231.77,6.53,232.27,6.66,234,6.77Z"/><path class="cls-2" d="M347.12,10l-3.49-.19a21.12,21.12,0,0,1,3.11.45C346.68,10.1,346,9.87,347.12,10Z"/><path class="cls-2" d="M376.93,15.93c.51,0,1.07.1,1.58.1l-.12-.24C376.23,15.58,374.71,15.6,376.93,15.93Z"/><path class="cls-2" d="M350.18,11.87c.24.43,2.42.5,4.86.66l-.43,0C355.38,12,352.77,11.93,350.18,11.87Z"/><path class="cls-2" d="M355.61,12.57c.75,0,1.51.12,2.24.21C358.16,12.58,357,12.64,355.61,12.57Z"/><path class="cls-2" d="M325.21,8.54c1.15.21.77-.45,1.41-.23C328,7.91,318.87,8.27,325.21,8.54Z"/><polygon class="cls-2" points="352.02 13.39 351.19 12.8 349.8 13.08 352.02 13.39"/><path class="cls-2" d="M332.86,11.24l3.88.49c-.06-.09.44-.09,1.05-.08A40.1,40.1,0,0,0,332.86,11.24Z"/><path class="cls-2" d="M337.79,11.65a28.58,28.58,0,0,0,3.14.21C340.25,11.8,338.8,11.68,337.79,11.65Z"/><polygon class="cls-2" points="346.7 13.03 345.56 12.82 342.82 12.53 346.7 13.03"/><path class="cls-2" d="M291.08,7.75l-4.25-.16c-.45.14.7.33,2.29.37C290.14,7.91,291.72,8,291.08,7.75Z"/><path class="cls-2" d="M303.81,10.09A7.09,7.09,0,0,1,302,9.56l-.18.61Z"/><path class="cls-2" d="M291.43,9.3c-.43.13-6.19,0-.81.39C291.06,9.56,295.32,9.73,291.43,9.3Z"/><polygon class="cls-2" points="227.48 4.77 228.56 4.81 228.45 3.79 227.48 4.77"/><path class="cls-2" d="M171,5.86c5,.27,1.2-.63,5.75-.3,1.18-.23-3.72-.27-2.5-.47C171.19,5.33,169.59,5.18,171,5.86Z"/><path class="cls-2" d="M174.23,5.09c.48,0,1-.08,1.55-.14C174.9,5,174.48,5.05,174.23,5.09Z"/><polygon class="cls-2" points="448.19 63.79 451.44 64 449.34 63.66 448.19 63.79"/><path class="cls-2" d="M454.42,63l.76.65,1.95-.59A14.08,14.08,0,0,1,454.42,63Z"/><path class="cls-2" d="M15.18,48.32l-.28,0a9.41,9.41,0,0,0,2.23,1.49C16.47,49.33,15.82,48.83,15.18,48.32Z"/><polygon class="cls-2" points="55.25 58.33 54.49 58.32 55.91 58.91 55.25 58.33"/><path class="cls-2" d="M92.16,57.58c-1.5,0-3.27.11-4.79.09C90.66,57.56,92.57,58.32,92.16,57.58Z"/></g></g></svg>