<svg width="284" height="297" xmlns="http://www.w3.org/2000/svg" xmlns:xlink="http://www.w3.org/1999/xlink" overflow="hidden"><defs><clipPath id="clip0"><rect x="972" y="250" width="284" height="297"/></clipPath><clipPath id="clip1"><rect x="973" y="250" width="282" height="296"/></clipPath><clipPath id="clip2"><rect x="973" y="250" width="282" height="296"/></clipPath><clipPath id="clip3"><rect x="973" y="250" width="326" height="296"/></clipPath></defs><g clip-path="url(#clip0)" transform="translate(-972 -250)"><g clip-path="url(#clip1)"><g clip-path="url(#clip2)"><g clip-path="url(#clip3)"><path d="M323.744 172.261C323.744 238.353 267.459 291.932 198.029 291.932 128.598 291.932 72.3139 238.353 72.3139 172.261 72.3139 106.168 128.598 52.5892 198.029 52.5892 267.459 52.5892 323.744 106.168 323.744 172.261Z" fill="#CBC5C5" transform="matrix(1 0 0 1.00298 973.73 250)"/><path d="M317.039 174.365C317.039 240.458 260.754 294.037 191.324 294.037 121.893 294.037 65.6087 240.458 65.6087 174.365 65.6087 108.273 121.893 54.694 191.324 54.694 260.754 54.694 317.039 108.273 317.039 174.365Z" stroke="#000000" stroke-width="2.10477" stroke-miterlimit="10" fill="#FFFFFF" transform="matrix(1 0 0 1.00298 973.73 250)"/><path d="M280.867 174.365C280.867 221.444 240.777 259.609 191.324 259.609 141.871 259.609 101.781 221.444 101.781 174.365 101.781 127.287 141.871 89.1221 191.324 89.1221 240.777 89.1221 280.867 127.287 280.867 174.365Z" stroke="#000000" stroke-width="2.10477" stroke-miterlimit="10" fill="#FFFFFF" transform="matrix(1 0 0 1.00298 973.73 250)"/><path d="M160.564 118.619C160.564 118.619 146.312 123.219 141.771 127.639 137.231 132.059 129.744 147.154 129.744 147.154" stroke="#000000" stroke-width="2.10477" stroke-miterlimit="10" fill="none" transform="matrix(1 0 0 1.00298 973.73 250)"/><path d="M22.9721 152.746C22.8877 152.888 22.7751 153.011 22.6413 153.107L22.2204 153.348C16.6577 155.968 11.2469 158.899 6.01363 162.128 5.64175 162.386 5.22302 162.57 4.78084 162.669 4.37636 162.707 3.97143 162.601 3.63825 162.368L2.67607 161.797C2.30799 161.591 2.01354 161.276 1.83416 160.895 1.64879 160.401 1.52753 159.886 1.47334 159.361 0.631432 151.062 0.33075 146.853 0 138.314-0.0142345 138.113-0.0142345 137.912 0 137.712-0.0411191 137.534-0.0411191 137.349 0 137.171 0.108199 136.944 0.303355 136.771 0.541227 136.69 0.776703 136.567 1.05746 136.567 1.29293 136.69L4.29975 138.704C4.60909 138.902 4.84227 139.199 4.96125 139.546 5.04646 139.942 5.09677 140.345 5.11159 140.749 5.32207 146.763 5.50247 149.77 5.98357 155.783 10.6441 153.077 12.9894 151.784 17.6801 149.409 17.9832 149.246 18.3069 149.125 18.6423 149.048 18.996 149.001 19.3538 149.098 19.6345 149.319L22.6413 151.333C22.8692 151.484 23.0222 151.724 23.0623 151.995 23.1237 152.248 23.0917 152.515 22.9721 152.746Z" transform="matrix(1 0 0 1.00298 973.73 250)"/><path d="M34.8791 132.841C34.7777 132.962 34.6554 133.064 34.5183 133.142 34.3802 133.236 34.2281 133.307 34.0672 133.352 28.3068 135.37 22.6562 137.688 17.1389 140.298 16.7365 140.504 16.2967 140.627 15.8459 140.659 15.4525 140.679 15.066 140.55 14.7635 140.298L13.8614 139.637C13.5049 139.415 13.2385 139.074 13.1097 138.674 12.9369 138.202 12.8454 137.704 12.8391 137.201 12.6286 128.932 12.6587 124.753 13.0195 116.364 13.0076 116.164 13.0076 115.963 13.0195 115.762 13.0378 115.58 13.0996 115.405 13.1999 115.251 13.3249 115.039 13.5313 114.887 13.7712 114.83 14.0447 114.799 14.3183 114.887 14.5229 115.071L17.2892 117.326C17.5741 117.555 17.775 117.872 17.8605 118.228 17.9078 118.628 17.9078 119.031 17.8605 119.431 17.6199 125.444 17.5598 128.451 17.5899 134.164 22.4609 131.939 24.8964 130.947 29.7976 129.113 30.1133 128.974 30.4476 128.883 30.7898 128.842 31.1455 128.831 31.4913 128.961 31.752 129.203L34.5183 131.488C34.7411 131.644 34.8923 131.882 34.9392 132.15 34.9783 132.381 34.9576 132.62 34.8791 132.841Z" transform="matrix(1 0 0 1.00298 973.73 250)"/><path d="M47.5678 119.731C47.4103 119.958 47.152 120.093 46.8763 120.092 46.575 120.113 46.2794 120.004 46.0644 119.792L27.8131 103.014C27.3975 102.529 27.3975 101.814 27.8131 101.33 30.2786 98.1425 31.5716 96.579 34.1574 93.512 35.6245 91.6324 37.5082 90.1194 39.6599 89.092 41.3666 88.2958 43.3117 88.1776 45.1023 88.7612 47.21 89.5535 49.0824 90.8675 50.5446 92.5799L60.1363 103.164C60.3447 103.383 60.4629 103.673 60.4671 103.976 60.4999 104.273 60.4009 104.57 60.1965 104.788 55.7341 109.549 51.5188 114.537 47.5678 119.731ZM46.4854 113.056C49.4922 109.478 50.8453 107.734 53.8822 104.337L46.7259 96.9398C45.5653 95.5569 43.8959 94.7006 42.0954 94.5644 40.2144 94.6967 38.4972 95.6826 37.4349 97.2405 36.0818 98.8341 35.4203 99.6459 34.0973 101.3Z" transform="matrix(1 0 0 1.00298 973.73 250)"/><path d="M58.1518 90.9261C57.9555 91.1288 57.6822 91.238 57.4001 91.2268 57.107 91.204 56.8355 91.063 56.6484 90.8359L47.4175 80.5526C47.2127 80.3211 47.1051 80.0195 47.1168 79.7107 47.1273 79.3947 47.2563 79.0943 47.4776 78.8688L50.304 76.0725C50.5085 75.8421 50.8086 75.7201 51.1159 75.7417 51.409 75.7646 51.6806 75.9056 51.8676 76.1326L60.888 86.6264C61.0883 86.8489 61.1956 87.1391 61.1887 87.4382 61.1977 87.7434 61.0778 88.0381 60.858 88.2501Z" transform="matrix(1 0 0 1.00298 973.73 250)"/><path d="M81.3945 94.9252C80.9435 95.3161 80.4925 95.256 80.0415 94.7147L78.8387 93.2113C78.4403 92.8854 78.3811 92.2982 78.707 91.8997 78.7464 91.8516 78.7906 91.8074 78.8387 91.7681L80.2219 90.5653C80.703 90.1444 81.154 90.2045 81.5749 90.7758L82.7777 92.2792C83.1761 92.6307 83.2143 93.2387 82.8628 93.6374 82.8363 93.6675 82.8077 93.696 82.7777 93.7225Z" transform="matrix(1 0 0 1.00298 973.73 250)"/><path d="M73.0356 92.0988C72.829 92.3021 72.5419 92.4016 72.2538 92.3694 71.9579 92.3324 71.6882 92.1815 71.5021 91.9485 70.8105 91.0765 70.4497 90.6555 69.7281 89.8136 69.5284 89.5791 69.4217 89.2796 69.4274 88.9717 69.4563 88.6629 69.5949 88.3749 69.8183 88.1599 73.7271 84.5517 75.8319 82.8077 79.8611 79.4401 80.8533 80.733 81.3344 81.3945 82.2966 82.7175 82.4908 82.9277 82.5696 83.22 82.5071 83.4993 82.4677 83.7621 82.3276 83.9996 82.1162 84.1608 78.4178 87.1977 76.5836 88.8214 73.0356 92.0988ZM79.8611 86.0852C79.6629 86.2791 79.3794 86.3585 79.1094 86.2956 78.8321 86.2094 78.5759 86.0659 78.3576 85.8747L68.7358 74.6893C67.9423 73.7801 67.0776 72.9355 66.15 72.1636 65.5327 71.5818 64.7392 71.2222 63.8949 71.1413 62.9709 71.162 62.0938 71.552 61.4593 72.2237L59.8657 73.667C59.5019 74.0988 58.8569 74.1538 58.4252 73.79 58.3807 73.7527 58.3395 73.7115 58.3022 73.667L56.5582 71.5622C56.3556 71.331 56.2575 71.0264 56.2876 70.7203 56.3044 70.4085 56.4452 70.1163 56.6785 69.9085L58.3924 68.375C59.5768 67.2511 60.9647 66.3632 62.4817 65.7591 63.6414 65.2786 64.9151 65.143 66.15 65.3682 67.4441 65.711 68.6459 66.3376 69.6679 67.2024 70.951 68.2701 72.129 69.4584 73.1859 70.7504L82.5973 82.1763C82.8092 82.3913 82.9187 82.6869 82.8979 82.9881 82.876 83.2969 82.7226 83.5814 82.477 83.7699Z" transform="matrix(1 0 0 1.00298 973.73 250)"/><path d="M70.2693 54.4835C69.9211 54.8398 69.3498 54.8461 68.9938 54.498 68.9265 54.4321 68.8699 54.3563 68.826 54.273L67.7135 52.7396C67.3497 52.3523 67.3686 51.7434 67.7562 51.3796 67.8158 51.3234 67.8822 51.2752 67.9541 51.2362L69.6078 49.9733C69.956 49.617 70.5273 49.6107 70.8833 49.9589 70.9507 50.0247 71.0072 50.1005 71.0511 50.1838L72.1335 51.7173C72.4974 52.1045 72.4784 52.7134 72.0908 53.0772 72.0313 53.1335 71.9649 53.1816 71.893 53.2207Z" transform="matrix(1 0 0 1.00298 973.73 250)"/><path d="M87.9795 79.4702C87.7729 79.6485 87.4927 79.7158 87.2278 79.6506 86.9307 79.5977 86.6691 79.4236 86.5061 79.1695L71.8329 58.7833C71.6434 58.5349 71.567 58.2186 71.6224 57.9113 71.6681 57.5793 71.8689 57.2892 72.1636 57.1295L75.1704 54.7842C75.3992 54.5797 75.7141 54.501 76.0123 54.5737 76.3094 54.6266 76.571 54.8007 76.734 55.0548L90.9863 75.7417C91.1694 75.9823 91.2554 76.2826 91.2268 76.5836 91.1962 76.8663 91.056 77.1255 90.8359 77.3053 89.6933 78.1772 89.122 78.5982 87.9795 79.4702Z" transform="matrix(1 0 0 1.00298 973.73 250)"/><path d="M97.06 58.4525C96.5188 58.8133 96.0678 58.6931 95.6769 58.0917 95.286 57.4903 95.0756 57.1596 94.6847 56.4981 94.3503 56.1066 94.3966 55.5182 94.7881 55.1838 94.8482 55.1327 94.9144 55.0894 94.9853 55.0548L96.5188 54.1227C96.8854 53.8103 97.4356 53.8545 97.748 54.221 97.8145 54.2989 97.8665 54.3876 97.902 54.4835L98.8641 56.1072C99.1979 56.477 99.1684 57.0474 98.7986 57.3812 98.7369 57.4368 98.6681 57.4837 98.5935 57.5204Z" transform="matrix(1 0 0 1.00298 973.73 250)"/><path d="M97.2705 72.6748C97.0131 72.7944 96.7161 72.7944 96.4587 72.6748 96.1703 72.6008 95.9223 72.4177 95.7671 72.1636L94.1434 69.6679C93.9735 69.422 93.8987 69.1228 93.933 68.826 93.9742 68.5398 94.1251 68.2812 94.3539 68.1044 96.4286 66.6611 97.3607 65.9696 99.6158 64.5864 101.166 63.7117 102.262 62.2098 102.623 60.4671 102.824 58.6356 102.422 56.7885 101.48 55.2052L100.819 54.1227 99.9767 52.7997C99.0794 51.2064 97.6386 49.9895 95.9175 49.3719 94.086 48.9441 92.1592 49.3758 90.6856 50.5446 88.4305 52.0179 87.318 52.7696 85.123 54.3031 84.8521 54.4074 84.552 54.4074 84.2811 54.3031 83.984 54.2502 83.7224 54.0761 83.5594 53.822L81.9358 51.3264C81.7569 51.0735 81.6916 50.7575 81.7554 50.4544 81.8071 50.1489 81.9809 49.8777 82.2364 49.7027 84.5517 48.1091 85.7243 47.3273 88.0697 45.7938 90.0481 44.3851 92.3586 43.5147 94.7749 43.2681 96.7458 43.1623 98.6949 43.7236 100.307 44.8617 102.104 46.1718 103.609 47.8406 104.727 49.7628 105.028 50.274 105.329 50.7551 105.539 51.146 105.75 51.5368 106.02 52.048 106.291 52.5892 107.328 54.5331 107.991 56.6547 108.245 58.8434 108.442 60.7639 108.065 62.6993 107.163 64.406 106.05 66.3391 104.481 67.9703 102.593 69.1568 100.428 70.5099 99.3753 71.2315 97.2705 72.6748Z" transform="matrix(1 0 0 1.00298 973.73 250)"/><path d="M130.105 62.4215C129.564 62.6921 129.113 62.4215 128.812 61.8803L127.94 60.1363C127.639 59.495 127.76 59.044 128.301 58.7833L129.955 58.0015C130.526 57.7309 130.947 58.0015 131.248 58.5427L132.089 60.2867C132.39 60.928 132.27 61.3791 131.729 61.6397ZM132.3 67.1122C131.759 67.3728 131.338 67.1924 131.037 66.5709 130.676 65.9094 130.526 65.5486 130.195 64.8871 129.864 64.2256 129.985 63.8047 130.526 63.534L132.15 62.7523C132.691 62.5117 133.142 62.7523 133.443 63.3236L134.254 65.0074C134.555 65.6289 134.435 66.0799 133.894 66.3605Z" transform="matrix(1 0 0 1.00298 973.73 250)"/><path d="M110.561 35.3301 111.974 34.6085C112.407 34.3195 112.94 34.2218 113.447 34.3378 113.799 34.468 114.067 34.7585 114.169 35.1196 114.439 36.2622 114.74 37.3447 115.041 38.3068 115.323 39.3316 115.675 40.3361 116.093 41.3137 116.484 42.2758 116.965 43.2982 117.536 44.3205 119.942 48.8908 121.145 51.176 123.55 55.7464 123.638 56.0203 123.638 56.3144 123.55 56.5883 123.519 56.7925 123.424 56.9816 123.279 57.1295 120.603 58.4525 119.28 59.1441 116.664 60.5874 116.404 60.6926 116.113 60.6926 115.853 60.5874 115.575 60.4752 115.342 60.2744 115.191 60.0161 114.71 59.084 114.439 58.6329 113.958 57.7309 113.84 57.4525 113.84 57.1373 113.958 56.8589 114.027 56.5757 114.213 56.3351 114.47 56.1974L117.476 54.6038 113.267 46.6357C112.726 45.6134 112.214 44.6212 111.763 43.6289 111.312 42.6367 110.952 41.7045 110.591 40.6221 110.222 39.496 109.911 38.3519 109.659 37.1943 109.569 36.8086 109.569 36.4074 109.659 36.0217 109.881 35.7041 110.196 35.4627 110.561 35.3301ZM107.554 40.2011C107.283 40.3055 106.983 40.3055 106.712 40.2011 106.418 40.12 106.17 39.9251 106.02 39.6599 105.479 38.6677 105.209 38.1866 104.697 37.1943 104.594 36.9129 104.594 36.6038 104.697 36.3223 104.779 36.0202 104.987 35.7679 105.269 35.6308 109.328 33.4358 111.282 32.3534 115.582 30.3388 117.682 29.2412 120.008 28.6443 122.377 28.5948 124.344 28.598 126.251 29.2656 127.79 30.4891 129.454 32.0289 130.723 33.9473 131.488 36.0818L137.502 49.4321C137.621 49.7105 137.621 50.0256 137.502 50.304 137.418 50.5744 137.221 50.7942 136.961 50.9054 135.728 51.4166 135.096 51.6872 133.954 52.2585 133.683 52.3628 133.383 52.3628 133.112 52.2585 132.841 52.1144 132.628 51.8805 132.51 51.597 130.105 46.3952 128.902 43.7793 126.497 38.5775 125.834 36.866 124.559 35.4621 122.919 34.6385 121.133 34.0152 119.163 34.2134 117.536 35.1798 113.327 37.044 111.252 38.0663 107.434 40.2011Z" transform="matrix(1 0 0 1.00298 973.73 250)"/><path d="M148.116 33.7365C147.67 33.959 147.128 33.778 146.906 33.3321 146.866 33.2509 146.838 33.1643 146.823 33.075 146.552 32.3534 146.402 32.0226 146.131 31.331 145.861 30.6395 146.131 30.2185 146.703 30.008L148.447 29.4067C148.935 29.1967 149.501 29.4222 149.711 29.9103 149.737 29.9708 149.756 30.0337 149.77 30.0982L150.401 31.8422C150.642 32.5037 150.401 32.9547 149.83 33.1652Z" transform="matrix(1 0 0 1.00298 973.73 250)"/><path d="M151.213 52.7696C150.642 52.9801 150.221 52.7696 149.95 52.1081 149.679 51.4466 149.619 51.2662 149.409 50.725 149.198 50.1838 149.409 49.6125 149.89 49.402 153.227 48.1993 154.911 47.628 158.279 46.5756 158.88 46.3651 159.301 46.5756 159.542 47.2672L160.023 48.6804C160.263 49.3419 160.023 49.7628 159.512 49.9432 156.174 51.1159 154.49 51.5669 151.213 52.7696Z" transform="matrix(1 0 0 1.00298 973.73 250)"/><path d="M143.094 48.2594C142.847 48.3782 142.56 48.3782 142.313 48.2594 142.028 48.1247 141.834 47.8511 141.801 47.5378 139.817 38.6677 138.795 34.1875 137.201 25.2573 137.105 24.9643 137.105 24.6482 137.201 24.3552 137.332 24.0929 137.576 23.9047 137.863 23.8441L140.869 22.8518C141.169 22.7329 141.502 22.7329 141.801 22.8518 142.072 23.0024 142.261 23.2678 142.313 23.5734 143.966 32.3834 144.868 36.7433 146.733 45.4931 146.882 45.7752 146.882 46.1131 146.733 46.3952 146.623 46.6694 146.406 46.8865 146.131 46.9965ZM146.642 23.393C141.922 24.9866 139.576 25.8286 134.946 27.6627 134.665 27.7689 134.355 27.7689 134.074 27.6627 133.794 27.5509 133.568 27.3355 133.443 27.0614L132.3 24.2349C132.181 23.9564 132.181 23.6415 132.3 23.363 132.41 23.0889 132.627 22.8716 132.901 22.7616 137.923 20.8072 140.478 19.7548 145.62 18.2213 147.428 17.601 149.367 17.4662 151.243 17.8304 153.084 18.2108 154.77 19.1321 156.084 20.4764 157.611 22.1306 158.733 24.1173 159.361 26.2796L163.872 40.0809C163.961 40.3545 163.961 40.6492 163.872 40.9228 163.754 41.1895 163.522 41.3885 163.24 41.464 158.82 42.7269 156.655 43.3884 152.325 44.8617 152.071 44.9955 151.768 44.9955 151.514 44.8617 151.249 44.7183 151.045 44.4832 150.942 44.2002L149.95 41.5843C149.846 41.3134 149.846 41.0133 149.95 40.7424 150.064 40.4666 150.296 40.2571 150.581 40.1711 153.257 39.239 154.611 38.818 157.347 37.9761L153.979 28.2039C153.582 27.0076 152.947 25.9032 152.115 24.9566 151.414 24.1787 150.507 23.6157 149.499 23.3329 148.564 23.0513 147.564 23.0724 146.642 23.393Z" transform="matrix(1 0 0 1.00298 973.73 250)"/><path d="M177.402 45.1023C176.801 45.2526 176.41 45.1023 176.199 44.3205L175.809 42.8772C175.598 42.2157 175.809 41.7948 176.44 41.6745 179.928 40.8626 181.672 40.5018 185.22 39.8704 185.821 39.8704 186.212 40.0207 186.393 40.7123 186.573 41.4039 186.603 41.5542 186.753 42.1556 186.904 42.7569 186.753 43.208 186.062 43.3282 182.424 44.0198 180.71 44.3505 177.402 45.1023Z" transform="matrix(1 0 0 1.00298 973.73 250)"/><path d="M186.753 36.0818C186.473 36.141 186.182 36.0869 185.942 35.9315 185.691 35.7384 185.52 35.4603 185.46 35.1497L182.093 21.3183C181.755 19.5016 180.773 17.8679 179.327 16.7179 177.682 15.6987 175.682 15.4255 173.824 15.9662 170.005 16.748 168.141 17.1689 164.383 18.101 164.104 18.2197 163.789 18.2197 163.511 18.101 163.245 17.9518 163.051 17.7029 162.969 17.4095L162.158 14.7334C162.024 14.4687 162.024 14.1562 162.158 13.8915 162.299 13.6249 162.553 13.4368 162.849 13.3803 166.758 12.3881 168.863 11.9671 172.681 11.1252 176.039 10.1077 179.66 10.431 182.784 12.0273 185.532 13.9328 187.362 16.896 187.836 20.2058L190.843 34.1274C190.95 34.3977 190.95 34.699 190.843 34.9693 190.705 35.2146 190.46 35.3815 190.181 35.4203ZM170.817 39.4494C170.56 39.5691 170.263 39.5691 170.005 39.4494 169.74 39.3003 169.545 39.0513 169.464 38.7579L165.044 24.0545C164.922 23.7767 164.922 23.4604 165.044 23.1826 165.175 22.9203 165.419 22.7321 165.706 22.6714L169.254 21.8295C169.52 21.7002 169.83 21.7002 170.096 21.8295 170.361 21.9787 170.556 22.2277 170.637 22.5211L174.756 37.044C174.861 37.3149 174.861 37.615 174.756 37.8859 174.628 38.1325 174.396 38.3087 174.125 38.367Z" transform="matrix(1 0 0 1.00298 973.73 250)"/><path d="M209.365 11.456C206.598 11.456 205.215 11.6965 202.479 11.907 202.182 11.9441 201.882 11.869 201.637 11.6965 201.382 11.5215 201.208 11.2502 201.156 10.9448L199.562 1.53348C199.49 1.2353 199.568 0.920438 199.773 0.691568 199.964 0.454102 200.25 0.311482 200.555 0.300682L204.103 0C204.437-0.0410476 204.774 0.0567468 205.035 0.270614 205.274 0.468567 205.434 0.746078 205.486 1.05239 205.787 3.21729 205.967 4.29975 206.298 6.43459L208.733 6.28425C208.974 8.35895 209.124 9.38127 209.365 11.456ZM211.71 33.6763C211.426 33.7632 211.118 33.695 210.898 33.4959 210.624 33.32 210.438 33.0356 210.387 32.7142 210.207 31.3912 210.086 30.7297 209.906 29.3766 209.802 29.1056 209.802 28.8057 209.906 28.5347 210.071 28.2511 210.324 28.0293 210.628 27.9033L212.251 27.0614C213.204 26.5868 214.085 25.9794 214.867 25.2573 215.644 24.5075 216.205 23.5623 216.491 22.5211 216.894 21.0626 216.976 19.5341 216.731 18.0409 216.598 16.6372 216.232 15.2654 215.649 13.9817 215.171 13.1025 214.407 12.413 213.484 12.0273 212.176 11.6013 210.794 11.4478 209.425 11.5762L208.132 11.5762C207.816 11.6075 207.502 11.5099 207.26 11.3056 207.021 11.1077 206.86 10.8302 206.809 10.5239L206.358 7.51704C206.313 7.22409 206.401 6.92629 206.598 6.7052 206.802 6.4876 207.082 6.35812 207.38 6.34438L209.846 6.19404C212.288 5.96522 214.75 6.31549 217.032 7.21636 218.818 7.99272 220.291 9.34864 221.212 11.0651 222.235 13.2555 222.817 15.6257 222.925 18.0409 223.116 19.9054 222.973 21.7889 222.504 23.6035 222.071 25.1292 221.369 26.565 220.43 27.8431 219.531 29.0162 218.443 30.0322 217.212 30.8499 216.06 31.733 214.809 32.4799 213.484 33.075Z" transform="matrix(1 0 0 1.00298 973.73 250)"/><path d="M244.364 39.4494C244.364 40.141 244.093 40.4417 243.432 40.4116L240.245 40.2011 240.245 43.8695C240.245 44.5709 239.944 44.9017 239.343 44.8617L238.35 44.8617C237.803 44.8806 237.343 44.4519 237.324 43.9043 237.323 43.8625 237.324 43.8207 237.328 43.7793 237.328 42.3059 237.328 41.5843 237.118 40.1109L234.111 40.1109C233.563 40.1299 233.104 39.7011 233.085 39.1536 233.083 39.1118 233.085 39.07 233.088 39.0285L233.088 37.5852C233.088 36.8936 233.359 36.5629 233.99 36.5629 237.719 36.5629 239.583 36.7734 243.312 37.044 243.859 37.025 244.319 37.4538 244.338 38.0014 244.339 38.0431 244.338 38.0849 244.334 38.1264Z" transform="matrix(1 0 0 1.00298 973.73 250)"/><path d="M230.563 32.7142C230.26 32.71 229.97 32.5918 229.751 32.3834 229.536 32.1654 229.408 31.8771 229.39 31.5716 229.39 30.429 229.24 29.8276 229.15 28.5648 229.083 28.0208 229.47 27.526 230.014 27.4595 230.056 27.4544 230.099 27.4519 230.142 27.4522 232.818 27.4522 234.141 27.4522 236.787 27.6627 238.585 27.92 240.407 27.3823 241.778 26.1894 242.935 24.8783 243.566 23.1866 243.552 21.4386 243.583 20.9379 243.583 20.4359 243.552 19.9352 243.552 19.5543 243.552 19.0432 243.552 18.4017 243.509 16.5271 242.806 14.7278 241.568 13.3202 240.084 11.9407 238.12 11.1961 236.095 11.2455 233.299 11.2455 231.886 11.0952 229.089 11.035 228.769 11.029 228.461 10.9121 228.217 10.7043 227.984 10.4965 227.844 10.2043 227.827 9.89243 227.827 8.71977 227.827 8.14847 227.586 6.88561 227.549 6.59708 227.649 6.30794 227.857 6.10384 228.063 6.00675 228.293 5.97527 228.518 6.01363 231.525 6.01363 232.968 6.01363 235.915 6.25418 238.521 6.2899 241.083 6.92795 243.402 8.11841 245.254 9.12608 246.762 10.6656 247.732 12.5384 248.683 14.5539 249.205 16.7451 249.265 18.973 249.265 19.5744 249.265 20.1156 249.265 20.5666 249.265 21.0176 249.265 21.5288 249.265 22.1302 249.258 24.2061 248.807 26.2566 247.942 28.1438 247.136 29.8243 245.762 31.166 244.063 31.9324 241.94 32.8356 239.623 33.1874 237.328 32.9547 234.532 32.8044 233.239 32.7743 230.563 32.7142Z" transform="matrix(1 0 0 1.00298 973.73 250)"/><path d="M261.383 42.7569C260.819 42.7299 260.383 42.2509 260.41 41.6868 260.412 41.6525 260.415 41.6183 260.42 41.5843 260.42 40.8326 260.42 40.4718 260.42 39.7201 260.42 38.9683 260.781 38.7579 261.443 38.8481L263.397 39.1488C263.961 39.1758 264.396 39.6548 264.37 40.2189 264.368 40.2532 264.364 40.2874 264.359 40.3214L264.359 42.1856C264.409 42.6312 264.087 43.0327 263.642 43.0817 263.539 43.0931 263.436 43.085 263.337 43.0576ZM261.202 47.8385C260.655 47.8144 260.23 47.3514 260.254 46.8038 260.256 46.7575 260.262 46.7115 260.27 46.6658L260.27 44.8617C260.27 44.1701 260.631 43.8695 261.262 43.9597L263.187 44.2603C263.734 44.2844 264.158 44.7474 264.134 45.295 264.133 45.3413 264.127 45.3873 264.119 45.433L264.119 47.2371C264.119 47.9287 263.758 48.2293 263.127 48.1091Z" transform="matrix(1 0 0 1.00298 973.73 250)"/><path d="M261.593 13.6509C258.586 13.23 257.323 13.0195 254.467 12.6888 254.148 12.6422 253.853 12.4946 253.625 12.2678 253.408 12.0539 253.289 11.7604 253.294 11.456 253.294 7.69745 253.294 5.83322 253.294 2.0747 253.279 1.77914 253.415 1.4961 253.655 1.323 253.899 1.12294 254.216 1.03552 254.527 1.08245L258.225 1.53348C258.578 1.5444 258.907 1.70927 259.127 1.9845 259.339 2.19945 259.449 2.49512 259.428 2.79634L259.428 8.17854 261.954 8.53936C261.593 10.584 261.593 11.6063 261.593 13.6509ZM260.03 35.5105C259.724 35.5234 259.427 35.4029 259.218 35.1798 258.988 34.9597 258.858 34.6557 258.857 34.3378 258.857 33.0148 258.857 32.3534 258.857 31.0303 258.856 30.7324 258.962 30.444 259.158 30.2185 259.395 29.9987 259.685 29.8434 259.999 29.7675L261.593 29.3465C262.643 29.077 263.654 28.6727 264.6 28.1438 265.546 27.5716 266.316 26.7497 266.825 25.7684 267.466 24.4356 267.805 22.9777 267.817 21.4987 267.941 20.1133 267.808 18.7169 267.426 17.3794 267.049 16.3958 266.349 15.5691 265.442 15.0341 264.171 14.3573 262.783 13.9287 261.353 13.7712L259.999 13.5908C259.68 13.5521 259.389 13.3902 259.188 13.1398 258.857 12.8735 258.725 12.4308 258.857 12.0273 258.857 10.8546 258.857 10.2833 258.857 9.02045 258.834 8.73162 258.973 8.45391 259.218 8.29881 259.471 8.12165 259.783 8.04651 260.09 8.08834L262.645 8.44915C265.187 8.74238 267.636 9.57256 269.832 10.8847 271.617 11.9975 272.957 13.6992 273.62 15.6956 274.323 17.9289 274.559 20.283 274.312 22.6113 274.209 24.492 273.729 26.3328 272.899 28.0235 272.146 29.4311 271.124 30.6773 269.892 31.6918 268.752 32.6564 267.462 33.4283 266.073 33.977 264.685 34.524 263.244 34.9272 261.773 35.1798Z" transform="matrix(1 0 0 1.00298 973.73 250)"/></g></g></g></g></svg>