<svg viewBox="0 0 95.87 108.14" xmlns="http://www.w3.org/2000/svg" xmlns:xlink="http://www.w3.org/1999/xlink" overflow="hidden"><defs></defs><g id="Layer_2"><g id="Layer_1-2"><ellipse cx="34.69" cy="12.21" rx="12.45" ry="11.86" stroke="#000000" stroke-width="0.7" stroke-miterlimit="10" fill="#FFFFFF"/><ellipse cx="45.83" cy="49.86" rx="37.16" ry="35.37" stroke="#000000" stroke-width="0.7" stroke-miterlimit="10" fill="#FFFFFF"/><ellipse cx="45.83" cy="49.86" rx="31.88" ry="30.35" stroke="#000000" stroke-width="0.7" stroke-miterlimit="10" fill="#FFFFFF"/><line x1="37.18" y1="20.64" x2="41.41" y2="34.92" stroke="#000000" stroke-width="0.7" stroke-miterlimit="10" fill="none"/><path d="M24.24 12.5C24.41 18 26 20.43 30.87 17.5 34.28 15.42 37.56 15.86 44.73 14.5 46.73 14.13 45.58 12.94 45.15 11.91 43 6.81 40.15 2.09 34.38 2.25 28.7523 2.27752 24.2124 6.86199 24.2399 12.4897 24.24 12.4931 24.24 12.4966 24.24 12.5Z" stroke="#000000" stroke-width="0.7" stroke-miterlimit="10" fill="#FFFFFF"/><line x1="50.07" y1="64.2" x2="54.29" y2="78.48" stroke="#000000" stroke-width="0.7" stroke-miterlimit="10" fill="none"/><line x1="30.69" y1="55.94" x2="15.69" y2="59.96" stroke="#000000" stroke-width="0.7" stroke-miterlimit="10" fill="none"/><line x1="77.08" y1="43.51" x2="62.07" y2="47.53" stroke="#000000" stroke-width="0.7" stroke-miterlimit="10" fill="none"/><path d="M52.78 35.54 42.87 48.8 49.24 51.46 52.78 35.54Z" stroke="#000000" stroke-width="0.7" stroke-miterlimit="10" fill="none"/><path d="M39.4 64.57 42.94 48.65 49.31 51.31 39.4 64.57Z" stroke="#000000" stroke-width="0.7" stroke-miterlimit="10" fill="none"/><path d="M3 93.71C2.9505 93.6808 2.90921 93.6395 2.88 93.59 2.88 93.53 2.8 93.48 2.78 93.44 1.77277 91.5755 0.87134 89.6558 0.08 87.69 0.0267702 87.5529-0.000362419 87.4071-3.15905e-08 87.26-0.00163836 87.1438 0.037257 87.0306 0.11 86.94L0.31 86.7C0.37741 86.6005 0.481837 86.5321 0.6 86.51 0.745967 86.4897 0.894033 86.4897 1.04 86.51 3.02511 86.8315 5.02967 87.0186 7.04 87.07L7.2 87.07 7.35 87.07C7.41226 87.1138 7.45803 87.1771 7.48 87.25 7.51255 87.3197 7.51255 87.4003 7.48 87.47L6.93 88.32C6.87693 88.4074 6.79005 88.4689 6.69 88.49 6.58055 88.5056 6.46945 88.5056 6.36 88.49 4.65 88.4 3.78 88.33 2.02 88.1 2.74 89.72 3.13 90.52 4.02 92.1 4.07854 92.1998 4.12232 92.3076 4.15 92.42 4.17866 92.5239 4.1564 92.6352 4.09 92.72L3.54 93.57C3.5024 93.6395 3.42898 93.682 3.35 93.68 3.2447 93.7449 3.11482 93.7561 3 93.71Z"/><path d="M10.24 97.84C10.1899 97.8165 10.1455 97.7824 10.11 97.74 10.0679 97.6979 10.031 97.6509 10 97.6 8.81505 95.8923 7.72668 94.1195 6.74 92.29 6.66476 92.1629 6.61072 92.0244 6.58 91.88 6.56749 91.7653 6.59202 91.6497 6.65 91.55L6.82 91.28C6.87591 91.1727 6.97357 91.0931 7.09 91.06 7.22528 91.015 7.36754 90.9947 7.51 91 9.4796 91.0555 11.4507 90.9787 13.41 90.77L13.58 90.77C13.6258 90.7572 13.6742 90.7572 13.72 90.77 13.7877 90.7984 13.8416 90.8523 13.87 90.92 13.904 90.9894 13.904 91.0706 13.87 91.14L13.43 92.05C13.3863 92.1456 13.3075 92.2208 13.21 92.26 13.1028 92.2933 12.992 92.3134 12.88 92.32 11.2 92.45 10.34 92.49 8.6 92.49 9.48 93.99 9.95 94.74 10.95 96.2 11.0202 96.2935 11.0805 96.394 11.13 96.5 11.1741 96.5986 11.1741 96.7114 11.13 96.81 10.95 97.17 10.87 97.35 10.69 97.72 10.6579 97.7927 10.5891 97.8423 10.51 97.85 10.4229 97.8867 10.3241 97.883 10.24 97.84Z"/><path d="M16 101.18C15.9031 101.146 15.8215 101.079 15.77 100.99 15.7307 100.911 15.7307 100.819 15.77 100.74 16.77 98.14 17.28 96.85 18.28 94.25 18.3103 94.1684 18.3768 94.1056 18.46 94.08 18.5422 94.0405 18.6378 94.0405 18.72 94.08 19.85 94.51 20.41 94.71 21.55 95.08 22.243 95.2923 22.8907 95.6314 23.46 96.08 23.9098 96.422 24.2391 96.8983 24.4 97.44 24.5483 98.0641 24.5276 98.7165 24.34 99.33 23.94 100.89 23.73 101.67 23.34 103.23 23.3134 103.312 23.256 103.38 23.18 103.42 23.0832 103.456 22.9768 103.456 22.88 103.42 20.5428 102.815 18.2451 102.067 16 101.18ZM17.88 100.37C19.4 100.91 20.17 101.16 21.72 101.61L22.52 98.85C22.6988 98.3615 22.6624 97.8202 22.42 97.36 22.101 96.8574 21.5989 96.4987 21.02 96.36L19.48 95.83Z"/><path d="M26.27 101C26.1754 100.979 26.0908 100.926 26.03 100.85 25.9794 100.777 25.9613 100.687 25.98 100.6 26.32 99.11 26.5 98.36 26.84 96.86 26.8558 96.7735 26.9114 96.6994 26.99 96.66 27.073 96.6244 27.167 96.6244 27.25 96.66 27.71 96.77 27.95 96.82 28.41 96.91 28.5019 96.9252 28.5843 96.9753 28.64 97.05 28.6869 97.1206 28.7048 97.2066 28.69 97.29L27.94 101C27.9238 101.083 27.8729 101.156 27.8 101.2 27.7113 101.242 27.6087 101.242 27.52 101.2Z"/><path d="M32.62 107.41C32.38 107.41 32.27 107.27 32.29 107.07 32.31 106.87 32.29 106.76 32.36 106.54 32.43 106.32 32.51 106.27 32.75 106.3L33.44 106.37C33.68 106.37 33.79 106.5 33.77 106.7L33.72 107.23C33.72 107.42 33.57 107.51 33.33 107.48Z"/><path d="M29.37 104.79C29.2811 104.773 29.2002 104.728 29.14 104.66 29.085 104.586 29.085 104.484 29.14 104.41 30.14 102.06 30.64 100.88 31.55 98.5 31.577 98.416 31.634 98.3448 31.71 98.3 31.793 98.2644 31.887 98.2644 31.97 98.3L32.97 98.46C33.0671 98.4751 33.1538 98.5293 33.21 98.61 33.2493 98.6887 33.2493 98.7813 33.21 98.86 32.42 101.23 32 102.4 31.11 104.75 31.1023 104.848 31.0405 104.933 30.95 104.97 30.8531 105.005 30.7469 105.005 30.65 104.97ZM34.37 99.26C32.82 99.11 32.04 99.01 30.49 98.76 30.3989 98.7494 30.316 98.7026 30.26 98.63 30.2008 98.5653 30.1782 98.475 30.2 98.39 30.25 98.06 30.28 97.9 30.34 97.58 30.3512 97.4946 30.3985 97.4181 30.47 97.37 30.5464 97.3189 30.6401 97.3009 30.73 97.32 32.34 97.58 33.14 97.69 34.73 97.84 35.2961 97.8904 35.8449 98.0608 36.34 98.34 36.806 98.6123 37.1816 99.0157 37.42 99.5 37.6849 100.065 37.7986 100.688 37.75 101.31L37.56 105.31C37.5578 105.396 37.5175 105.477 37.45 105.53 37.3654 105.589 37.263 105.617 37.16 105.61 35.48 105.52 34.64 105.45 32.96 105.26 32.8575 105.258 32.7601 105.215 32.69 105.14 32.6304 105.075 32.6013 104.988 32.61 104.9 32.61 104.6 32.67 104.44 32.7 104.14 32.7166 104.054 32.7626 103.976 32.83 103.92 32.9171 103.868 33.0193 103.847 33.12 103.86 34.12 103.98 34.63 104.02 35.64 104.1 35.73 102.96 35.77 102.39 35.86 101.26 35.8906 100.919 35.8392 100.577 35.71 100.26 35.4783 99.6951 34.9486 99.3085 34.34 99.26Z"/><path d="M38.84 102.39C38.62 102.39 38.51 102.28 38.52 102.08L38.52 101.57C38.52 101.37 38.64 101.28 38.86 101.28L39.45 101.28C39.67 101.28 39.78 101.38 39.78 101.58 39.78 101.78 39.78 101.89 39.78 102.09 39.78 102.29 39.66 102.39 39.44 102.38ZM40.66 105.73C40.56 105.736 40.4622 105.699 40.39 105.63 40.3188 105.58 40.2775 105.497 40.28 105.41L40.28 98.41C40.2828 98.3234 40.3186 98.2411 40.38 98.18 40.4493 98.1201 40.5384 98.088 40.63 98.09L41.81 98.09C41.8983 98.0895 41.9838 98.1216 42.05 98.18 42.1165 98.2375 42.1533 98.3221 42.15 98.41 42.22 101.19 42.25 102.58 42.31 105.41 42.3094 105.499 42.269 105.584 42.2 105.64 42.125 105.705 42.0291 105.74 41.93 105.74Z"/><path d="M47.55 102.08C47.33 102.08 47.21 102.02 47.19 101.83L47.19 101.31C47.19 101.12 47.27 101.01 47.49 100.99L48.08 100.92C48.3 100.92 48.42 100.98 48.44 101.18L48.5 101.69C48.5 101.89 48.4 102 48.2 102.02Z"/><path d="M48.37 105.46C48.2774 105.499 48.1726 105.499 48.08 105.46 47.9984 105.414 47.9429 105.333 47.93 105.24L47.83 104.31C47.821 104.219 47.8499 104.129 47.91 104.06 47.9757 103.976 48.0617 103.911 48.16 103.87L48.68 103.62C49.0041 103.467 49.3067 103.272 49.58 103.04 49.8419 102.808 50.0385 102.512 50.15 102.18 50.2645 101.763 50.285 101.326 50.21 100.9 50.1647 100.511 50.0459 100.134 49.86 99.79 49.7028 99.5264 49.4475 99.3358 49.15 99.26 48.7496 99.1912 48.3404 99.1912 47.94 99.26 46.6 99.41 45.94 99.47 44.58 99.55 44.4891 99.5603 44.3981 99.5312 44.33 99.47 44.2601 99.4186 44.2192 99.3367 44.22 99.25L44.22 98.42C44.218 98.3344 44.2504 98.2515 44.31 98.19 44.3727 98.1309 44.454 98.0955 44.54 98.09 45.99 98.01 46.71 97.94 48.15 97.77 48.8458 97.6616 49.5561 97.6922 50.24 97.86 50.7595 98.011 51.2092 98.3403 51.51 98.79 51.8569 99.3474 52.085 99.9704 52.18 100.62 52.2962 101.16 52.2962 101.72 52.18 102.26 52.0636 102.738 51.8453 103.185 51.54 103.57 51.2252 103.956 50.8545 104.293 50.44 104.57 50.0116 104.852 49.556 105.09 49.08 105.28ZM45.09 108.14C44.9898 108.15 44.8895 108.122 44.81 108.06 44.736 108.01 44.6884 107.929 44.68 107.84 44.54 105.15 44.46 103.84 44.32 101.12 44.3191 101.035 44.3514 100.952 44.41 100.89 44.4796 100.828 44.5671 100.789 44.66 100.78L45.78 100.71C45.8758 100.695 45.9736 100.72 46.05 100.78 46.1186 100.832 46.1592 100.914 46.16 101L46.71 107.7C46.7187 107.788 46.6896 107.875 46.63 107.94 46.5504 108.011 46.447 108.051 46.34 108.05Z"/><path d="M57.46 100.31C57.25 100.37 57.11 100.31 57.07 100.11L56.94 99.61C56.94 99.42 56.94 99.3 57.19 99.24L57.76 99.09C57.98 99.09 58.11 99.09 58.16 99.29L58.3 99.79C58.35 99.98 58.3 100.1 58.05 100.16Z"/><path d="M58.7 105.61C58.46 105.67 58.32 105.61 58.27 105.42 58.22 105.23 58.2 105.11 58.14 104.9 58.08 104.69 58.14 104.59 58.42 104.53L59.09 104.36C59.32 104.29 59.46 104.36 59.51 104.54L59.65 105.06C59.7 105.25 59.65 105.37 59.38 105.43Z"/><path d="M54.74 104.32C54.6568 104.354 54.5632 104.354 54.48 104.32 54.3942 104.282 54.3419 104.194 54.35 104.1 54.46 101.55 54.49 100.27 54.48 97.73 54.4785 97.6402 54.5067 97.5523 54.56 97.48 54.6171 97.4103 54.7002 97.3669 54.79 97.36L55.73 97.17C55.823 97.148 55.921 97.1661 56 97.22 56.074 97.2703 56.1216 97.351 56.13 97.44 56.23 99.93 56.26 101.19 56.28 103.69 56.2991 103.783 56.2731 103.879 56.21 103.95 56.1431 104.03 56.0518 104.086 55.95 104.11 55.47 104.17 55.23 104.23 54.74 104.32ZM57.44 97.38C55.93 97.79 55.17 97.97 53.65 98.29 53.566 98.3206 53.474 98.3206 53.39 98.29 53.3127 98.2442 53.2583 98.168 53.24 98.08 53.18 97.76 53.15 97.6 53.08 97.28 53.0654 97.192 53.087 97.1018 53.14 97.03 53.1881 96.9585 53.2646 96.9112 53.35 96.9 54.94 96.57 55.73 96.38 57.29 95.9 57.8359 95.7442 58.4094 95.71 58.97 95.8 59.5006 95.8863 59.9943 96.1262 60.39 96.49 60.8578 96.9185 61.203 97.4638 61.39 98.07L62.66 101.89C62.6951 101.97 62.6951 102.06 62.66 102.14 62.6029 102.226 62.5182 102.289 62.42 102.32 60.82 102.84 60.01 103.07 58.37 103.49 58.2776 103.531 58.1724 103.531 58.08 103.49 58.004 103.45 57.9465 103.382 57.92 103.3 57.85 103 57.81 102.85 57.73 102.55 57.7104 102.467 57.7287 102.379 57.78 102.31 57.8359 102.227 57.9221 102.17 58.02 102.15 59.02 101.89 59.49 101.76 60.46 101.47 60.14 100.38 59.97 99.83 59.65 98.74 59.5543 98.4036 59.3794 98.095 59.14 97.84 58.937 97.6158 58.6728 97.4559 58.38 97.38 58.0745 97.2807 57.7455 97.2807 57.44 97.38Z"/><path d="M67.4 102.59C67.18 102.68 67.03 102.59 66.95 102.45L66.8 102.06C66.73 101.88 66.8 101.75 67.03 101.66 68.29 101.16 68.91 100.89 70.15 100.33 70.36 100.23 70.51 100.27 70.59 100.45L70.77 100.82C70.85 101 70.78 101.14 70.56 101.24 69.31 101.81 68.67 102.08 67.4 102.59Z"/><path d="M70.61 99.06C70.5169 99.0973 70.4131 99.0973 70.32 99.06 70.234 99.0368 70.1615 98.9789 70.12 98.9 69.46 97.46 69.12 96.74 68.45 95.3 68.2727 94.8266 67.9123 94.4445 67.45 94.24 66.8857 94.0937 66.2873 94.1614 65.77 94.43 64.66 94.9 64.1 95.13 62.97 95.54 62.8878 95.5795 62.7922 95.5795 62.71 95.54 62.6255 95.5109 62.5591 95.4445 62.53 95.36 62.43 95.07 62.38 94.93 62.27 94.64 62.2349 94.5604 62.2349 94.4696 62.27 94.39 62.3071 94.3095 62.3759 94.2479 62.46 94.22 63.59 93.8 64.15 93.58 65.26 93.11 66.1813 92.6277 67.239 92.4726 68.26 92.67 69.1617 92.936 69.896 93.5933 70.26 94.46 70.98 95.88 71.33 96.59 72.04 98.02 72.0809 98.0983 72.0809 98.1917 72.04 98.27 71.9992 98.3618 71.9237 98.4337 71.83 98.47 71.29 98.74 71.06 98.85 70.61 99.06ZM65.07 101.38C64.9799 101.415 64.8801 101.415 64.79 101.38 64.7022 101.359 64.6309 101.295 64.6 101.21L63.17 97.27C63.1307 97.1913 63.1307 97.0987 63.17 97.02 63.2112 96.9388 63.2833 96.8776 63.37 96.85L64.48 96.43C64.5666 96.395 64.6634 96.395 64.75 96.43 64.8298 96.4612 64.8943 96.5221 64.93 96.6L66.48 100.5C66.5139 100.58 66.5139 100.67 66.48 100.75 66.4312 100.835 66.3529 100.899 66.26 100.93 65.79 101.12 65.55 101.21 65.07 101.38Z"/><path d="M75.55 89.29C74.83 89.76 74.47 89.98 73.74 90.42 73.6565 90.4534 73.5634 90.4534 73.48 90.42 73.395 90.4152 73.3189 90.3657 73.28 90.29 72.73 89.37 72.45 88.91 71.91 87.99 71.8753 87.9137 71.8753 87.8262 71.91 87.75 71.9332 87.664 71.9911 87.5915 72.07 87.55L72.93 87.02C73.0044 86.9643 73.0988 86.9425 73.19 86.96 73.2713 86.9811 73.3423 87.0308 73.39 87.1L74.21 88.4 74.82 88ZM78.72 94.72C78.6501 94.7929 78.5506 94.8298 78.45 94.82 78.3556 94.832 78.2625 94.7894 78.21 94.71L77.7 93.91C77.6644 93.827 77.6644 93.733 77.7 93.65 77.7257 93.5455 77.7773 93.4492 77.85 93.37 77.99 93.18 78.07 93.09 78.21 92.91 78.4371 92.6226 78.6254 92.3066 78.77 91.97 78.9014 91.6541 78.9496 91.3098 78.91 90.97 78.8334 90.5438 78.655 90.1425 78.39 89.8 78.1811 89.467 77.9052 89.1809 77.58 88.96 77.318 88.7957 77.0016 88.7417 76.7 88.81 76.2945 88.9171 75.9117 89.0967 75.57 89.34L75.23 89.56C75.1528 89.6092 75.061 89.6303 74.97 89.62 74.8833 89.6052 74.807 89.5543 74.76 89.48L74.31 88.77C74.2691 88.6952 74.2691 88.6048 74.31 88.53 74.3393 88.4472 74.3957 88.3768 74.47 88.33L75.09 87.92C75.6619 87.4939 76.3103 87.1816 77 87 77.5385 86.8904 78.0984 86.9754 78.58 87.24 79.1431 87.5765 79.6274 88.0301 80 88.57 80.3432 89.0072 80.5825 89.5167 80.7 90.06 80.8049 90.5478 80.8049 91.0522 80.7 91.54 80.5863 92.0546 80.3904 92.5476 80.12 93 79.851 93.4487 79.5395 93.8707 79.19 94.26Z"/><path d="M89.22 88.58C89.36 88.72 89.33 88.88 89.14 89.05 88.78 89.38 88.6 89.55 88.23 89.87 88.5 90.19 88.64 90.34 88.91 90.65 89.0433 90.7967 89.0133 90.9567 88.82 91.13L88.52 91.39C88.32 91.55 88.16 91.56 88.04 91.39L87.36 90.6C87.01 90.91 86.83 91.06 86.46 91.36 86.27 91.52 86.11 91.52 85.99 91.36L85.73 91.04C85.61 90.89 85.64 90.74 85.83 90.58 86.91 89.69 87.43 89.23 88.47 88.28 88.66 88.12 88.81 88.1 88.95 88.28Z"/><path d="M84.27 90.56C84.1911 90.6248 84.0921 90.6602 83.99 90.66 83.8998 90.6641 83.8134 90.6228 83.76 90.55L83.25 89.91C83.2149 89.8304 83.2149 89.7396 83.25 89.66 83.2693 89.5592 83.3266 89.4697 83.41 89.41 84.13 88.83 84.49 88.54 85.2 87.93 85.7144 87.5555 86.0709 87.003 86.2 86.38 86.2354 85.8508 86.0591 85.3292 85.71 84.93 85.6 84.79 85.5 84.68 85.43 84.6L85.13 84.29C84.7722 83.9032 84.2763 83.6732 83.75 83.65 83.1491 83.693 82.5843 83.9523 82.16 84.38 81.5 84.94 81.16 85.22 80.49 85.76 80.4155 85.8177 80.3242 85.8493 80.23 85.85 80.1427 85.844 80.0623 85.8002 80.01 85.73L79.5 85.09C79.4407 85.0213 79.4183 84.9281 79.44 84.84 79.4533 84.7501 79.5042 84.6701 79.58 84.62 80.26 84.07 80.58 83.79 81.27 83.22 81.8112 82.6899 82.4541 82.2749 83.16 82 83.7235 81.8259 84.3265 81.8259 84.89 82 85.4865 82.2075 86.0272 82.5497 86.47 83L86.79 83.3 87.09 83.64C87.5187 84.0838 87.8313 84.6265 88 85.22 88.1094 85.8248 88.0218 86.4487 87.75 87 87.3743 87.7731 86.8352 88.4555 86.17 89 85.42 89.63 85 90 84.27 90.56Z"/><path d="M94.14 84.19C93.97 84.38 93.81 84.41 93.67 84.28L93.28 83.92C93.13 83.79 93.15 83.63 93.28 83.44L93.77 82.89C93.94 82.7 94.09 82.67 94.24 82.8L94.64 83.15C94.7867 83.2767 94.7867 83.4367 94.64 83.63 94.45 83.86 94.35 84 94.14 84.19ZM95.22 85.19C95.05 85.39 94.88 85.42 94.74 85.29L94.36 84.94C94.21 84.81 94.23 84.64 94.36 84.45L94.86 83.89C95.04 83.7 95.19 83.66 95.34 83.79L95.73 84.13C95.88 84.26 95.87 84.42 95.73 84.62 95.59 84.82 95.43 84.94 95.22 85.16Z"/><path d="M87.81 78.86C87.21 79.52 86.9 79.86 86.28 80.47 86.2142 80.5393 86.1252 80.582 86.03 80.59 85.9448 80.6031 85.8587 80.5731 85.8 80.51L83.9 78.63C83.8404 78.5685 83.808 78.4856 83.81 78.4 83.8168 78.3094 83.8558 78.2243 83.92 78.16L84.65 77.4C84.7076 77.3257 84.7959 77.2815 84.89 77.28 84.975 77.2686 85.0604 77.2983 85.12 77.36L86.24 78.36C86.44 78.14 86.55 78.03 86.75 77.8ZM92.23 83.33C92.1714 83.4164 92.0819 83.4772 91.98 83.5 91.9008 83.551 91.7992 83.551 91.72 83.5L91 82.81C90.9325 82.7481 90.8928 82.6615 90.89 82.57 90.8939 82.4589 90.9211 82.3498 90.97 82.25 91.08 82.03 91.13 81.91 91.23 81.69 91.3853 81.3454 91.4962 80.9825 91.56 80.61 91.6091 80.2727 91.5713 79.9285 91.45 79.61 91.273 79.2167 91.0016 78.8732 90.66 78.61 90.3712 78.3437 90.0309 78.1395 89.66 78.01 89.3586 77.9223 89.0348 77.9583 88.76 78.11 88.3812 78.3269 88.0429 78.6077 87.76 78.94L87.48 79.25C87.4164 79.3238 87.3269 79.3703 87.23 79.38 87.1423 79.3887 87.055 79.3596 86.99 79.3L86.38 78.73C86.3184 78.6698 86.2856 78.586 86.29 78.5 86.2968 78.4094 86.3358 78.3243 86.4 78.26 86.61 78.03 86.72 77.92 86.92 77.69 87.3948 77.1152 87.9752 76.6365 88.63 76.28 89.1329 75.9935 89.721 75.8943 90.29 76 90.9262 76.1681 91.5172 76.4755 92.02 76.9 92.4443 77.243 92.7861 77.6771 93.02 78.17 93.2362 78.6304 93.3521 79.1314 93.36 79.64 93.3691 80.1618 93.2949 80.6817 93.14 81.18 92.9836 81.7025 92.776 82.2083 92.52 82.69Z"/></g></g></svg>