<svg width="1256" height="245" xmlns="http://www.w3.org/2000/svg" xmlns:xlink="http://www.w3.org/1999/xlink" overflow="hidden"><defs><clipPath id="clip0"><rect x="21" y="166" width="1256" height="245"/></clipPath><clipPath id="clip1"><rect x="22" y="167" width="1254" height="243"/></clipPath><clipPath id="clip2"><rect x="22" y="167" width="1254" height="243"/></clipPath><clipPath id="clip3"><rect x="-71" y="167" width="1471" height="243"/></clipPath></defs><g clip-path="url(#clip0)" transform="translate(-21 -166)"><g clip-path="url(#clip1)"><g clip-path="url(#clip2)"><g clip-path="url(#clip3)"><path d="M1454.08 144.131C1205.39 313.939 166.295 195.23 166.295 195.23 166.295 195.23-35.9928 96.2257 10.8266 61.5104 140.267-34.6515 1420.07 109.416 1442.68 7.82453 1442.68 7.95228 1494.2 116.729 1454.08 144.131Z" fill="#F1E0D5" transform="matrix(1 0 0 1.00065 -70.761 167.157)"/><path d="M1462.07 147.676C1457.47 151.221 1459.87 150.87 1459.29 151.764 1463.19 148.57 1463.73 147.452 1463.35 147.229 1462.96 147.005 1461.85 147.612 1462.07 147.676Z" fill="#F3E4DA" transform="matrix(1 0 0 1.00065 -70.761 167.157)"/><path d="M1469.1 68.5046 1469.96 69.7181C1468.65 66.1093 1467.27 62.5643 1465.84 59.0193 1466.83 62.181 1467.95 65.3109 1469.1 68.5046Z" fill="#F3E4DA" transform="matrix(1 0 0 1.00065 -70.761 167.157)"/><path d="M1441.44 0.159684C1441.65 0.631899 1441.94 1.06405 1442.3 1.43716 1442.55 1.65734 1442.84 1.82078 1443.16 1.91621 1443.33 1.7629 1443.46 1.57823 1443.55 1.37328L1443.71 1.18166C1443.71 1.18166 1443.87 1.56491 1443.96 1.72459L1444.54 3.06594C1446.07 6.61093 1447.89 10.3795 1449.84 14.5632 1450.83 16.703 1451.82 18.9066 1452.81 21.1103L1455.39 27.0824C1456.77 30.3007 1457.97 33.5957 1458.97 36.9509L1459.16 39.1226 1462.77 44.009C1461.46 40.3043 1459.96 36.408 1458.36 32.4478L1455.87 26.5076C1454.85 24.1123 1453.8 21.7171 1452.68 19.3537 1450.38 14.1161 1448.11 9.3575 1446.1 4.98215L1444.6 1.78846C1444.34 1.27747 1444.12 0.734548 1443.87 0.223558 1443.61-0.287432 1443.87 0.223558 1443.64 0.223558L1443.48 0.447116 1443.16 0.862295C1443.16 0.862295 1442.75 0.862295 1442.59 0.862295L1441.98 0.862295 1441.69 0.862295Z" fill="#F3E4DA" transform="matrix(1 0 0 1.00065 -70.761 167.157)"/><path d="M1404.77 20.5035C1405.96 20.5035 1404.14 21.3338 1403.94 21.3977 1403.75 21.4616 1405.32 21.0783 1412.82 18.4595 1412.33 18.5605 1411.83 18.6351 1411.32 18.6831 1409.95 19.1621 1408.1 19.705 1404.77 20.5035Z" fill="#F3E4DA" transform="matrix(1 0 0 1.00065 -70.761 167.157)"/><path d="M1411.32 18.6831C1417.93 16.5433 1406.79 19.3537 1411.32 18.6831Z" fill="#F3E4DA" transform="matrix(1 0 0 1.00065 -70.761 167.157)"/><path d="M1379.1 26.3798C1382.29 25.5814 1385.32 24.8149 1388.39 23.9207 1386.35 23.9207 1377.92 25.1024 1380.98 24.2081 1371.34 26.1882 1373.28 26.3479 1379.1 26.3798Z" fill="#F3E4DA" transform="matrix(1 0 0 1.00065 -70.761 167.157)"/><path d="M1370.28 29.3819 1375.2 28.2961C1373.5 28.2734 1371.82 28.6451 1370.28 29.3819Z" fill="#F3E4DA" transform="matrix(1 0 0 1.00065 -70.761 167.157)"/><path d="M1385.55 25.9008C1382.1 26.7311 1378.68 27.5615 1375.2 28.2961 1376.64 28.4557 1376.89 29.1903 1379.96 27.306 1379.22 28.1044 1381.21 27.1463 1385.55 25.9008Z" fill="#F3E4DA" transform="matrix(1 0 0 1.00065 -70.761 167.157)"/><path d="M1391.46 25.1343C1396.82 24.5275 1403.66 23.3458 1394.43 26.1563 1403.4 24.1123 1406.91 22.3558 1406.18 22.3558 1401.21 22.9393 1396.3 23.8678 1391.46 25.1343Z" fill="#F3E4DA" transform="matrix(1 0 0 1.00065 -70.761 167.157)"/><path d="M1437.8 10.1879C1438.47 9.16588 1439.17 8.27164 1439.78 7.15386 1440.82 7.67583 1442.09 7.28106 1442.65 6.25962L1443.19 4.72665C1443.19 4.5031 1443.19 4.72665 1443.35 4.72665L1443.58 5.07796 1443.99 5.74863 1445.69 8.55908C1445.26 7.80454 1444.87 7.02614 1444.54 6.22769L1443.8 4.59891 1443.55 3.73661C1443.45 3.87525 1443.38 4.02558 1443.32 4.18373L1442.84 5.14183 1442.01 5.62089C1441.57 6.13188 1440.58 5.62089 1440 5.62089 1438.5 8.4952 1437.64 9.86849 1437.8 10.1879Z" fill="#F3E4DA" transform="matrix(1 0 0 1.00065 -70.761 167.157)"/><path d="M1318.99 31.6814C1318.42 32.1923 1322.38 32.7353 1323.14 33.2782L1330.3 32.1923C1326.52 32.4146 1322.73 32.2431 1318.99 31.6814Z" fill="#F3E4DA" transform="matrix(1 0 0 1.00065 -70.761 167.157)"/><path d="M1322.98 33.2782 1312.25 34.875C1321.9 34.3321 1323.62 33.7892 1322.98 33.2782Z" fill="#F3E4DA" transform="matrix(1 0 0 1.00065 -70.761 167.157)"/><path d="M1368.91 32.0965C1374.66 30.7552 1380.37 29.2542 1386.06 27.6573 1379.29 29.4458 1372.42 31.1065 1365.52 32.6075Z" fill="#F3E4DA" transform="matrix(1 0 0 1.00065 -70.761 167.157)"/><path d="M1277.63 33.8531 1283.7 32.4798 1272.88 34.6195 1277.63 33.8531Z" fill="#F3E4DA" transform="matrix(1 0 0 1.00065 -70.761 167.157)"/><path d="M1250.23 35.1305C1254.74 34.0766 1243.84 33.7253 1248.73 33.0227 1241.29 33.4059 1234.93 34.3321 1229.22 35.1625 1236.21 34.6355 1243.23 34.625 1250.23 35.1305Z" fill="#F3E4DA" transform="matrix(1 0 0 1.00065 -70.761 167.157)"/><path d="M1219.6 36.2164C1222.64 35.929 1225.8 35.5138 1229.19 35.0028 1225.99 35.2902 1222.8 35.6415 1219.6 36.2164Z" fill="#F3E4DA" transform="matrix(1 0 0 1.00065 -70.761 167.157)"/><path d="M1293.83 35.6735C1291.05 34.8722 1288.15 34.548 1285.27 34.7154L1289.58 35.8651Z" fill="#F3E4DA" transform="matrix(1 0 0 1.00065 -70.761 167.157)"/><path d="M1289.74 35.897 1289.74 35.897 1280.54 36.2483Z" fill="#F3E4DA" transform="matrix(1 0 0 1.00065 -70.761 167.157)"/><path d="M1294.91 35.6415 1293.83 35.6415C1294.17 35.8031 1294.57 35.8031 1294.91 35.6415Z" fill="#F3E4DA" transform="matrix(1 0 0 1.00065 -70.761 167.157)"/><path d="M1340.65 34.0766C1334.42 35.418 1321.23 37.2703 1334.26 37.2703 1338.6 36.0567 1331.22 36.0567 1340.65 34.0766Z" fill="#F3E4DA" transform="matrix(1 0 0 1.00065 -70.761 167.157)"/><path d="M1300.28 37.0467 1311.77 36.6954C1311.55 36.3441 1309.44 35.929 1312.54 35.386Z" fill="#F3E4DA" transform="matrix(1 0 0 1.00065 -70.761 167.157)"/><path d="M1294.66 37.7813 1300.28 37.0467 1296 37.1745 1294.66 37.7813Z" fill="#F3E4DA" transform="matrix(1 0 0 1.00065 -70.761 167.157)"/><path d="M1239.37 37.1106C1233.87 37.7701 1228.34 38.1221 1222.8 38.1645 1229.41 38.3562 1236.21 38.3562 1242.69 38.1645 1243.59 37.7174 1246.43 36.8871 1239.37 37.1106Z" fill="#F3E4DA" transform="matrix(1 0 0 1.00065 -70.761 167.157)"/><path d="M1263.87 36.7913 1262.75 36.7913C1263.42 37.0148 1264 37.0467 1263.87 36.7913Z" fill="#F3E4DA" transform="matrix(1 0 0 1.00065 -70.761 167.157)"/><path d="M1162.18 38.6117 1163.17 38.8671 1163.4 38.6436Z" fill="#F3E4DA" transform="matrix(1 0 0 1.00065 -70.761 167.157)"/><path d="M1243.81 38.3242C1247.41 38.4644 1251.01 38.1965 1254.54 37.5258 1250.84 37.7813 1246.91 37.9729 1242.69 38.1007 1242.34 38.3242 1242.34 38.5158 1243.81 38.3242Z" fill="#F3E4DA" transform="matrix(1 0 0 1.00065 -70.761 167.157)"/><path d="M1202.71 37.0787C1205.3 37.3342 1208.23 37.5258 1211.3 37.7174 1208.47 37.1601 1205.59 36.9455 1202.71 37.0787Z" fill="#F3E4DA" transform="matrix(1 0 0 1.00065 -70.761 167.157)"/><path d="M1261.06 36.5996 1261.83 36.5996C1260.16 36.2803 1260.39 36.408 1261.06 36.5996Z" fill="#F3E4DA" transform="matrix(1 0 0 1.00065 -70.761 167.157)"/><path d="M1261.06 36.5996C1258.54 36.8871 1256.52 37.2703 1254.67 37.6216 1257.67 37.43 1260.45 37.2064 1262.88 36.919 1262.26 36.8653 1261.66 36.7587 1261.06 36.5996Z" fill="#F3E4DA" transform="matrix(1 0 0 1.00065 -70.761 167.157)"/><path d="M1143.75 47.3304C1144.65 46.0849 1157.71 44.9671 1169.02 46.3084 1180.1 45.3184 1172.82 41.1985 1163.17 38.8671 1162.82 39.4101 1162.82 39.9211 1151.39 40.6556 1155.38 41.3582 1176.71 42.2844 1167.1 43.4341 1151.96 44.0729 1154.71 42.987 1147.36 42.2844 1153.59 43.9132 1128.2 44.488 1131.4 46.8194L1144.68 46.0849C1144.9 46.4362 1140.15 46.9791 1143.75 47.3304Z" fill="#F3E4DA" transform="matrix(1 0 0 1.00065 -70.761 167.157)"/><path d="M1184.86 38.931 1189.55 38.931C1184.12 38.6909 1178.7 38.1364 1173.33 37.2703 1165.5 37.909 1163.75 38.3562 1163.36 38.8033L1186.45 38.8033Z" fill="#F3E4DA" transform="matrix(1 0 0 1.00065 -70.761 167.157)"/><path d="M1210.63 38.5478C1206.99 39.9849 1195.72 40.6875 1202.65 42.0928 1216.41 41.8373 1212.23 40.8472 1220.5 40.1127 1198.14 40.7834 1226.89 39.2823 1210.92 38.7075 1215.26 38.42 1219.19 38.2923 1222.89 38.1645 1218.9 38.1645 1215.04 37.941 1211.4 37.7174L1211.91 37.7174 1211.91 37.7174C1212.87 37.8771 1213.19 37.9729 1212.1 37.8771L1211.65 37.8771C1211.35 38.1179 1211 38.2923 1210.63 38.3881 1204.24 38.1965 1209.64 38.0368 1211.65 37.8771 1211.65 37.8771 1211.88 37.7174 1211.91 37.6535L1211.91 37.6535 1189.55 38.6436C1194.44 38.931 1200.19 38.8671 1210.63 38.5478Z" fill="#F3E4DA" transform="matrix(1 0 0 1.00065 -70.761 167.157)"/><path d="M1322.54 41.2944C1321.83 41.2944 1321.83 41.1027 1321.8 41.0069 1320.37 41.2944 1319.82 41.5179 1322.54 41.2944Z" fill="#F3E4DA" transform="matrix(1 0 0 1.00065 -70.761 167.157)"/><path d="M1313.31 41.0708C1315.98 40.3762 1318.72 39.9904 1321.48 39.9211 1326.08 39.9211 1321.48 40.5917 1321.8 41.0069 1325 40.4321 1332.79 39.1865 1322.82 39.2823L1321.26 39.5698C1312.29 39.7614 1300.69 38.7075 1302.26 38.42 1305.8 39.8237 1309.52 40.716 1313.31 41.0708Z" fill="#F3E4DA" transform="matrix(1 0 0 1.00065 -70.761 167.157)"/><path d="M1261.31 40.8472 1242.82 42.0289 1252.4 42.987 1251.92 42.2844C1262.34 42.2525 1260.04 41.5179 1261.31 40.8472Z" fill="#F3E4DA" transform="matrix(1 0 0 1.00065 -70.761 167.157)"/><path d="M1160.07 37.941 1162.53 36.4719 1151.8 38.5158 1160.07 37.941Z" fill="#F3E4DA" transform="matrix(1 0 0 1.00065 -70.761 167.157)"/><path d="M1135.96 38.0049 1136.86 36.7593 1130.5 37.4939 1135.96 38.0049Z" fill="#F3E4DA" transform="matrix(1 0 0 1.00065 -70.761 167.157)"/><path d="M177.058 188.906 182.487 189.13C179.932 188.97 178.272 188.938 177.058 188.906Z" fill="#F3E4DA" transform="matrix(1 0 0 1.00065 -70.761 167.157)"/><path d="M143.716 175.078 142.566 175.078C144.291 175.653 145.057 175.844 143.716 175.078Z" fill="#F3E4DA" transform="matrix(1 0 0 1.00065 -70.761 167.157)"/><path d="M543.629 21.9406C535.709 20.5673 526.862 18.5234 527.661 19.9605L530.088 21.3977C534.61 21.2913 539.132 21.4726 543.629 21.9406Z" fill="#F3E4DA" transform="matrix(1 0 0 1.00065 -70.761 167.157)"/><path d="M137.68 33.3421 140.043 33.5656 145.281 31.9369Z" fill="#F3E4DA" transform="matrix(1 0 0 1.00065 -70.761 167.157)"/><path d="M132.602 39.5378 122.158 39.5378C124.554 39.6975 127.747 39.6656 132.602 39.5378Z" fill="#F3E4DA" transform="matrix(1 0 0 1.00065 -70.761 167.157)"/><path d="M391.801 206.887 398.189 205.961C388.32 205.226 392.632 206.248 391.801 206.887Z" fill="#F3E4DA" transform="matrix(1 0 0 1.00065 -70.761 167.157)"/><path d="M889.026 33.2143C882.192 32.4478 876.762 32.0646 871.972 31.841 880.18 32.895 886.823 34.3002 889.026 33.2143Z" fill="#F3E4DA" transform="matrix(1 0 0 1.00065 -70.761 167.157)"/><path d="M158.119 199.254C159.748 199.925 160.706 200.244 161.696 200.595 162.686 200.947 163.325 201.074 163.293 200.883L161.6 200.148 160.578 199.733 159.014 199.19C158.215 198.935 157.864 198.935 158.119 199.254Z" fill="#F3E4DA" transform="matrix(1 0 0 1.00065 -70.761 167.157)"/><path d="M852.171 31.2342 855.78 31.6494C860.794 31.6494 865.84 31.6494 871.972 31.841 865.418 30.8635 858.772 30.6598 852.171 31.2342Z" fill="#F3E4DA" transform="matrix(1 0 0 1.00065 -70.761 167.157)"/><path d="M1171.8 213.37 1173.55 213.37C1173.71 213.115 1172.94 213.21 1171.8 213.37Z" fill="#F3E4DA" transform="matrix(1 0 0 1.00065 -70.761 167.157)"/><path d="M1397.27 179.677C1395.19 180.571 1391.71 181.848 1388.42 183.094 1390.05 182.583 1392.73 181.593 1397.27 179.677Z" fill="#F3E4DA" transform="matrix(1 0 0 1.00065 -70.761 167.157)"/><path d="M1063.78 42.0289C1062.67 42.0289 1061.84 42.3483 1061.71 42.6676 1062.33 42.2713 1063.05 42.0506 1063.78 42.0289Z" fill="#F3E4DA" transform="matrix(1 0 0 1.00065 -70.761 167.157)"/><path d="M800.944 38.3242 800.497 38.3242C801.998 38.4839 801.615 38.3242 800.944 38.3242Z" fill="#F3E4DA" transform="matrix(1 0 0 1.00065 -70.761 167.157)"/><path d="M1046.7 36.8551C1044.78 36.6316 1042.55 36.4719 1040.15 36.3122 1041.14 36.4399 1043.19 36.6316 1046.7 36.8551Z" fill="#F3E4DA" transform="matrix(1 0 0 1.00065 -70.761 167.157)"/><path d="M1045.64 36.1845 1050.12 36.408C1050.72 36.1845 1050.21 36.0248 1045.64 36.1845Z" fill="#F3E4DA" transform="matrix(1 0 0 1.00065 -70.761 167.157)"/><path d="M1031.88 35.9928C1034.82 35.9928 1037.53 36.1525 1040.15 36.3122 1039.16 36.3122 1038.75 36.1206 1039 36.0567Z" fill="#F3E4DA" transform="matrix(1 0 0 1.00065 -70.761 167.157)"/><path d="M753.965 230.169 755.051 230.329C760.097 229.945 757.957 229.945 753.965 230.169Z" fill="#F3E4DA" transform="matrix(1 0 0 1.00065 -70.761 167.157)"/><path d="M391.769 34.4599C397.745 33.16 403.896 32.8471 409.973 33.5337L403.937 29.4458Z" fill="#F3E4DA" transform="matrix(1 0 0 1.00065 -70.761 167.157)"/><path d="M271.08 198.008 258.305 195.581C273.986 194.974 285.132 196.699 273.252 193.857 271.08 198.008 223.558 189.417 221.195 193.505L212.827 191.781C215.222 192.036 215.638 191.781 218.033 192.132 201.809 188.396 205.514 194.016 184.371 191.206 177.026 190.088 171.98 188.875 177.058 188.906L169.042 188.587C168.389 188.656 167.731 188.522 167.157 188.204L163.357 186.607C159.141 184.371 160.515 184.244 164.73 186.607 157.225 182.966 149.752 179.198 142.374 175.365L142.598 175.365C139.117 174.279 131.452 171.341 127.779 169.808 122.478 166.167 130.813 170.958 129.632 169.808L116.857 163.932C112.482 160.163 123.053 164.922 131.388 169.68 122.19 159.557 120.625 165.209 97.8226 148.794L109.384 154.99C103.348 148.602 94.086 144.227 82.4929 135.061 84.8882 137.648 105.615 153.808 92.0739 146.91 87.2732 143.295 82.1774 140.09 76.8401 137.328 77.6066 135.987 70.7401 132.059 62.5962 126.534L64.2889 125.224C59.636 122.518 54.7899 120.159 49.7896 118.166 40.464 110.917 39.7614 108.01 38.5158 105.392 31.6814 99.2597 33.6934 101.783 35.3222 104.178 36.9509 106.573 38.1326 108.777 29.861 101.559 25.0046 96.7249 20.4402 91.6061 16.192 86.2295 12.4873 81.1196 8.94232 75.2752 10.8905 70.4846 11.8166 69.1433 12.6151 68.6642 12.9344 68.6004 13.2538 68.5365 13.126 68.8559 12.9344 69.2391 12.7428 69.6223 12.2318 71.1872 12.9344 70.5166 13.2734 69.5313 13.7813 68.6128 14.4355 67.8019 14.8968 67.2628 15.4103 66.7707 15.9684 66.3328L17.5333 64.7679C19.4815 63.6821 19.0982 64.4805 18.9386 64.7679 21.9726 62.5962 22.1322 62.181 22.3877 61.3826 22.6432 60.5842 23.6652 59.4984 29.4458 56.8476 30.5955 55.1869 37.0787 53.6539 45.1587 52.1848 53.8027 50.9923 62.3436 49.1451 70.7082 46.6597 74.7322 46.6597 69.0475 48.2246 70.3888 48.7995 81.0877 45.9891 85.7824 45.0629 89.9342 44.0729L106.701 39.8891C111.907 39.8891 117.144 39.6017 122.35 39.5378 110.789 39.1865 125.161 35.8012 137.871 33.1505 133.752 32.7672 130.207 32.4478 127.843 32.3201 134.646 31.3301 141.48 30.4039 148.283 29.5097 150.806 29.5097 148.762 30.4997 145.472 31.6175L149.209 30.851C156.586 31.0746 152.882 32.5437 147.708 34.0447L140.235 33.374C135.285 35.0028 130.654 36.8551 131.835 37.941 134.025 37.4281 136.243 37.0442 138.478 36.7913 137.201 37.2384 136.37 37.6216 137.009 37.7494 139.083 37.5667 141.13 37.1489 143.109 36.5038L147.932 38.3881 148.985 37.43C157.928 37.2384 166.87 37.1212 175.812 37.0787 194.815 33.885 211.422 29.6055 241.954 27.8489 234.417 29.7332 240.389 30.6274 240.037 32.6075 231.638 30.7552 216.436 34.1724 200.627 34.4279 208.899 34.4279 207.015 35.3222 205.035 35.7373L233.139 32.863C232.532 34.4918 239.143 33.885 246.521 34.396 240.868 31.2023 267.471 31.7772 278.936 30.6913 279.671 31.7452 276.924 32.863 262.968 32.8311 278.457 34.9709 282.865 28.7751 298.099 30.6594 295.883 30.471 293.652 30.6327 291.488 31.1384 299.472 30.0845 319.017 30.7552 314.418 31.7133L310.746 31.7133C333.453 31.9049 379.889 31.7133 383.306 29.1583 383.53 29.5416 380.304 32.352 378.899 32.9588L419.554 24.272C415.946 26.5715 429.583 32.2882 410.74 33.374 418.561 34.0086 426.414 34.0833 434.245 33.5976 430.541 33.2143 425.08 30.0845 430.126 29.9568 443.922 32.7672 439.707 31.4897 456.729 34.0127 451.204 33.4059 457.432 29.861 466.31 30.1484 464.937 30.6594 466.949 33.7573 463.755 34.0766L485.568 30.8829C480.139 31.3939 484.546 33.885 489.4 35.0028 487.165 34.2682 508.211 35.4818 514.024 35.2902L504.602 34.5237C529.162 35.6415 529.002 30.0526 553.37 30.8829 550.4 31.5536 545.961 35.2583 558.352 36.0248 573.58 31.0629 589.375 28.0685 605.363 27.1144L609.451 28.2961 626.058 27.5934C615.647 30.0206 586.584 35.0028 570.712 36.8232 579.877 37.909 573.235 38.1326 587.031 38.42 591.854 39.5698 579.462 39.6975 575.406 39.6656L607.343 41.2305C605.97 39.0268 631.903 39.7933 630.753 38.0368L595.878 39.2185C594.536 37.0467 616.19 33.7253 638.897 34.8112 644.645 35.8331 634.458 38.4839 634.905 39.2185 642.78 38.5976 650.694 38.5976 658.57 39.2185L648.989 40.0488C661.764 41.2624 669.716 37.8771 684.822 40.4001 690.06 40.7195 700.407 43.5938 701.333 42.4441 692.87 39.6975 691.465 32.0965 697.213 30.4358 699.034 30.6594 724.679 33.6295 730.619 35.0986 739.178 37.3022 717.493 39.2185 724.807 41.1347 727.1 40.3398 729.502 39.8984 731.929 39.8253 737.422 40.4959 729.597 41.5498 741.51 41.6776 743.554 39.5698 765.814 42.6676 747.227 40.0488 758.947 39.7933 759.65 40.9111 773.383 41.2624 769.071 39.6975 785.902 36.8871 797.623 36.6635 796.92 37.1745 799.539 38.0049 800.817 38.3562 824.801 39.3462 837.64 40.7514 860.028 41.5498 862.071 42.1566 872.802 43.1467 868.203 43.9132 872.553 43.3287 876.941 43.0831 881.329 43.1786 894.615 45.4461 865.936 42.987 876.028 45.542 876.954 44.3284 893.944 44.3603 903.781 43.8812 900.843 41.8373 881.106 42.7954 871.237 43.2744 871.237 40.5917 888.483 38.3242 911.925 37.7494 930.512 37.7494 919.909 39.7294 923.167 39.4739 958.042 40.943 953.028 35.6096 981.962 38.3242 993.428 40.3362 982.378 41.7415 984.901 43.0509 969.731 43.3064 961.682 41.3582 951.431 41.1347L964.046 42.2844C957.234 42.827 950.386 42.827 943.574 42.2844 953.155 44.1048 1002.56 44.1687 1029.48 46.1488 1034.28 45.6697 1042.55 45.2545 1038.65 44.4561L1030.12 44.4561C1022.33 42.9231 1046.09 42.8912 1035.42 42.0289 1048.85 40.7418 1062.35 40.411 1075.82 41.0389L1078.79 43.0509C1073.84 42.0889 1068.78 41.8095 1063.75 42.2205 1070.49 41.486 1088.41 45.4142 1095.69 42.7954L1084.45 41.2944C1097.7 39.7844 1111.03 39.123 1124.37 39.3143 1117.98 37.3022 1121.18 39.5059 1110.99 37.1426 1119.74 40.0807 1074.52 36.5677 1088.63 39.6975 1078.28 36.919 1070.65 38.3242 1057.11 35.8331 1057.53 36.5038 1061.9 37.1745 1049.92 36.6316 1049.38 36.6316 1048.1 37.0148 1047.31 37.1426L1046.51 37.1426 1047.15 37.1426C1046.63 37.1426 1046.57 37.1426 1047.4 37.1426 1049.45 37.2959 1051.49 37.6596 1053.47 38.2284 1047.5 39.6017 1028.46 39.1865 1022.01 39.7933 1014.92 39.3143 1025.01 39.1226 1021.15 38.3562L1011.57 39.2823C1010.64 37.8132 992.757 36.4399 1009.49 36.0886L994.45 35.6735C984.964 34.5697 975.412 34.1533 965.866 34.4279 958.776 33.9169 947.886 35.5138 954.113 34.4279L930.48 34.6515 930.257 34.3002C906.975 33.4379 882.351 35.2263 855.652 31.7772 847.796 31.7772 839.684 32.0965 826.558 31.2342L824.035 29.9248C813.943 29.9248 793.822 27.6893 789.447 28.839 778.684 25.1343 740.584 26.4757 722.859 25.294L722.156 26.8908C709.956 26.4118 698.235 26.4757 683.065 26.6353L683.96 28.1044C670.866 28.839 650.426 25.9966 629.667 25.4856 633.113 25.1232 636.591 25.2091 640.015 25.7411 615.455 21.749 587.894 26.5076 565.57 23.5375 561.054 23.867 556.519 23.7387 552.029 23.1542 552.495 23.1877 552.967 23.1877 553.434 23.1542L551.134 23.1542 543.406 22.1642C545.737 22.5794 547.973 22.9307 549.793 23.1223 545.513 23.1223 538.966 23.1223 532.579 23.1223L530.152 21.3977 528.651 21.3977C522.263 20.6951 523.605 22.0045 526.926 23.25 523.732 23.25 520.73 23.6652 518.431 23.9846 513.385 21.3658 501.632 24.3998 494.734 21.6213 490.39 22.8029 462.541 21.9087 459.092 24.5594 458.869 24.2081 456.984 23.9846 460.434 24.0485 453.564 23.4187 446.653 23.344 439.77 23.8249L436.8 21.8129 421.183 24.2081C411.602 22.8987 407.802 22.1322 417.223 20.759 394.516 22.8029 398.796 21.3977 379.474 23.5055L380.432 22.26C373.533 22.26 362.515 23.8888 358.363 22.8029 342.906 20.2799 282.002 22.3558 242.305 21.238 250.097 24.7511 223.813 20.0883 222.312 23.0584 219.981 22.26 214.424 21.9406 220.843 20.9506 200.627 22.5155 190.344 20.759 176.483 23.9207 174.12 23.1862 180.731 22.4197 178.655 22.0045 175.852 22.5879 172.989 22.8345 170.128 22.739 168.02 22.3239 173.034 21.8129 176.228 21.238 155.501 22.6113 153.616 25.5495 152.307 28.2002 144.487 27.4607 136.598 28.3191 129.121 30.7233 125.416 30.2123 119.252 29.9248 132.059 28.4238 128.45 28.6793 117.4 29.4138 107.18 30.5636 96.9603 31.7133 87.6028 33.3101 87.3792 34.3641 83.3507 34.6106 79.3586 35.2743 75.4668 36.3441 67.4187 37.6535 63.0433 38.452 58.6999 39.3462 54.3565 40.2404 50.077 41.1666 42.2844 43.4022L46.7236 42.5718C43.6676 44.5375 40.281 45.9332 36.7274 46.6917 31.607 47.9529 26.6143 49.6848 21.8129 51.8654L22.0364 51.4822C17.0951 53.2454 12.4121 55.6621 8.11196 58.668 6.94955 59.5236 5.87926 60.4973 4.91828 61.5743 4.21011 62.3331 3.58884 63.1685 3.06594 64.0653 1.70314 66.2335 0.760563 68.6387 0.287432 71.1553-0.161505 73.4602-0.226252 75.8235 0.0958112 78.1495 0.651576 81.5294 1.69509 84.8102 3.19369 87.8902L3.76855 85.6866C4.8544 85.9421 6.00413 87.6667 7.56903 90.0939 9.13394 92.5211 11.146 95.8106 13.637 99.0042 18.9225 106.331 25.3111 112.795 32.5756 118.166 31.1704 116.665 29.7651 114.973 28.4238 113.536 36.0248 118.805 46.021 133.241 53.622 138.893 55.123 140.299 50.6838 137.456 48.2566 135.955 57.8376 143.844 58.7638 143.748 59.2109 143.109 59.658 142.47 59.6261 141.161 67.3548 145.951 69.5904 148.666 62.213 145.951 72.4328 152.722 78.657 156.703 85.1567 160.235 91.8823 163.293 101.006 167.622 109.792 172.629 118.166 178.272 115.388 175.749 112.609 173.257 120.274 176.802 131.612 182.807 149.433 195.965 161.089 198.967L162.814 200.212C163.261 200.563 163.453 200.755 163.453 200.883 163.453 201.011 164.315 201.298 164.794 201.426L166.327 201.426 169.074 201.426 174.088 201.745 185.234 202.416C191.055 202.898 196.902 202.983 202.735 202.671 211.198 209.059 263.607 206.057 262.936 210.847L292.989 213.338 292.158 213.753C303.068 215.264 314.113 215.542 325.085 214.584 329.492 215.286 326.203 215.446 325.82 215.67 353.796 218.863 356.639 218.863 380.368 218.416L382.667 220.205C389.055 219.789 423.099 225.762 450.789 225.794 449.779 226.216 448.684 226.391 447.595 226.305 478.701 226.624 521.593 235.438 533.282 230.329L553.849 230.041C527.373 228.125 557.937 227.774 547.078 226.209 557.522 226.464 573.905 229.402 561.099 229.019L559.119 228.604C554.264 231.382 591.982 231.414 591.055 233.363 643.208 235.79 694.02 239.303 742.947 240.644L737.358 238.153 754.412 238.696C758.883 239.335 760.385 240.644 748.217 240.293 755.163 241.103 762.195 240.714 769.007 239.143 792.832 240.516 759.65 241.698 766.964 241.858L776.896 241.858 774.66 241.538C782.389 240.22 790.236 239.728 798.07 240.069 807.332 240.644 802.797 241.57 806.469 241.698 806.469 241.698 807.651 241.954 812.058 241.698L833.552 242.081 824.961 240.197C834.542 239.335 845.177 240.389 835.276 238.249 842.526 239.942 862.582 240.293 881.936 240.229 901.29 240.165 919.941 239.654 924.412 240.037 937.73 238.536 950.92 238.217 967.24 237.993 963.152 237.738 960.692 235.726 974.745 235.566 969.731 240.037 1000.58 236.652 1012.08 239.239 1001.83 237.674 1052.06 236.908 1035.97 234.736 1047.72 234.544 1036.77 236.333 1045.74 236.908 1073.56 233.714 1107.38 234.289 1141.84 230.52 1142.32 229.913 1136.47 229.594 1143.79 228.093 1149.92 228.508 1156.08 228.732 1162.25 229.051 1169.02 228.061 1168.15 225.283 1180.8 225.857 1178.98 225.602 1176.3 225.219 1180.8 224.484 1215.14 221.655 1249.27 216.695 1283 209.633 1317.2 202.799 1351.09 194.336 1384.85 185.361 1375.52 187.278 1381.65 185.361 1388.23 182.775 1383.76 184.18 1387.88 181.433 1386.73 181.05L1400.72 176.93 1414.8 172.459C1419.83 169.036 1425.18 166.115 1430.77 163.74 1437.41 160.068 1443.8 156.586 1444.6 154.926 1441.98 156.554 1439.33 158.119 1436.68 159.716 1441.5 155.724 1437.06 156.523 1431.54 158.055 1426.01 159.588 1419.18 160.898 1419.37 159.173 1413.97 163.453 1405.32 165.944 1395.86 168.754 1391.07 170.096 1386.03 171.565 1381.01 173.385 1375.78 175.06 1370.7 177.197 1365.84 179.773 1361.05 180.699 1369.48 177.537 1366.8 177.665 1361.95 180.858 1355.46 182.807 1343.3 185.713L1344.54 185.234C1327.61 189.992 1315.29 192.675 1302.38 195.102 1289.48 197.529 1275.97 199.701 1256.4 202.575L1259.59 203.597C1254.87 204.305 1250.11 204.743 1245.35 204.907 1236.05 208.771 1268.95 201.074 1260.58 204.907 1254.74 204.364 1239.95 206.855 1225.45 208.835 1210.95 210.815 1196.99 212.54 1193 211.262 1179.97 212.763 1197.03 212.54 1183.99 214.041L1180.45 213.53 1177.26 215.127C1168.7 215.925 1164.23 215.127 1163.84 214.36 1165.92 214.36 1169.72 213.53 1171.92 213.242 1160.71 213.242 1140.69 216.819 1136.79 216.755L1149.41 216.149C1113.86 220.62 1070.14 222.28 1035.65 225.73L1038.3 226.305C1011.92 228.891 1017.09 226.528 988.094 228.221L989.116 227.997C982.023 229.109 974.863 229.76 967.687 229.945 975 228.923 953.858 228.7 963.439 227.518 934.696 229.562 949.291 229.019 930.384 231.989L925.977 230.84C918.925 232.427 911.711 233.178 904.484 233.075 916.396 231.957 895.222 231.351 908.54 229.881 878.072 227.55 863.317 232.724 849.329 228.923 835.34 232.117 875.709 230.776 867.852 231.446 874.431 232.468 856.291 233.969 846.742 233.554 837.193 233.139 830.199 229.307 805.735 229.083 808.162 229.083 808.322 228.859 810.749 229.083 801.615 228.157 792.8 229.977 781.591 228.444 775.203 230.329 766.995 228.061 765.143 230.552L787.499 230.361C774.724 230.84 762.78 233.554 741.797 231.638 745.847 230.991 749.932 230.565 754.029 230.361 747.897 229.498 742.181 230.584 735.857 229.658 737.741 227.199 763.163 229.658 776.832 228.061 770.285 226.911 750.995 229.37 757.925 226.784 747.993 229.977 733.813 225.762 717.174 227.997L718.292 226.496C714.044 226.885 709.781 227.055 705.517 227.007L714.332 225.315C700.854 226.592 688.527 223.079 675.624 223.494 702.547 224.42 681.596 225.538 692.966 227.039 659.656 227.901 673.995 222.44 636.789 221.674 641.835 221.674 655.632 223.366 647.743 223.75 640.803 223.265 633.895 222.401 627.048 221.163 602.393 220.396 630.753 222.919 620.214 223.366 611.91 221.163 608.11 223.59 597.251 223.654L597.251 222.121C569.242 219.757 589.65 224.963 564.452 222.472L575.247 220.875 562.025 220.875 564.835 219.278C553.862 219.749 542.869 219.3 531.972 217.937 535.166 219.215 529.992 220.62 517.569 219.949 509.137 218.512 522.391 218.767 504.794 217.905 510.057 216.685 515.537 216.762 520.762 218.129 521.593 217.682 524.754 217.394 525.585 216.947 515.863 215.779 506.087 215.107 496.299 214.935 498.758 215.159 501.664 215.414 503.165 215.733L477.616 216.244C473.655 215.414 476.849 215.159 480.043 214.903 474.869 214.903 471.228 215.222 463.627 214.903 465.671 213.785 465.288 212.476 476.083 212.572L451.683 212.348C450.086 211.677 439.323 209.985 442.485 209.761 429.072 208.101 409.271 209.761 391.386 207.494 389.182 207.745 386.957 207.798 384.743 207.653 367.976 206.089 353.254 203.342 333.197 203.406L322.115 200.212C306.498 199.414 337.157 204.332 311.161 202.959 292.733 202.096 304.454 200.468 298.099 199.286 284.062 200.238 269.962 199.498 256.102 197.082 261.531 196.795 265.874 197.529 271.08 198.008ZM92.6169 146.91C95.8106 148.57 102.805 151.508 104.657 153.648 100.058 152.914 97.6629 150.55 92.6169 146.91ZM166.072 34.2363C162.138 34.9095 158.134 35.0708 154.159 34.7154 158.114 34.281 162.095 34.121 166.072 34.2363ZM982.793 36.0248 982.409 36.0248C974.074 35.2902 977.268 35.6096 982.92 36.0248ZM1000.07 37.1426C1001.83 36.9509 1001.7 36.7274 1001 36.5038 997.81 36.8242 994.6 36.8242 991.416 36.5038 994.28 37.2422 997.257 37.4584 1000.2 37.1426ZM808.449 241.538 805.064 241.091C812.697 240.676 810.557 241.059 808.449 241.475Z" fill="#F3E4DA" transform="matrix(1 0 0 1.00065 -70.761 167.157)"/><path d="M133.304 38.8033C132.691 38.7739 132.106 38.5376 131.644 38.1326 130.207 38.5158 130.207 38.8033 133.304 38.8033Z" fill="#F3E4DA" transform="matrix(1 0 0 1.00065 -70.761 167.157)"/><path d="M390.62 207.047 391.195 207.047C391.412 207.027 391.622 206.95 391.801 206.823Z" fill="#F3E4DA" transform="matrix(1 0 0 1.00065 -70.761 167.157)"/><path d="M731.705 41.965C729.406 41.7817 727.122 41.4403 724.871 40.943 724.647 41.2944 726.276 41.6776 731.705 41.965Z" fill="#F3E4DA" transform="matrix(1 0 0 1.00065 -70.761 167.157)"/><path d="M1091.92 36.2803 1080.84 36.5038C1084.17 36.5009 1087.5 36.7251 1090.8 37.1745 1090.58 36.7913 1088.47 36.2483 1091.92 36.2803Z" fill="#F3E4DA" transform="matrix(1 0 0 1.00065 -70.761 167.157)"/><path d="M1188.05 46.2765C1189.68 46.0849 1191.5 46.2765 1193.1 46.021L1192.65 45.3184C1185.75 45.4142 1180.93 46.021 1188.05 46.2765Z" fill="#F3E4DA" transform="matrix(1 0 0 1.00065 -70.761 167.157)"/><path d="M1102.11 41.5179C1102.97 42.8273 1109.93 42.476 1117.69 42.3163L1116.32 42.3163C1118.65 40.5279 1110.35 41.0389 1102.11 41.5179Z" fill="#F3E4DA" transform="matrix(1 0 0 1.00065 -70.761 167.157)"/><path d="M1119.51 42.2844C1121.91 42.2844 1124.34 42.2844 1126.7 42.2844 1127.59 41.5179 1123.79 42.1247 1119.51 42.2844Z" fill="#F3E4DA" transform="matrix(1 0 0 1.00065 -70.761 167.157)"/><path d="M1022.17 36.7593C1025.84 37.1745 1024.53 35.1625 1026.58 35.7373 1030.73 34.1724 1002.02 37.2064 1022.17 36.7593Z" fill="#F3E4DA" transform="matrix(1 0 0 1.00065 -70.761 167.157)"/><path d="M1108.37 45.8613 1105.59 44.2325 1101.21 45.4781 1108.37 45.8613Z" fill="#F3E4DA" transform="matrix(1 0 0 1.00065 -70.761 167.157)"/><path d="M1047.05 43.7535 1059.44 44.4242C1059.25 44.1687 1060.85 44.009 1062.63 43.9451 1057.45 43.5516 1052.24 43.4878 1047.05 43.7535Z" fill="#F3E4DA" transform="matrix(1 0 0 1.00065 -70.761 167.157)"/><path d="M1062.76 43.9451C1066.09 44.1163 1069.43 44.1163 1072.76 43.9451 1070.62 43.8174 1065.99 43.7854 1062.76 43.9451Z" fill="#F3E4DA" transform="matrix(1 0 0 1.00065 -70.761 167.157)"/><path d="M1091.38 46.1488 1087.71 45.7655 1078.95 45.51 1091.38 46.1488Z" fill="#F3E4DA" transform="matrix(1 0 0 1.00065 -70.761 167.157)"/><path d="M913.618 40.0488 900.076 40.0488C898.671 40.5598 902.344 41.0069 907.422 40.943 910.647 40.7195 915.693 40.6556 913.618 40.0488Z" fill="#F3E4DA" transform="matrix(1 0 0 1.00065 -70.761 167.157)"/><path d="M954.465 45.6058C952.434 45.4101 950.434 44.9482 948.525 44.2325L948.045 46.2126Z" fill="#F3E4DA" transform="matrix(1 0 0 1.00065 -70.761 167.157)"/><path d="M914.959 44.9352C913.586 45.4461 895.254 45.9252 912.404 46.3404 913.809 45.8294 927.382 45.7655 914.959 44.9352Z" fill="#F3E4DA" transform="matrix(1 0 0 1.00065 -70.761 167.157)"/><path d="M710.946 35.8331 714.395 35.897 714.012 32.6395 710.946 35.8331Z" fill="#F3E4DA" transform="matrix(1 0 0 1.00065 -70.761 167.157)"/><path d="M530.886 38.3242C546.855 39.5378 534.751 36.408 549.218 37.7813 553.019 37.1106 537.401 36.6635 541.266 36.1206 531.557 36.5358 526.479 35.9609 530.886 38.3242Z" fill="#F3E4DA" transform="matrix(1 0 0 1.00065 -70.761 167.157)"/><path d="M541.266 35.9928 546.216 35.6096C544.562 35.6537 542.907 35.7814 541.266 35.9928Z" fill="#F3E4DA" transform="matrix(1 0 0 1.00065 -70.761 167.157)"/><path d="M1433.2 165.561 1442.88 161.026 1436.33 163.357 1433.2 165.561Z" fill="#F3E4DA" transform="matrix(1 0 0 1.00065 -70.761 167.157)"/><path d="M1449.68 153.297 1452.87 153.712 1457.21 148.73C1454.85 150.479 1452.33 152.008 1449.68 153.297Z" fill="#F3E4DA" transform="matrix(1 0 0 1.00065 -70.761 167.157)"/><path d="M70.9317 128.099 70.0056 128.099C72.0531 130.181 74.3736 131.975 76.9039 133.432Z" fill="#F3E4DA" transform="matrix(1 0 0 1.00065 -70.761 167.157)"/><path d="M190.184 188.268 187.789 187.98 192.068 190.312 190.184 188.268Z" fill="#F3E4DA" transform="matrix(1 0 0 1.00065 -70.761 167.157)"/><path d="M307.201 197.018C302.442 196.539 296.789 196.476 291.999 195.965 302.442 196.539 308.286 199.446 307.201 197.018Z" fill="#F3E4DA" transform="matrix(1 0 0 1.00065 -70.761 167.157)"/><path d="M562.44 146.143C562.14 146.159 561.849 146.042 561.641 145.824 561.431 145.64 561.313 145.37 561.322 145.089L561.322 120.977C561.306 120.686 561.424 120.404 561.641 120.21 561.859 120.013 562.146 119.91 562.44 119.923L571.67 119.923C574.02 119.844 576.361 120.269 578.536 121.168 580.251 121.956 581.663 123.278 582.56 124.937 583.521 126.857 583.981 128.988 583.901 131.133L583.901 145.089C583.895 145.366 583.78 145.63 583.582 145.824 583.381 146.05 583.084 146.169 582.784 146.143ZM565.474 142.47 579.558 142.47 579.558 131.356C579.692 129.273 579.002 127.221 577.642 125.64 575.898 124.087 573.576 123.345 571.254 123.596L565.314 123.596Z" transform="matrix(1 0 0 1.00065 -70.761 167.157)"/><path d="M591.758 135.476C591.464 135.483 591.18 135.38 590.96 135.189 590.752 134.988 590.637 134.711 590.64 134.422L590.64 120.977C590.637 120.688 590.752 120.411 590.96 120.21 591.18 120.019 591.464 119.916 591.758 119.923L594.025 119.923C594.329 119.905 594.629 120.008 594.856 120.21 595.054 120.415 595.159 120.693 595.143 120.977L595.143 134.422C595.159 134.706 595.054 134.984 594.856 135.189 594.629 135.391 594.329 135.494 594.025 135.476Z" transform="matrix(1 0 0 1.00065 -70.761 167.157)"/><path d="M602.361 146.143C602.061 146.155 601.77 146.039 601.563 145.824 601.371 145.627 601.269 145.363 601.275 145.089L601.275 143.46C601.269 143.187 601.371 142.922 601.563 142.726 601.77 142.511 602.061 142.395 602.361 142.406L615.455 142.406 600.413 121.711 600.093 121.36C600.068 121.223 600.068 121.082 600.093 120.945 600.113 120.699 600.228 120.47 600.413 120.306 600.614 120.147 600.86 120.058 601.115 120.051L603.447 120.051C603.734 120.032 604.022 120.123 604.245 120.306 604.43 120.452 604.59 120.624 604.724 120.817L620.469 142.279C620.632 142.485 620.773 142.71 620.884 142.949 620.987 143.181 621.041 143.431 621.044 143.684L621.044 145.217C621.054 145.498 620.935 145.768 620.725 145.951 620.517 146.17 620.226 146.287 619.926 146.271ZM614.593 135.668 612.453 132.698C613.976 132.213 615.27 131.192 616.094 129.823 616.905 128.326 617.301 126.639 617.244 124.937L617.244 120.977C617.228 120.693 617.333 120.415 617.531 120.21 617.751 120.019 618.036 119.916 618.329 119.923L620.31 119.923C620.613 119.905 620.913 120.008 621.14 120.21 621.338 120.415 621.443 120.693 621.427 120.977L621.427 125.48C621.507 127.734 620.907 129.96 619.703 131.867 618.451 133.647 616.659 134.98 614.593 135.668Z" transform="matrix(1 0 0 1.00065 -70.761 167.157)"/><path d="M634.01 123.691 628.294 123.691C628.006 123.701 627.725 123.611 627.495 123.436 627.278 123.242 627.16 122.96 627.176 122.669L627.176 114.589C627.166 114.299 627.281 114.019 627.495 113.823 627.712 113.626 628 113.523 628.294 113.536L630.306 113.536C630.6 113.529 630.884 113.632 631.104 113.823 631.318 114.019 631.433 114.299 631.424 114.589L631.424 119.923 634.106 119.923ZM634.01 146.558C633.758 146.684 633.464 146.684 633.212 146.558 632.963 146.415 632.816 146.143 632.829 145.856L632.829 143.716C632.81 143.446 632.902 143.181 633.084 142.981 633.295 142.737 633.573 142.559 633.883 142.47L635.767 141.768C636.993 141.305 638.153 140.682 639.216 139.915 640.305 139.089 641.155 137.987 641.675 136.722 642.32 135.12 642.624 133.402 642.569 131.676 642.633 130.054 642.371 128.437 641.803 126.917 641.343 125.777 640.446 124.868 639.312 124.394 637.766 123.849 636.128 123.599 634.489 123.66L633.052 123.66C632.452 123.677 631.954 123.205 631.935 122.606 631.935 122.595 631.935 122.585 631.935 122.574L631.935 120.945C631.931 120.656 632.046 120.379 632.254 120.178 632.474 119.987 632.758 119.885 633.052 119.891L635.192 119.891C637.581 119.792 639.963 120.195 642.186 121.073 643.872 121.832 645.207 123.201 645.923 124.905 646.744 127.12 647.12 129.475 647.041 131.835 647.095 133.73 646.779 135.617 646.114 137.392 645.549 138.863 644.716 140.217 643.655 141.384 642.621 142.466 641.426 143.382 640.11 144.099 638.795 144.819 637.415 145.418 635.99 145.888Z" transform="matrix(1 0 0 1.00065 -70.761 167.157)"/><path d="M653.141 146.143C652.859 146.158 652.588 146.04 652.406 145.824 652.211 145.606 652.119 145.316 652.151 145.025L656.27 122.669C656.315 122.383 656.465 122.122 656.686 121.935 656.951 121.821 657.251 121.821 657.516 121.935L659.432 121.935C659.736 121.96 660.02 122.097 660.231 122.318 660.371 122.577 660.371 122.89 660.231 123.149L656.43 145.217C656.405 145.528 656.254 145.817 656.015 146.015 655.791 146.226 655.491 146.34 655.185 146.335ZM665.34 123.787 653.62 123.787C653.038 123.823 652.54 123.381 652.502 122.8 652.502 122.767 652.502 122.734 652.502 122.701L652.502 121.073C652.486 120.788 652.591 120.511 652.789 120.306 653.016 120.104 653.316 120.001 653.62 120.019L665.851 120.019C667.717 119.985 669.556 120.447 671.185 121.36 672.756 122.239 674.034 123.56 674.858 125.161 675.797 127.042 676.26 129.126 676.199 131.229L676.199 145.185C676.193 145.462 676.078 145.726 675.88 145.919 675.672 146.135 675.381 146.251 675.081 146.239L662.626 146.239C662.326 146.251 662.035 146.135 661.827 145.919 661.629 145.726 661.514 145.462 661.508 145.185L661.508 143.62C661.505 143.332 661.62 143.054 661.827 142.854 662.048 142.662 662.332 142.56 662.626 142.566L671.792 142.566 671.792 131.388C671.817 129.981 671.536 128.585 670.961 127.3 670.444 126.21 669.636 125.282 668.63 124.618 667.649 123.99 666.506 123.667 665.34 123.691Z" transform="matrix(1 0 0 1.00065 -70.761 167.157)"/><path d="M684.439 146.143C684.138 146.159 683.848 146.042 683.64 145.824 683.43 145.64 683.311 145.37 683.321 145.089L683.321 120.977C683.305 120.686 683.423 120.404 683.64 120.21 683.857 120.013 684.145 119.91 684.439 119.923L686.642 119.923C686.946 119.909 687.243 120.011 687.473 120.21 687.658 120.42 687.751 120.697 687.728 120.977L687.728 145.089C687.747 145.359 687.655 145.624 687.473 145.824 687.256 146.044 686.952 146.16 686.642 146.143Z" transform="matrix(1 0 0 1.00065 -70.761 167.157)"/><path d="M695.106 146.143C694.825 146.154 694.556 146.036 694.371 145.824 694.176 145.606 694.084 145.316 694.116 145.025L698.235 122.669C698.28 122.383 698.43 122.122 698.651 121.935 698.916 121.821 699.216 121.821 699.481 121.935L701.397 121.935C701.704 121.947 701.994 122.086 702.196 122.318 702.336 122.577 702.336 122.89 702.196 123.149L698.395 145.217C698.37 145.528 698.219 145.817 697.98 146.015 697.756 146.226 697.456 146.34 697.15 146.335ZM707.305 123.787 695.585 123.787C695.003 123.823 694.505 123.381 694.467 122.8 694.467 122.767 694.467 122.734 694.467 122.701L694.467 121.073C694.451 120.788 694.556 120.511 694.754 120.306 694.981 120.104 695.281 120.001 695.585 120.019L707.816 120.019C709.682 119.985 711.521 120.447 713.15 121.36 714.721 122.239 715.999 123.56 716.823 125.161 717.762 127.042 718.225 129.126 718.164 131.229L718.164 145.185C718.158 145.462 718.043 145.726 717.845 145.919 717.637 146.135 717.346 146.251 717.046 146.239L704.591 146.239C704.291 146.251 704 146.135 703.792 145.919 703.594 145.726 703.479 145.462 703.473 145.185L703.473 143.62C703.47 143.332 703.585 143.054 703.792 142.854 704.013 142.662 704.297 142.56 704.591 142.566L713.757 142.566 713.757 131.388C713.782 129.981 713.501 128.585 712.926 127.3 712.409 126.21 711.601 125.282 710.595 124.618 709.615 123.99 708.471 123.667 707.305 123.691Z" transform="matrix(1 0 0 1.00065 -70.761 167.157)"/><path d="M738.22 146.143C737.92 146.155 737.63 146.039 737.422 145.824 737.211 145.64 737.093 145.37 737.103 145.089L737.103 120.977C737.087 120.686 737.205 120.404 737.422 120.21 737.642 120.019 737.927 119.916 738.22 119.923L747.322 119.923C749.673 119.84 752.017 120.265 754.189 121.168 755.904 121.956 757.315 123.278 758.213 124.937 759.174 126.857 759.634 128.988 759.554 131.133L759.554 145.089C759.561 145.363 759.458 145.627 759.267 145.824 759.05 146.048 758.746 146.164 758.436 146.143ZM741.254 142.47 755.339 142.47 755.339 131.356C755.473 129.273 754.783 127.221 753.422 125.64 751.755 124.153 749.548 123.415 747.322 123.596L741.254 123.596Z" transform="matrix(1 0 0 1.00065 -70.761 167.157)"/><path d="M767.538 135.476C767.245 135.483 766.96 135.38 766.74 135.189 766.542 134.984 766.437 134.706 766.453 134.422L766.453 120.977C766.437 120.693 766.542 120.415 766.74 120.21 766.96 120.019 767.245 119.916 767.538 119.923L769.678 119.923C769.982 119.905 770.282 120.008 770.508 120.21 770.707 120.415 770.812 120.693 770.796 120.977L770.796 134.422C770.812 134.706 770.707 134.984 770.508 135.189 770.282 135.391 769.982 135.494 769.678 135.476Z" transform="matrix(1 0 0 1.00065 -70.761 167.157)"/><path d="M781.974 123.691 781.974 127.268C781.967 128.203 782.121 129.131 782.421 130.015 782.632 130.702 783.191 131.226 783.89 131.388L785.679 131.867C785.94 131.931 786.164 132.106 786.285 132.346 786.445 132.628 786.522 132.949 786.509 133.272L786.509 134.422C786.509 134.76 786.289 135.058 785.966 135.157 785.592 135.27 785.19 135.27 784.816 135.157L782.932 134.805C781.958 134.582 781.051 134.134 780.281 133.496 779.496 132.808 778.917 131.911 778.62 130.909 778.224 129.65 778.039 128.333 778.078 127.013L778.078 120.977C778.062 120.693 778.167 120.415 778.365 120.21 778.579 120.007 778.87 119.902 779.163 119.923L788.106 119.923C790.198 119.853 792.277 120.314 794.142 121.264 795.729 122.154 797.003 123.516 797.783 125.161 798.683 127.079 799.153 129.172 799.156 131.292 799.156 131.771 799.156 132.346 799.156 133.017 799.156 133.688 799.156 134.294 799.156 134.742 799.156 136.852 798.686 138.935 797.783 140.842 797.013 142.502 795.739 143.876 794.142 144.77 792.283 145.746 790.204 146.219 788.106 146.143L779.738 146.143C779.438 146.155 779.147 146.039 778.94 145.824 778.748 145.627 778.646 145.363 778.652 145.089L778.652 143.428C778.636 143.144 778.742 142.866 778.94 142.662 779.16 142.471 779.444 142.368 779.738 142.374L787.85 142.374C789.786 142.51 791.676 141.757 792.992 140.331 794.302 138.713 795.01 136.694 795.004 134.614 795.004 134.135 795.004 133.624 795.004 133.017 795.004 132.41 795.004 131.899 795.004 131.452 795.068 129.374 794.375 127.342 793.056 125.735 791.705 124.321 789.802 123.574 787.85 123.691Z" transform="matrix(1 0 0 1.00065 -70.761 167.157)"/><path d="M806.629 146.143C806.329 146.159 806.038 146.042 805.831 145.824 805.62 145.64 805.502 145.37 805.511 145.089L805.511 120.977C805.495 120.686 805.614 120.404 805.831 120.21 806.048 120.013 806.335 119.91 806.629 119.923L808.897 119.923C809.19 119.902 809.481 120.007 809.695 120.21 809.906 120.407 810.011 120.691 809.982 120.977L809.982 145.089C810.005 145.365 809.899 145.637 809.695 145.824 809.494 146.05 809.197 146.169 808.897 146.143Z" transform="matrix(1 0 0 1.00065 -70.761 167.157)"/><path d="M818.542 146.143C818.241 146.159 817.951 146.042 817.743 145.824 817.532 145.64 817.414 145.37 817.424 145.089L817.424 120.977C817.408 120.686 817.526 120.404 817.743 120.21 817.96 120.013 818.248 119.91 818.542 119.923L827.899 119.923C830.272 119.841 832.635 120.266 834.829 121.168 836.56 121.944 837.985 123.269 838.885 124.937 839.888 126.911 840.361 129.112 840.259 131.324L840.259 145.217C840.252 145.494 840.137 145.758 839.939 145.951 839.732 146.167 839.441 146.283 839.141 146.271L836.969 146.271C836.659 146.292 836.356 146.175 836.139 145.951 835.947 145.755 835.845 145.49 835.851 145.217L835.851 131.484C835.985 129.401 835.296 127.349 833.935 125.767 832.185 124.222 829.87 123.48 827.548 123.723L821.735 123.723 821.735 145.217C821.742 145.49 821.639 145.755 821.448 145.951 821.231 146.175 820.927 146.292 820.617 146.271Z" transform="matrix(1 0 0 1.00065 -70.761 167.157)"/></g></g></g><rect x="488" y="265" width="333" height="69" fill="#F1E0D5"/></g></svg>