<svg viewBox="0 0 429.61 141.39" xmlns="http://www.w3.org/2000/svg" xmlns:xlink="http://www.w3.org/1999/xlink" overflow="hidden"><defs></defs><g id="Layer_2"><g id="Layer_1-2"><path d="M283.37 12.32C398.76 29.85 461.87 59 412.85 98.07 363.83 137.14 243.63 145.22 128.25 127.68 12.87 110.14-28.75 73.28 20.25 34.23 69.25-4.82 168-5.21 283.37 12.32Z" fill="#E6E2DF"/><path d="M11.71 75.88C11.71 113.8 129.71 141.01 238.76 141.01 347.81 141.01 417.9 139.1 417.9 101.19 417.9 63.28 374.6 0.38 265.61 0.38 156.62 0.38 11.71 38 11.71 75.88Z" stroke="#000000" stroke-width="0.75" stroke-miterlimit="10" fill="none"/><path d="M137.44 71C137.438 70.9084 137.47 70.8193 137.53 70.75 137.604 70.6764 137.706 70.6366 137.81 70.64 137.918 70.6338 138.023 70.6738 138.1 70.75 138.16 70.8193 138.192 70.9084 138.19 71 138.193 71.0947 138.161 71.1871 138.1 71.26 138.019 71.3287 137.916 71.3644 137.81 71.36 137.707 71.3629 137.608 71.3272 137.53 71.26 137.469 71.1871 137.437 71.0947 137.44 71ZM138.08 69.92 137.51 69.92 137.51 66.34 138.18 66.34Z"/><path d="M139.47 72.77 139.47 67.83 139 67.83 139 67.32 140.1 67.32 140.1 72.77Z"/><path d="M141.52 71.35 141.52 67.83 141.05 67.83 141.05 67.32 142.16 67.32 142.16 71.32Z"/><path d="M144.19 71.41C144.01 71.4239 143.83 71.4239 143.65 71.41 143.448 71.379 143.247 71.3356 143.05 71.28L143.16 70.8C143.485 70.8939 143.822 70.9443 144.16 70.95 144.47 70.9639 144.773 70.8604 145.01 70.66 145.218 70.4521 145.324 70.1632 145.3 69.87L145.3 67.87 143.2 67.87 143.2 67.36 145.93 67.36 145.93 69.73C145.948 70.0759 145.875 70.4205 145.72 70.73 145.589 70.9817 145.378 71.1823 145.12 71.3 144.823 71.4098 144.504 71.4475 144.19 71.41Z"/><path d="M147.4 71.42 147.06 71.42 146.74 71.36 146.74 70.87C146.906 70.8861 147.074 70.8861 147.24 70.87 147.397 70.883 147.551 70.8242 147.66 70.71 147.764 70.5688 147.814 70.3948 147.8 70.22L147.8 67.83 147 67.83 147 67.32 148.43 67.32 148.43 70.32C148.454 70.6263 148.353 70.9292 148.15 71.16 147.947 71.3464 147.675 71.4405 147.4 71.42Z"/><path d="M152 71.35 152 68.82C152.029 68.5491 151.946 68.2782 151.77 68.07 151.561 67.8881 151.286 67.8012 151.01 67.83L149.55 67.83 149.55 67.32 151.04 67.32C151.474 67.2895 151.903 67.4254 152.24 67.7 152.526 68.0078 152.671 68.4209 152.64 68.84L152.64 71.35ZM149.56 71.35 149.56 70C149.553 69.818 149.573 69.636 149.62 69.46 149.644 69.3512 149.685 69.2467 149.74 69.15L150.25 69.15C150.25 69.25 150.25 69.36 150.19 69.49 150.13 69.62 150.19 69.77 150.19 69.96L150.19 71.37Z"/><path d="M155.54 71.35 155.54 67.35 158.75 67.35 158.75 71.35ZM156.17 70.84 158.17 70.84 158.17 67.84 156.17 67.84Z"/><path d="M160.18 71.35 160.18 67.83 159.72 67.83 159.72 67.32 160.82 67.32 160.82 71.32Z"/><path d="M163.41 71.35 163.41 70.85C163.714 70.8521 164.008 70.7375 164.23 70.53 164.44 70.3067 164.549 70.0062 164.53 69.7L164.53 67.83 162.05 67.83 162.05 67.32 165.17 67.32 165.17 69.69C165.179 69.998 165.103 70.3026 164.95 70.57 164.803 70.8129 164.592 71.0102 164.34 71.14 164.048 71.275 163.731 71.3466 163.41 71.35ZM162.13 72.77 162.13 69.84C162.123 69.6613 162.144 69.4827 162.19 69.31 162.19 69.19 162.27 69.08 162.31 68.99L162.83 68.99C162.8 69.1052 162.777 69.2221 162.76 69.34 162.76 69.46 162.76 69.62 162.76 69.8L162.76 72.8Z"/><path d="M166.37 71.35 166.68 68.79C166.706 68.6062 166.76 68.4275 166.84 68.26 166.909 68.1146 167.008 67.9852 167.13 67.88L167.13 67.88 167.13 67.88 167.13 67.88 166.75 67.97 166.33 68.09 166.18 67.62C166.365 67.5502 166.556 67.4967 166.75 67.46 166.957 67.4088 167.168 67.3721 167.38 67.35 167.576 67.3361 167.774 67.3361 167.97 67.35 168.428 67.3165 168.88 67.4719 169.22 67.78 169.525 68.13 169.68 68.5865 169.65 69.05L169.65 71.45 167.99 71.45 167.99 70.94 168.99 70.94 168.99 68.94C169.012 68.645 168.923 68.3523 168.74 68.12 168.562 67.9239 168.304 67.8206 168.04 67.84 167.826 67.8368 167.623 67.9328 167.49 68.1 167.33 68.2972 167.233 68.5373 167.21 68.79L166.91 71.41Z"/><path d="M170.51 67.83 170.51 66.1 171.15 66.1 171.15 67.32 173.33 67.32 173.33 67.83ZM173.57 67.72 172.1 71.35 171.41 71.35 173.09 67.35 173.57 67.35Z"/><path d="M176.18 71.35 176.18 67.35 179.39 67.35 179.39 71.35ZM176.81 70.84 178.76 70.84 178.76 67.84 176.81 67.84Z"/><path d="M182.27 67.32C182.701 67.2879 183.127 67.4242 183.46 67.7 183.75 68.0176 183.895 68.4414 183.86 68.87L183.86 71.35 183.23 71.35 183.23 68.83C183.255 68.558 183.177 68.2864 183.01 68.07 182.811 67.8985 182.552 67.8123 182.29 67.83L181.72 67.83C181.631 67.9778 181.57 68.1404 181.54 68.31 181.491 68.5029 181.468 68.7011 181.47 68.9L181.47 70.26C181.491 70.5626 181.398 70.8621 181.21 71.1 181.005 71.299 180.725 71.4009 180.44 71.38L180.25 71.38 180.05 71.38 180.05 70.87 180.28 70.87C180.444 70.8879 180.606 70.8287 180.72 70.71 180.82 70.5709 180.866 70.4004 180.85 70.23L180.85 69C180.852 68.7909 180.879 68.5828 180.93 68.38 180.974 68.2002 181.052 68.0304 181.16 67.88L180.4 67.88 180.4 67.37Z"/><path d="M186 71.44C185.775 71.435 185.551 71.4115 185.33 71.37 185.071 71.3185 184.817 71.2449 184.57 71.15L184.72 70.68C184.927 70.7651 185.141 70.832 185.36 70.88 185.545 70.9163 185.732 70.9397 185.92 70.95 186.249 70.9662 186.571 70.8552 186.82 70.64 187.06 70.4126 187.185 70.0895 187.16 69.76L187.16 67.32 187.79 67.32 187.79 69.74C187.805 70.0657 187.725 70.3887 187.56 70.67 187.412 70.9186 187.192 71.1172 186.93 71.24 186.639 71.3763 186.321 71.4446 186 71.44ZM184.79 67.32 185.42 67.32 186.08 70.32C186.103 70.4708 186.143 70.6184 186.2 70.76 186.243 70.8803 186.308 70.992 186.39 71.09L185.89 71.09C185.79 70.9874 185.703 70.8733 185.63 70.75 185.543 70.6124 185.482 70.4598 185.45 70.3Z"/><path d="M188.66 71.38 188.5 71.38 188.5 70.79 188.7 70.79C188.902 70.7855 189.101 70.7341 189.28 70.64 189.442 70.5522 189.58 70.4249 189.68 70.27 189.78 70.1106 189.852 69.9345 189.89 69.75L189.89 67.83 189 67.83 189 67.32 190.53 67.32 190.53 69.4C190.533 69.6085 190.556 69.8161 190.6 70.02L190.88 71.35 190.28 71.35 190 70.22 190 70.22C189.973 70.4264 189.894 70.6225 189.77 70.79 189.523 71.1615 189.106 71.3834 188.66 71.38Z"/><path d="M194.1 71.35 194.1 68.82C194.126 68.5477 194.039 68.2767 193.86 68.07 193.651 67.8881 193.376 67.8012 193.1 67.83L191.64 67.83 191.64 67.32 193.13 67.32C193.564 67.2895 193.993 67.4254 194.33 67.7 194.616 68.0078 194.761 68.4209 194.73 68.84L194.73 71.35ZM191.65 71.35 191.65 70C191.643 69.818 191.663 69.636 191.71 69.46 191.743 69.3542 191.783 69.2506 191.83 69.15L192.35 69.15C192.319 69.2616 192.296 69.3752 192.28 69.49 192.28 69.62 192.28 69.77 192.28 69.96L192.28 71.37Z"/><path d="M198.21 70C198.205 69.8181 198.226 69.6364 198.27 69.46 198.307 69.3238 198.368 69.1952 198.45 69.08 198.557 68.9384 198.674 68.8047 198.8 68.68L199.09 68.38C199.176 68.2882 199.247 68.1836 199.3 68.07 199.449 67.7429 199.411 67.3612 199.2 67.07 199.056 66.9237 198.855 66.8471 198.65 66.86 198.46 66.8592 198.274 66.9188 198.12 67.03 197.954 67.149 197.863 67.3465 197.88 67.55L197.24 67.55C197.243 67.0818 197.515 66.6573 197.94 66.46 198.163 66.3611 198.406 66.3132 198.65 66.32 199.015 66.2973 199.374 66.4195 199.65 66.66 199.897 66.9128 200.027 67.257 200.01 67.61 200.013 67.8066 199.972 68.0013 199.89 68.18 199.806 68.3539 199.698 68.5154 199.57 68.66 199.441 68.8105 199.304 68.954 199.16 69.09 199.04 69.1982 198.95 69.3361 198.9 69.49 198.859 69.6432 198.838 69.8013 198.84 69.96ZM198.21 71.08C198.206 70.9862 198.243 70.8953 198.31 70.83 198.382 70.7531 198.485 70.7126 198.59 70.72 198.695 70.7166 198.796 70.7564 198.87 70.83 198.93 70.8993 198.962 70.9884 198.96 71.08 198.963 71.1747 198.931 71.2671 198.87 71.34 198.792 71.4072 198.693 71.4429 198.59 71.44 198.487 71.4461 198.386 71.41 198.31 71.34 198.207 71.2599 198.156 71.1287 198.18 71Z"/><path d="M201.23 69.57 201.23 67.83 200.49 67.83 200.49 67.32 201.86 67.32 201.86 69.57Z"/><path d="M202.64 71.38 202.48 71.38 202.48 70.79 202.68 70.79C202.886 70.7856 203.087 70.7343 203.27 70.64 203.428 70.5468 203.565 70.4206 203.67 70.27 203.772 70.1122 203.84 69.9352 203.87 69.75L203.87 67.83 203 67.83 203 67.32 204.54 67.32 204.54 69.4C204.54 69.6081 204.56 69.8158 204.6 70.02L204.88 71.35 204.28 71.35 204 70.22 204 70.22C203.968 70.4252 203.889 70.6202 203.77 70.79 203.645 70.9682 203.481 71.1153 203.29 71.22 203.09 71.3271 202.867 71.3821 202.64 71.38Z"/><path d="M205.93 71.35 205.93 67.83 205.46 67.83 205.46 67.32 206.57 67.32 206.57 71.32Z"/><path d="M208.27 71.35 207.73 67.86 207.44 67.86 207.44 67.37 209.44 67.37 209.44 67.88 208.44 67.88 209.01 71.4Z"/><path d="M212.62 71.35 212.62 68.82C212.646 68.5477 212.559 68.2767 212.38 68.07 212.171 67.8881 211.896 67.8012 211.62 67.83L210.16 67.83 210.16 67.32 211.66 67.32C212.091 67.2911 212.516 67.4269 212.85 67.7 213.136 68.0078 213.281 68.4209 213.25 68.84L213.25 71.35ZM210.17 71.35 210.17 70C210.163 69.818 210.183 69.636 210.23 69.46 210.263 69.3542 210.303 69.2506 210.35 69.15L210.87 69.15C210.838 69.2608 210.818 69.3748 210.81 69.49 210.799 69.6465 210.799 69.8035 210.81 69.96L210.81 71.37Z"/><path d="M216.44 69.57 216.44 67.83 215.7 67.83 215.7 67.32 217.07 67.32 217.07 69.57Z"/><path d="M218.43 71.35 218.43 67.83 218 67.83 218 67.32 219.11 67.32 219.11 71.32Z"/><path d="M220 67.83 220 66.1 220.63 66.1 220.63 67.32 222.82 67.32 222.82 67.83ZM223.06 67.72 221.58 71.35 220.9 71.35 222.57 67.35 223 67.35Z"/><path d="M224.21 69.57 224.21 67.83 223.47 67.83 223.47 67.32 224.84 67.32 224.84 69.57Z"/><path d="M225.6 71.35 225.6 70.84 227.79 70.84 228.42 70.84 228.91 70.84 228.91 71.33ZM227.79 71.21 227.79 68.82C227.813 68.5497 227.731 68.2809 227.56 68.07 227.351 67.8881 227.076 67.8012 226.8 67.83L225.8 67.83 225.8 67.32 226.8 67.32C227.231 67.2911 227.656 67.4269 227.99 67.7 228.276 68.0078 228.421 68.4209 228.39 68.84L228.39 71.21Z"/><path d="M232 71.35 232 68.82C232.023 68.5497 231.941 68.2809 231.77 68.07 231.561 67.8881 231.286 67.8012 231.01 67.83L229.55 67.83 229.55 67.32 231.04 67.32C231.471 67.289 231.897 67.4251 232.23 67.7 232.52 68.0061 232.668 68.4194 232.64 68.84L232.64 71.35ZM229.56 71.35 229.56 70C229.556 69.8187 229.572 69.6375 229.61 69.46 229.643 69.3542 229.683 69.2506 229.73 69.15L230.25 69.15C230.223 69.2619 230.203 69.3755 230.19 69.49 230.19 69.62 230.19 69.77 230.19 69.96L230.19 71.37Z"/><path d="M237.2 67.32C237.631 67.2879 238.057 67.4242 238.39 67.7 238.68 68.0176 238.825 68.4414 238.79 68.87L238.79 71.35 238.15 71.35 238.15 68.83C238.175 68.558 238.097 68.2864 237.93 68.07 237.728 67.896 237.466 67.8096 237.2 67.83L236.63 67.83C236.55 67.9816 236.489 68.1429 236.45 68.31 236.41 68.5041 236.39 68.7018 236.39 68.9L236.39 70.26C236.412 70.5644 236.315 70.8654 236.12 71.1 235.917 71.2963 235.641 71.398 235.36 71.38L235.16 71.38 234.97 71.38 234.97 70.87 235.2 70.87C235.363 70.8863 235.525 70.8275 235.64 70.71 235.736 70.5691 235.782 70.4 235.77 70.23L235.77 69C235.772 68.7909 235.799 68.5828 235.85 68.38 235.89 68.1987 235.968 68.0282 236.08 67.88L235.32 67.88 235.32 67.37Z"/><path d="M242.74 71.35 239.83 67.35 240.54 67.35 243.45 71.35ZM239.97 71.35 239.97 69.89C239.955 69.5732 240.028 69.2583 240.18 68.98 240.328 68.7391 240.559 68.5611 240.83 68.48L241.08 68.8C240.748 68.9514 240.547 69.2962 240.58 69.66L240.58 71.35ZM243.47 67.35 242.08 69.78 241.66 69.3 242.75 67.3Z"/><path d="M245.76 71.38 245.6 71.38 245.6 70.79 245.8 70.79C246.006 70.7856 246.207 70.7343 246.39 70.64 246.55 70.5496 246.687 70.4229 246.79 70.27 246.892 70.1122 246.96 69.9352 246.99 69.75L246.99 67.83 246.08 67.83 246.08 67.32 247.62 67.32 247.62 69.4C247.62 69.6081 247.64 69.8158 247.68 70.02L247.96 71.35 247.37 71.35 247.13 70.22 247.13 70.22C247.098 70.4252 247.019 70.6202 246.9 70.79 246.775 70.9682 246.611 71.1153 246.42 71.22 246.217 71.3287 245.99 71.3838 245.76 71.38Z"/><path d="M250.52 71.35 250.52 68.54C250.532 68.3477 250.463 68.1592 250.33 68.02 250.184 67.8912 249.994 67.8232 249.8 67.83L248.45 67.83 248.45 67.32 249.82 67.32C250.185 67.2973 250.544 67.4195 250.82 67.66 251.062 67.907 251.189 68.2446 251.17 68.59L251.17 71.35Z"/><path d="M251.88 67.32 255.1 67.32 255.1 67.83 254.43 67.83 254.43 71.35 253.79 71.35 253.79 67.83 251.88 67.83Z"/><path d="M256.56 67.32 256.56 70.64C256.779 70.7324 257.007 70.8027 257.24 70.85 257.469 70.9041 257.704 70.9309 257.94 70.93 258.236 70.9372 258.531 70.8897 258.81 70.79 259.049 70.7101 259.26 70.5645 259.42 70.37 259.577 70.1635 259.658 69.9093 259.65 69.65L259.65 67.32 260.26 67.32 260.26 69.71C260.267 69.9746 260.205 70.2365 260.08 70.47 259.958 70.6892 259.787 70.8773 259.58 71.02 259.357 71.1682 259.11 71.2764 258.85 71.34 258.562 71.4128 258.267 71.4497 257.97 71.45 257.633 71.447 257.298 71.4067 256.97 71.33 256.625 71.2491 256.29 71.1318 255.97 70.98L255.97 67.32ZM257.56 70.24C257.656 70.1349 257.725 70.0078 257.76 69.87 257.802 69.6931 257.822 69.5118 257.82 69.33L257.82 67.33 258.44 67.33 258.44 69.22C258.442 69.4261 258.415 69.6314 258.36 69.83 258.304 69.9951 258.212 70.1455 258.09 70.27Z"/><path d="M261.16 67.83 261.16 66.1 261.8 66.1 261.8 67.32 264 67.32 264 67.83ZM264.22 67.72 262.75 71.35 262.07 71.35 263.74 67.35 264.22 67.35Z"/><path d="M266.83 71.35 266.83 67.35 270 67.35 270 71.35ZM267.46 70.84 269.46 70.84 269.46 67.84 267.46 67.84Z"/><path d="M271.59 69.57 271.59 67.83 270.85 67.83 270.85 67.32 272.22 67.32 272.22 69.57Z"/><path d="M274 67.32 274 70.64C274.219 70.7324 274.447 70.8027 274.68 70.85 274.909 70.9056 275.144 70.9325 275.38 70.93 275.673 70.9381 275.965 70.8906 276.24 70.79 276.483 70.7128 276.698 70.5669 276.86 70.37 277.017 70.1635 277.098 69.9093 277.09 69.65L277.09 67.32 277.7 67.32 277.7 69.71C277.707 69.9746 277.645 70.2365 277.52 70.47 277.398 70.6892 277.227 70.8773 277.02 71.02 276.797 71.1682 276.55 71.2764 276.29 71.34 276.002 71.4128 275.707 71.4497 275.41 71.45 275.073 71.447 274.738 71.4067 274.41 71.33 274.065 71.2491 273.73 71.1318 273.41 70.98L273.41 67.32ZM275 70.24C275.096 70.1349 275.165 70.0078 275.2 69.87 275.242 69.6931 275.262 69.5118 275.26 69.33L275.26 67.33 275.88 67.33 275.88 69.22C275.884 69.4269 275.854 69.633 275.79 69.83 275.743 69.9967 275.653 70.1483 275.53 70.27Z"/><path d="M280.32 71.42C280.105 71.4176 279.891 71.3975 279.68 71.36 279.453 71.3187 279.229 71.2619 279.01 71.19L279.13 70.71C279.335 70.7756 279.546 70.8225 279.76 70.85 279.939 70.8797 280.119 70.8964 280.3 70.9 280.611 70.9126 280.916 70.8133 281.16 70.62 281.378 70.4135 281.492 70.1197 281.47 69.82L281.47 67.82 279.85 67.82C279.771 67.9711 279.714 68.1327 279.68 68.3 279.633 68.4897 279.609 68.6845 279.61 68.88L279.61 69.18C279.679 69.1937 279.751 69.1937 279.82 69.18L280.14 69.18 280.14 69.73C279.98 69.7413 279.82 69.7413 279.66 69.73 279.541 69.7192 279.424 69.6958 279.31 69.66 279.198 69.6261 279.091 69.5791 278.99 69.52L278.99 69C278.99 68.7736 279.02 68.5483 279.08 68.33 279.122 68.1341 279.2 67.9476 279.31 67.78L278.82 67.78 278.82 67.27 282.11 67.27 282.11 69.7C282.126 70.0481 282.046 70.3939 281.88 70.7 281.732 70.9486 281.512 71.1472 281.25 71.27 280.954 71.3859 280.637 71.4371 280.32 71.42Z"/><path d="M283.34 71.35 283.34 67.35 284.85 67.35C285.284 67.3174 285.714 67.4535 286.05 67.73 286.332 68.0516 286.473 68.4734 286.44 68.9L286.44 71.38 285.81 71.38 285.81 68.83C285.835 68.558 285.757 68.2864 285.59 68.07 285.388 67.896 285.126 67.8096 284.86 67.83L284 67.83 284 71.35Z"/><path d="M287.55 71.35 287.86 68.79C287.881 68.6052 287.935 68.4257 288.02 68.26 288.089 68.1146 288.188 67.9852 288.31 67.88L288.31 67.88 288.31 67.88 287.93 67.97 287.5 68.09 287.36 67.62C287.544 67.548 287.735 67.4944 287.93 67.46 288.137 67.4088 288.348 67.3721 288.56 67.35 288.756 67.3361 288.954 67.3361 289.15 67.35 289.605 67.3169 290.053 67.4724 290.39 67.78 290.699 68.1285 290.857 68.5851 290.83 69.05L290.83 71.45 289.17 71.45 289.17 70.94 290.17 70.94 290.17 68.94C290.191 68.6468 290.105 68.3559 289.93 68.12 289.751 67.9252 289.494 67.8221 289.23 67.84 289.014 67.8396 288.809 67.9348 288.67 68.1 288.513 68.2981 288.419 68.5383 288.4 68.79L288.1 71.41Z"/><path d="M70.8 87.77C70.7974 87.6753 70.8294 87.5829 70.89 87.51 71.0476 87.3627 71.2924 87.3627 71.45 87.51 71.5179 87.5791 71.5541 87.6732 71.55 87.77 71.5537 87.8638 71.5174 87.9547 71.45 88.02 71.2874 88.1541 71.0526 88.1541 70.89 88.02 70.8301 87.9507 70.798 87.8616 70.8 87.77ZM71.44 86.68 70.87 86.68 70.82 83.11 71.49 83.11Z"/><path d="M75.59 86C75.6078 86.4381 75.5433 86.8756 75.4 87.29 75.3068 87.5764 75.1156 87.8207 74.86 87.98 74.3419 88.2591 73.7181 88.2591 73.2 87.98 72.944 87.8187 72.7502 87.5755 72.65 87.29 72.4978 86.8777 72.4298 86.439 72.45 86L72.45 85.2C72.4322 84.7619 72.4967 84.3244 72.64 83.91 72.7406 83.6299 72.9349 83.3932 73.19 83.24 73.4355 83.0931 73.7141 83.0106 74 83 74.2924 82.995 74.5813 83.0638 74.84 83.2 75.0898 83.3567 75.2799 83.5926 75.38 83.87 75.5233 84.2844 75.5878 84.7219 75.57 85.16ZM75 85.09C75.0096 84.7868 74.976 84.4837 74.9 84.19 74.8446 83.9984 74.7331 83.8278 74.58 83.7 74.431 83.5954 74.2518 83.5427 74.07 83.55 73.8883 83.5442 73.7096 83.5968 73.56 83.7 73.4105 83.8291 73.3027 83.9996 73.25 84.19 73.1652 84.4821 73.1281 84.786 73.14 85.09L73.14 86.09C73.1289 86.3972 73.166 86.7043 73.25 87 73.3017 87.1988 73.4135 87.3769 73.57 87.51 73.8718 87.715 74.2682 87.715 74.57 87.51 74.7228 87.3755 74.831 87.1976 74.88 87 74.9552 86.7027 74.9888 86.3965 74.98 86.09Z"/><path d="M77.79 86.22 76.12 86.22 76.12 85.71 77.79 85.71Z"/><path d="M78.51 88.08 78.81 85.52C78.8477 85.3384 78.9117 85.1632 79 85 79.0725 84.8566 79.1708 84.7278 79.29 84.62L79.29 84.62 79.29 84.62C79.1615 84.6372 79.0345 84.6639 78.91 84.7 78.7642 84.7345 78.6206 84.778 78.48 84.83L78.33 84.35C78.5195 84.2836 78.7133 84.2301 78.91 84.19 79.1147 84.1428 79.3216 84.1061 79.53 84.08 79.7298 84.0658 79.9303 84.0658 80.13 84.08 80.5841 84.0527 81.0303 84.2074 81.37 84.51 81.6782 84.8583 81.8332 85.3161 81.8 85.78L81.8 88.18 80.18 88.18 80.18 87.67 81.18 87.67 81.18 85.67C81.2006 85.3768 81.1154 85.0859 80.94 84.85 80.7533 84.6619 80.4945 84.5635 80.23 84.58 80.0183 84.5759 79.8161 84.6678 79.68 84.83 79.5195 85.0258 79.425 85.2673 79.41 85.52L79.1 88.14Z"/><path d="M84.71 88.08 84.71 84.08 87.93 84.08 87.93 88.08ZM85.35 87.57 87.29 87.57 87.29 84.57 85.35 84.57Z"/><path d="M88.83 84.57 88.83 82.83 89.46 82.83 89.46 84.06 91.65 84.06 91.65 84.57ZM91.89 84.46 90.41 88.08 89.73 88.08 91.4 84.08 91.89 84.08Z"/><path d="M93.37 84.06 93.37 87.37C93.5944 87.4598 93.825 87.5333 94.06 87.59 94.2867 87.6402 94.5179 87.667 94.75 87.67 95.0459 87.674 95.3403 87.6266 95.62 87.53 95.8624 87.4466 96.0769 87.2978 96.24 87.1 96.3942 86.8926 96.472 86.6382 96.46 86.38L96.46 84.06 97.08 84.06 97.08 86.44C97.0858 86.7077 97.0239 86.9726 96.9 87.21 96.7773 87.4262 96.6061 87.611 96.4 87.75 96.1783 87.9004 95.9309 88.0089 95.67 88.07 95.3823 88.1428 95.0867 88.1797 94.79 88.18 94.4533 88.177 94.1179 88.1367 93.79 88.06 93.444 87.9833 93.1083 87.8658 92.79 87.71L92.79 84.06ZM94.37 86.97C94.4665 86.8667 94.5323 86.7386 94.56 86.6 94.6117 86.4248 94.6353 86.2426 94.63 86.06L94.63 84.06 95.25 84.06 95.25 86C95.2542 86.2037 95.2237 86.4065 95.16 86.6 95.1129 86.7667 95.0233 86.9183 94.9 87.04Z"/><path d="M98.51 88.08 98.51 84.57 98 84.57 98 84.06 99.1 84.06 99.1 88.06Z"/><path d="M100.35 88.08 100.65 85.52C100.676 85.3349 100.734 85.1557 100.82 84.99 100.885 84.8418 100.984 84.7114 101.11 84.61L101.11 84.61 101.11 84.61 101.11 84.61C100.982 84.6272 100.855 84.6539 100.73 84.69 100.584 84.7245 100.441 84.768 100.3 84.82L100.15 84.34C100.339 84.2736 100.533 84.2201 100.73 84.18 100.935 84.1328 101.142 84.0961 101.35 84.07 101.55 84.0558 101.75 84.0558 101.95 84.07 102.404 84.0427 102.85 84.1974 103.19 84.5 103.498 84.8483 103.653 85.3061 103.62 85.77L103.62 88.17 102 88.17 102 87.66 103 87.66 103 85.66C103.021 85.3668 102.935 85.0759 102.76 84.84 102.573 84.6519 102.315 84.5535 102.05 84.57 101.838 84.5659 101.636 84.6578 101.5 84.82 101.339 85.0158 101.245 85.2573 101.23 85.51L101 88.08Z"/><path d="M107.16 88.08 107.16 85.56C107.183 85.2867 107.1 85.0149 106.93 84.8 106.719 84.6217 106.444 84.5385 106.17 84.57L104.71 84.57 104.71 84.06 106.2 84.06C106.631 84.0258 107.058 84.1623 107.39 84.44 107.681 84.741 107.831 85.1521 107.8 85.57L107.8 88.08ZM104.71 88.08 104.71 86.71C104.704 86.5281 104.724 86.3462 104.77 86.17 104.803 86.0642 104.843 85.9606 104.89 85.86L105.41 85.86C105.379 85.971 105.359 86.0849 105.35 86.2 105.35 86.33 105.35 86.48 105.35 86.67L105.35 88.08Z"/><path d="M112 88.08 112 87.58C112.3 87.5832 112.589 87.4724 112.81 87.27 113.026 87.0497 113.139 86.7481 113.12 86.44L113.12 84.57 110.64 84.57 110.64 84.06 113.76 84.06 113.76 86.42C113.764 86.7275 113.689 87.0308 113.54 87.3 113.395 87.5479 113.179 87.7465 112.92 87.87 112.632 88.006 112.318 88.0777 112 88.08ZM110.71 89.51 110.71 86.57C110.704 86.3914 110.724 86.2128 110.77 86.04 110.77 85.92 110.85 85.82 110.89 85.73L111.41 85.73C111.378 85.8408 111.358 85.9548 111.35 86.07 111.35 86.2 111.35 86.35 111.35 86.53L111.35 89.53Z"/><path d="M115.33 86.3 115.33 84.57 114.59 84.57 114.59 84.06 116 84.06 116 86.3Z"/><path d="M117.37 88.15C117.26 88.1599 117.15 88.1599 117.04 88.15L116.72 88.15 116.72 87.65C116.886 87.6668 117.054 87.6668 117.22 87.65 117.376 87.6564 117.528 87.5986 117.64 87.49 117.742 87.3442 117.792 87.1678 117.78 86.99L117.78 84.59 117 84.59 117 84.08 118.42 84.08 118.42 87.08C118.442 87.3844 118.345 87.6854 118.15 87.92 117.934 88.1037 117.651 88.1873 117.37 88.15Z"/><path d="M121 88.08 121 87.58C121.3 87.5832 121.589 87.4724 121.81 87.27 122.026 87.0497 122.139 86.7481 122.12 86.44L122.12 84.57 119.63 84.57 119.63 84.06 122.76 84.06 122.76 86.42C122.764 86.7275 122.689 87.0308 122.54 87.3 122.395 87.5479 122.179 87.7465 121.92 87.87 121.632 88.006 121.318 88.0777 121 88.08ZM119.71 89.51 119.71 86.57C119.704 86.3914 119.724 86.2128 119.77 86.04 119.77 85.92 119.85 85.82 119.89 85.73L120.41 85.73C120.378 85.8408 120.358 85.9548 120.35 86.07 120.35 86.2 120.35 86.35 120.35 86.53L120.35 89.53Z"/><path d="M124.33 86.3 124.33 84.57 123.59 84.57 123.59 84.06 125 84.06 125 86.3Z"/><path d="M127.51 88.15C127.295 88.1481 127.081 88.128 126.87 88.09 126.641 88.0582 126.416 88.0012 126.2 87.92L126.32 87.45C126.523 87.5098 126.731 87.5565 126.94 87.59 127.123 87.6031 127.307 87.6031 127.49 87.59 127.802 87.6073 128.108 87.5074 128.35 87.31 128.562 87.1039 128.672 86.8147 128.65 86.52L128.65 84.52 127 84.52C126.919 84.6668 126.862 84.8254 126.83 84.99 126.783 85.1797 126.759 85.3745 126.76 85.57L126.76 85.88C126.826 85.8924 126.894 85.8924 126.96 85.88L127.29 85.88 127.29 86.42 126.81 86.42C126.691 86.4062 126.573 86.3794 126.46 86.34 126.35 86.3053 126.243 86.2618 126.14 86.21L126.14 85.69C126.141 85.4611 126.168 85.233 126.22 85.01 126.268 84.8173 126.349 84.6345 126.46 84.47L126 84.47 126 83.96 129.29 83.96 129.29 86.34C129.31 86.6884 129.23 87.0352 129.06 87.34 128.917 87.5933 128.696 87.7934 128.43 87.91 128.144 88.0555 127.83 88.1374 127.51 88.15Z"/><path d="M132.87 88.08 132.87 85.56C132.962 85.0996 132.663 84.6519 132.203 84.56 132.093 84.5381 131.98 84.5381 131.87 84.56L130.41 84.56 130.41 84.05 131.9 84.05C132.334 84.0142 132.765 84.1507 133.1 84.43 133.388 84.7327 133.533 85.1436 133.5 85.56L133.5 88.07ZM130.42 88.08 130.42 86.71C130.414 86.5281 130.434 86.3462 130.48 86.17 130.504 86.0612 130.545 85.9567 130.6 85.86L131.12 85.86C131.09 85.9718 131.067 86.0854 131.05 86.2 131.05 86.33 131.05 86.48 131.05 86.67L131.05 88.08Z"/><path d="M138 84.06C138.432 84.0225 138.86 84.1593 139.19 84.44 139.482 84.7526 139.627 85.1741 139.59 85.6L139.59 88.08 139 88.08 139 85.56C139.025 85.288 138.947 85.0164 138.78 84.8 138.579 84.6321 138.321 84.5495 138.06 84.57L137.49 84.57C137.401 84.7141 137.34 84.8735 137.31 85.04 137.261 85.2329 137.238 85.4311 137.24 85.63L137.24 87C137.262 87.3044 137.165 87.6054 136.97 87.84 136.769 88.04 136.493 88.1454 136.21 88.13L136 88.13 135.81 88.13 135.81 87.62 136 87.62C136.161 87.6348 136.321 87.5803 136.44 87.47 136.54 87.3271 136.586 87.1535 136.57 86.98L136.57 85.68C136.572 85.4742 136.599 85.2694 136.65 85.07 136.688 84.888 136.766 84.717 136.88 84.57L136.12 84.57 136.12 84.06Z"/><path d="M143.57 88.08 140.65 84.08 141.36 84.08 144.27 88.08ZM140.79 88.08 140.79 86.62C140.776 86.3032 140.849 85.9887 141 85.71 141.157 85.4771 141.385 85.3015 141.65 85.21L141.9 85.54C141.569 85.6922 141.372 86.038 141.41 86.4L141.41 88.08ZM144.29 84.08 142.9 86.51 142.48 86.02 143.58 84.08Z"/><path d="M147.12 89.51 147.12 84.57 146.65 84.57 146.65 84.06 147.75 84.06 147.75 89.51Z"/><path d="M149.23 88.15C149.117 88.1603 149.003 88.1603 148.89 88.15L148.57 88.15 148.57 87.65C148.736 87.6663 148.904 87.6663 149.07 87.65 149.226 87.6577 149.378 87.5996 149.49 87.49 149.592 87.3442 149.642 87.1678 149.63 86.99L149.63 84.59 148.84 84.59 148.84 84.08 150.27 84.08 150.27 87.08C150.294 87.3863 150.193 87.6892 149.99 87.92 149.779 88.0983 149.504 88.1815 149.23 88.15Z"/><path d="M152.32 88.14C152.14 88.1542 151.96 88.1542 151.78 88.14 151.577 88.1054 151.377 88.0586 151.18 88L151.28 87.53C151.605 87.6245 151.942 87.6716 152.28 87.67 152.589 87.6877 152.892 87.5876 153.13 87.39 153.331 87.1773 153.435 86.8919 153.42 86.6L153.42 84.6 151.32 84.6 151.32 84.09 154.05 84.09 154.05 86.45C154.068 86.7959 153.995 87.1405 153.84 87.45 153.703 87.6969 153.494 87.8959 153.24 88.02 152.945 88.1252 152.632 88.1662 152.32 88.14Z"/><path d="M156.93 84.06C157.364 84.0242 157.795 84.1607 158.13 84.44 158.414 84.7568 158.555 85.1762 158.52 85.6L158.52 88.08 157.89 88.08 157.89 85.56C157.915 85.288 157.837 85.0164 157.67 84.8 157.469 84.6321 157.211 84.5495 156.95 84.57L156.38 84.57C156.291 84.7141 156.23 84.8735 156.2 85.04 156.151 85.2329 156.128 85.4311 156.13 85.63L156.13 87C156.151 87.3026 156.058 87.6021 155.87 87.84 155.667 88.0427 155.386 88.1483 155.1 88.13L154.91 88.13 154.71 88.13 154.71 87.62 154.95 87.62C155.108 87.6345 155.265 87.5798 155.38 87.47 155.48 87.3271 155.526 87.1535 155.51 86.98L155.51 85.68C155.512 85.4742 155.539 85.2694 155.59 85.07 155.632 84.8895 155.71 84.7194 155.82 84.57L155.06 84.57 155.06 84.06Z"/><path d="M159.32 84.57 159.32 82.83 160 82.83 160 84.06 162.18 84.06 162.18 84.57ZM162.38 84.46 160.91 88.08 160.23 88.08 161.9 84.08 162.38 84.08Z"/><path d="M165 88.08 165 84.08 168.21 84.08 168.21 88.08ZM165.63 87.57 167.58 87.57 167.58 84.57 165.63 84.57Z"/><path d="M170.23 88.14C170.05 88.1542 169.87 88.1542 169.69 88.14 169.49 88.1065 169.293 88.0597 169.1 88L169.2 87.53C169.525 87.6253 169.862 87.6725 170.2 87.67 170.509 87.6887 170.813 87.5885 171.05 87.39 171.251 87.1773 171.355 86.8919 171.34 86.6L171.34 84.6 169.25 84.6 169.25 84.09 172 84.09 172 86.45C172.018 86.7959 171.945 87.1405 171.79 87.45 171.653 87.6969 171.444 87.8959 171.19 88.02 170.883 88.1321 170.555 88.1731 170.23 88.14Z"/><path d="M172.87 84.57 172.87 82.83 173.5 82.83 173.5 84.06 175.69 84.06 175.69 84.57ZM175.87 84.46 174.4 88.08 173.72 88.08 175.39 84.08 175.87 84.08Z"/><path d="M180.19 88.08 180.19 85.27C180.202 85.0808 180.133 84.8955 180 84.76 179.858 84.6253 179.665 84.5564 179.47 84.57L178.12 84.57 178.12 84.06 179.49 84.06C179.854 84.0324 180.214 84.1512 180.49 84.39 180.739 84.6331 180.871 84.9725 180.85 85.32L180.85 88.08Z"/><path d="M182.16 88.08 182.16 84.57 181.69 84.57 181.69 84.06 182.79 84.06 182.79 88.06Z"/><path d="M184.5 88.08 184 84.59 183.71 84.59 183.71 84.1 185.71 84.1 185.71 84.61 184.71 84.61 185.28 88.12Z"/><path d="M187.53 88.17C187.302 88.17 187.074 88.1465 186.85 88.1 186.594 88.0554 186.342 87.985 186.1 87.89L186.25 87.41C186.457 87.4951 186.671 87.562 186.89 87.61 187.074 87.6509 187.262 87.6743 187.45 87.68 187.777 87.695 188.098 87.5881 188.35 87.38 188.584 87.145 188.708 86.8215 188.69 86.49L188.69 84.06 189.32 84.06 189.32 86.47C189.33 86.7952 189.25 87.1168 189.09 87.4 188.942 87.6486 188.722 87.8472 188.46 87.97 188.169 88.1063 187.851 88.1746 187.53 88.17ZM186.32 84.06 187 84.06 187.65 87.06C187.682 87.2066 187.725 87.3504 187.78 87.49 187.824 87.608 187.885 87.7191 187.96 87.82L187.47 87.82C187.37 87.7216 187.282 87.6107 187.21 87.49 187.111 87.3408 187.04 87.1748 187 87Z"/><path d="M190.22 84.57 190.22 82.83 190.85 82.83 190.85 84.06 193 84.06 193 84.57ZM193.28 84.46 191.8 88.08 191.12 88.08 192.8 84.08 193.28 84.08Z"/><path d="M196.2 86.3 196.2 84.57 195.46 84.57 195.46 84.06 196.83 84.06 196.83 86.3Z"/><path d="M197.59 84.06 200.81 84.06 200.81 84.57 200.14 84.57 200.14 88.08 199.5 88.08 199.5 84.57 197.59 84.57Z"/><path d="M202.45 88.14C202.267 88.1545 202.083 88.1545 201.9 88.14 201.7 88.1065 201.503 88.0597 201.31 88L201.41 87.53C201.735 87.6253 202.072 87.6725 202.41 87.67 202.719 87.6887 203.023 87.5885 203.26 87.39 203.468 87.1821 203.574 86.8932 203.55 86.6L203.55 84.6 201.46 84.6 201.46 84.09 204.18 84.09 204.18 86.45C204.198 86.7959 204.125 87.1405 203.97 87.45 203.833 87.6969 203.624 87.8959 203.37 88.02 203.076 88.1268 202.762 88.1678 202.45 88.14Z"/><path d="M207.3 89.51 207.3 84.57 206.82 84.57 206.82 84.06 207.92 84.06 207.92 89.51Z"/><path d="M212 88.08 209.08 84.08 209.79 84.08 212.71 88.08ZM209.23 88.08 209.23 86.62C209.218 86.3046 209.287 85.9915 209.43 85.71 209.587 85.4771 209.815 85.3015 210.08 85.21L210.33 85.54C210.002 85.6945 209.805 86.0387 209.84 86.4L209.84 88.08ZM212.73 84.08 211.34 86.51 210.9 86 212 84.06Z"/><path d="M214.45 88.14C214.27 88.1542 214.09 88.1542 213.91 88.14 213.707 88.1054 213.507 88.0586 213.31 88L213.41 87.53C213.735 87.6248 214.072 87.6719 214.41 87.67 214.722 87.6893 215.029 87.5892 215.27 87.39 215.471 87.1773 215.575 86.8919 215.56 86.6L215.56 84.6 213.46 84.6 213.46 84.09 216.19 84.09 216.19 86.45C216.208 86.7959 216.135 87.1405 215.98 87.45 215.841 87.695 215.632 87.8933 215.38 88.02 215.082 88.1267 214.765 88.1676 214.45 88.14Z"/><path d="M219.34 88.08 219.34 84.57 218.87 84.57 218.87 84.06 220 84.06 220 88.06Z"/><path d="M221.46 88.15C221.347 88.1603 221.233 88.1603 221.12 88.15L220.8 88.15 220.8 87.65C220.966 87.6668 221.134 87.6668 221.3 87.65 221.456 87.6564 221.608 87.5986 221.72 87.49 221.822 87.3442 221.872 87.1678 221.86 86.99L221.86 84.59 221.07 84.59 221.07 84.08 222.5 84.08 222.5 87.08C222.519 87.3857 222.419 87.687 222.22 87.92 222.009 88.0983 221.734 88.1815 221.46 88.15Z"/><path d="M223.75 88.08 223.75 84.08 225.26 84.08C225.692 84.0425 226.12 84.1793 226.45 84.46 226.742 84.7726 226.887 85.1941 226.85 85.62L226.85 88.1 226.22 88.1 226.22 85.56C226.243 85.2867 226.16 85.0149 225.99 84.8 225.789 84.6321 225.531 84.5495 225.27 84.57L224.38 84.57 224.38 88.08Z"/><path d="M228.24 88.15C228.13 88.1606 228.02 88.1606 227.91 88.15L227.59 88.15 227.59 87.65C227.756 87.6663 227.924 87.6663 228.09 87.65 228.247 87.6602 228.4 87.6018 228.51 87.49 228.616 87.3461 228.666 87.1682 228.65 86.99L228.65 84.59 227.86 84.59 227.86 84.08 229.29 84.08 229.29 87.08C229.312 87.3844 229.215 87.6854 229.02 87.92 228.804 88.1037 228.521 88.1873 228.24 88.15Z"/><path d="M233.36 88.08 230.44 84.08 231.15 84.08 234.06 88.08ZM230.58 88.08 230.58 86.62C230.566 86.3032 230.639 85.9887 230.79 85.71 230.947 85.4771 231.175 85.3015 231.44 85.21L231.69 85.54C231.359 85.6922 231.162 86.038 231.2 86.4L231.2 88.08ZM234.08 84.08 232.69 86.51 232.27 86.02 233.37 84.08Z"/><path d="M237.94 86.22 236.27 86.22 236.27 85.71 237.94 85.71Z"/><path d="M238.85 89.51 238.85 84.57 238.37 84.57 238.37 84.06 239.47 84.06 239.47 89.51Z"/><path d="M241 86.3 241 84.57 240.26 84.57 240.26 84.06 241.63 84.06 241.63 86.3Z"/><path d="M245.64 88.08 242.72 84.08 243.43 84.08 246.35 88.08ZM242.87 88.08 242.87 86.62C242.858 86.3046 242.927 85.9915 243.07 85.71 243.227 85.4771 243.455 85.3015 243.72 85.21L243.97 85.54C243.642 85.6945 243.445 86.0387 243.48 86.4L243.48 88.08ZM246.37 84.08 245 86.49 244.58 86 245.67 84.06Z"/><path d="M247.5 88.08 247.5 84.57 247 84.57 247 84.06 248.1 84.06 248.1 88.06Z"/><path d="M250 84.06 250 87.37C250.224 87.4598 250.455 87.5333 250.69 87.59 250.917 87.6402 251.148 87.667 251.38 87.67 251.676 87.6722 251.97 87.6249 252.25 87.53 252.492 87.4466 252.707 87.2978 252.87 87.1 253.024 86.8926 253.102 86.6382 253.09 86.38L253.09 84.06 253.71 84.06 253.71 86.44C253.716 86.7077 253.654 86.9726 253.53 87.21 253.407 87.4262 253.236 87.611 253.03 87.75 252.808 87.9004 252.561 88.0089 252.3 88.07 252.009 88.1434 251.71 88.1804 251.41 88.18 251.073 88.1771 250.738 88.1369 250.41 88.06 250.064 87.9849 249.728 87.8673 249.41 87.71L249.41 84.06ZM251 87C251.097 86.8967 251.162 86.7686 251.19 86.63 251.242 86.4548 251.265 86.2726 251.26 86.09L251.26 84.09 251.87 84.09 251.87 86C251.877 86.2031 251.85 86.4059 251.79 86.6 251.743 86.7667 251.653 86.9183 251.53 87.04Z"/><path d="M255.24 86.3 255.24 84.57 254.5 84.57 254.5 84.06 255.88 84.06 255.88 86.3Z"/><path d="M257.29 88.15C257.177 88.1603 257.063 88.1603 256.95 88.15L256.63 88.15 256.63 87.65C256.796 87.6668 256.964 87.6668 257.13 87.65 257.286 87.6564 257.438 87.5986 257.55 87.49 257.652 87.3442 257.702 87.1678 257.69 86.99L257.69 84.59 256.9 84.59 256.9 84.08 258.33 84.08 258.33 87.08C258.349 87.3857 258.249 87.687 258.05 87.92 257.839 88.0983 257.564 88.1815 257.29 88.15Z"/><path d="M261.32 88.08 261.32 84.08 264.53 84.08 264.53 88.08ZM261.95 87.57 263.9 87.57 263.9 84.57 262 84.57Z"/><path d="M266 88.08 266 84.57 265.53 84.57 265.53 84.06 266.63 84.06 266.63 88.06Z"/><path d="M268.14 86.3 268.14 84.57 267.4 84.57 267.4 84.06 268.77 84.06 268.77 86.3Z"/><path d="M271.87 88.08 271.87 84.57 271.4 84.57 271.4 84.06 272.51 84.06 272.51 88.06Z"/><path d="M276.56 88.08 273.64 84.08 274.36 84.08 277.27 88.08ZM273.79 88.08 273.79 86.62C273.776 86.3032 273.849 85.9887 274 85.71 274.154 85.4744 274.383 85.2981 274.65 85.21L274.9 85.54C274.565 85.689 274.364 86.0356 274.4 86.4L274.4 88.08ZM277.29 84.08 275.9 86.51 275.48 86.02 276.57 84.08Z"/><path d="M280.12 89.51 280.12 84.57 279.65 84.57 279.65 84.06 280.75 84.06 280.75 89.51Z"/><path d="M282.18 88.08 282.18 84.57 281.71 84.57 281.71 84.06 282.81 84.06 282.81 88.06Z"/><path d="M284.66 84.06 284.66 87.37C284.884 87.4598 285.115 87.5333 285.35 87.59 285.577 87.6402 285.808 87.667 286.04 87.67 286.336 87.674 286.63 87.6266 286.91 87.53 287.152 87.4466 287.367 87.2978 287.53 87.1 287.684 86.8926 287.762 86.6382 287.75 86.38L287.75 84.06 288.37 84.06 288.37 86.44C288.376 86.7077 288.314 86.9726 288.19 87.21 288.067 87.4262 287.896 87.611 287.69 87.75 287.468 87.9004 287.221 88.0089 286.96 88.07 286.672 88.1428 286.377 88.1797 286.08 88.18 285.743 88.177 285.408 88.1367 285.08 88.06 284.734 87.9833 284.398 87.8658 284.08 87.71L284.08 84.06ZM285.66 86.97C285.756 86.8649 285.825 86.7378 285.86 86.6 285.903 86.4233 285.923 86.2418 285.92 86.06L285.92 84.06 286.54 84.06 286.54 86C286.544 86.2037 286.514 86.4065 286.45 86.6 286.403 86.7667 286.313 86.9183 286.19 87.04Z"/><path d="M292.43 88.08 289.51 84.08 290.22 84.08 293.13 88.08ZM289.65 88.08 289.65 86.62C289.636 86.3032 289.709 85.9887 289.86 85.71 290.014 85.4744 290.243 85.2981 290.51 85.21L290.76 85.54C290.429 85.6922 290.232 86.038 290.27 86.4L290.27 88.08ZM293.15 84.08 291.76 86.51 291.34 86.02 292.44 84.08Z"/><path d="M295.76 88.08 295.76 85.27C295.767 85.0815 295.699 84.898 295.57 84.76 295.426 84.6273 295.235 84.5588 295.04 84.57L293.68 84.57 293.68 84.06 295.06 84.06C295.424 84.0335 295.783 84.1521 296.06 84.39 296.302 84.637 296.429 84.9746 296.41 85.32L296.41 88.08Z"/><path d="M300.88 88.16C300.578 88.1811 300.275 88.1261 300 88 299.766 87.863 299.573 87.6663 299.44 87.43 299.303 87.1681 299.234 86.8757 299.24 86.58L299.24 84.06 299.87 84.06 299.87 86.59C299.858 86.8718 299.955 87.1474 300.14 87.36 300.53 87.7477 301.16 87.7477 301.55 87.36 301.735 87.1474 301.832 86.8718 301.82 86.59L301.82 85.24C301.831 85.0577 301.778 84.8772 301.67 84.73 301.569 84.6087 301.417 84.542 301.26 84.55 301.181 84.5356 301.099 84.5356 301.02 84.55 300.933 84.5694 300.849 84.5996 300.77 84.64L300.67 84.22C300.783 84.1403 300.908 84.0795 301.04 84.04 301.17 84.0013 301.305 83.9811 301.44 83.98 301.721 83.9632 301.995 84.0776 302.18 84.29 302.372 84.534 302.468 84.84 302.45 85.15L302.45 86.5C302.456 86.7957 302.387 87.0881 302.25 87.35 302.12 87.5884 301.926 87.7858 301.69 87.92 301.444 88.0653 301.166 88.1478 300.88 88.16Z"/><path d="M303.89 86.3 303.89 84.57 303.16 84.57 303.16 84.06 304.53 84.06 304.53 86.3Z"/><path d="M306 86.3 306 84.57 305.26 84.57 305.26 84.06 306.63 84.06 306.63 86.3Z"/><path d="M307.4 84.06 310.62 84.06 310.62 84.57 310 84.57 310 88.08 309.36 88.08 309.36 84.57 307.4 84.57Z"/><path d="M315.53 88.08 315.53 85.56C315.629 85.1068 315.342 84.6591 314.889 84.56 314.771 84.5342 314.648 84.5342 314.53 84.56L313.07 84.56 313.07 84.05 314.56 84.05C314.994 84.0142 315.425 84.1507 315.76 84.43 316.048 84.7327 316.193 85.1436 316.16 85.56L316.16 88.07ZM313.09 88.08 313.09 86.71C313.084 86.5281 313.104 86.3462 313.15 86.17 313.174 86.0612 313.215 85.9567 313.27 85.86L313.78 85.86C313.78 85.96 313.78 86.08 313.72 86.2 313.66 86.32 313.72 86.48 313.72 86.67L313.72 88.08Z"/><path d="M317.78 88.08 317.23 84.59 316.95 84.59 316.95 84.1 318.95 84.1 318.95 84.61 317.95 84.61 318.52 88.12Z"/><path d="M321.52 88.08 321.52 84.08 324.73 84.08 324.73 88.08ZM322.15 87.57 324.15 87.57 324.15 84.57 322.15 84.57Z"/><path d="M328.79 88.08 325.87 84.08 326.58 84.08 329.49 88.08ZM326.01 88.08 326.01 86.62C325.996 86.3032 326.069 85.9887 326.22 85.71 326.377 85.4771 326.605 85.3015 326.87 85.21L327.12 85.54C326.789 85.6922 326.592 86.038 326.63 86.4L326.63 88.08ZM329.51 84.08 328.12 86.51 327.7 86 328.8 84.06Z"/><path d="M334.54 88.08 334.54 85.56C334.632 85.0996 334.333 84.6519 333.873 84.56 333.763 84.5381 333.65 84.5381 333.54 84.56L332.08 84.56 332.08 84.05 333.57 84.05C334.004 84.0142 334.435 84.1507 334.77 84.43 335.058 84.7327 335.203 85.1436 335.17 85.56L335.17 88.07ZM332.09 88.08 332.09 86.71C332.084 86.5281 332.104 86.3462 332.15 86.17 332.183 86.0642 332.223 85.9606 332.27 85.86L332.79 85.86C332.76 85.9718 332.737 86.0854 332.72 86.2 332.72 86.33 332.72 86.48 332.72 86.67L332.72 88.08Z"/><path d="M336.55 88.15C336.437 88.1603 336.323 88.1603 336.21 88.15L335.9 88.15 335.9 87.65C336.066 87.6663 336.234 87.6663 336.4 87.65 336.557 87.6602 336.71 87.6018 336.82 87.49 336.938 87.3544 337.002 87.1799 337 87L337 84.6 336.21 84.6 336.21 84.09 337.64 84.09 337.64 87.09C337.664 87.3963 337.563 87.6992 337.36 87.93 337.135 88.1186 336.839 88.199 336.55 88.15Z"/><path d="M339.46 84.06 339.46 87.37C339.684 87.4598 339.915 87.5333 340.15 87.59 340.377 87.6402 340.608 87.667 340.84 87.67 341.136 87.6722 341.43 87.6249 341.71 87.53 341.951 87.4489 342.163 87.2995 342.32 87.1 342.482 86.896 342.563 86.64 342.55 86.38L342.55 84.06 343.17 84.06 343.17 86.44C343.176 86.7077 343.114 86.9726 342.99 87.21 342.864 87.424 342.694 87.6082 342.49 87.75 342.265 87.9004 342.014 88.0088 341.75 88.07 341.462 88.1435 341.167 88.1805 340.87 88.18 340.533 88.177 340.198 88.1367 339.87 88.06 339.524 87.984 339.188 87.8665 338.87 87.71L338.87 84.06ZM340.46 86.97C340.553 86.8641 340.618 86.737 340.65 86.6 340.693 86.4233 340.713 86.2418 340.71 86.06L340.71 84.06 341.33 84.06 341.33 86C341.337 86.2031 341.31 86.4059 341.25 86.6 341.2 86.7514 341.114 86.8885 341 87Z"/><path d="M344.37 88.08 344.68 85.52C344.703 85.3355 344.757 85.1562 344.84 84.99 344.909 84.8446 345.008 84.7152 345.13 84.61L345.13 84.61 345.13 84.61 345.13 84.61C345.002 84.6272 344.875 84.6539 344.75 84.69 344.605 84.726 344.461 84.7693 344.32 84.82L344.18 84.34C344.366 84.2722 344.556 84.2187 344.75 84.18 344.958 84.1319 345.168 84.0952 345.38 84.07 345.576 84.0561 345.774 84.0561 345.97 84.07 346.424 84.0416 346.871 84.1965 347.21 84.5 347.518 84.8483 347.673 85.3061 347.64 85.77L347.64 88.17 345.99 88.17 345.99 87.66 346.99 87.66 346.99 85.66C347.011 85.3668 346.925 85.0759 346.75 84.84 346.567 84.6524 346.312 84.5538 346.05 84.57 345.835 84.5657 345.63 84.6574 345.49 84.82 345.329 85.0158 345.235 85.2573 345.22 85.51L345 88.08Z"/><path d="M353.4 88.08 350.48 84.08 351.19 84.08 354.11 88.08ZM350.62 88.08 350.62 86.62C350.606 86.3032 350.679 85.9887 350.83 85.71 350.987 85.4771 351.215 85.3015 351.48 85.21L351.73 85.54C351.399 85.6922 351.202 86.038 351.24 86.4L351.24 88.08ZM354.12 84.08 352.74 86.51 352.32 86.02 353.41 84.08Z"/><path d="M354.74 84.57 354.74 82.83 355.37 82.83 355.37 84.06 357.56 84.06 357.56 84.57ZM357.79 84.46 356.32 88.08 355.64 88.08 357.31 84.08 357.79 84.08Z"/><path d="M58.05 104.49C58.0461 104.387 58.0819 104.287 58.15 104.21 58.2266 104.134 58.3321 104.094 58.44 104.1 58.5508 104.095 58.659 104.134 58.74 104.21 58.8041 104.289 58.8394 104.388 58.84 104.49 58.8389 104.586 58.8034 104.678 58.74 104.75 58.659 104.826 58.5508 104.865 58.44 104.86 58.3321 104.866 58.2266 104.826 58.15 104.75 58.0821 104.681 58.0459 104.587 58.05 104.49Z"/><path d="M60.17 106.24 60.17 101.3 59.7 101.3 59.7 100.79 60.8 100.79 60.8 106.24Z"/><path d="M64.86 104.82 61.94 100.82 62.65 100.82 65.56 104.82ZM62.08 104.82 62.08 103.36C62.0653 103.043 62.1379 102.728 62.29 102.45 62.4401 102.209 62.6702 102.028 62.94 101.94L63.19 102.27C62.8594 102.422 62.6624 102.768 62.7 103.13L62.7 104.82ZM65.58 100.82 64.19 103.25 63.77 102.76 64.87 100.82Z"/><path d="M67.32 104.88C67.1403 104.894 66.9597 104.894 66.78 104.88 66.5804 104.846 66.3833 104.8 66.19 104.74L66.29 104.27C66.6153 104.364 66.9515 104.414 67.29 104.42 67.5993 104.431 67.9019 104.328 68.14 104.13 68.3482 103.922 68.4542 103.633 68.43 103.34L68.43 101.34 66.33 101.34 66.33 100.83 69.05 100.83 69.05 103.19C69.0678 103.536 68.9954 103.88 68.84 104.19 68.7093 104.442 68.498 104.642 68.24 104.76 67.9457 104.866 67.6318 104.907 67.32 104.88Z"/><path d="M72.64 100.79 72.64 104.1C72.8629 104.194 73.0938 104.268 73.33 104.32 73.5567 104.37 73.7879 104.397 74.02 104.4 74.3161 104.407 74.6111 104.36 74.89 104.26 75.13 104.183 75.3421 104.037 75.5 103.84 75.6617 103.636 75.7435 103.38 75.73 103.12L75.73 100.79 76.35 100.79 76.35 103.17C76.3567 103.438 76.2947 103.703 76.17 103.94 76.0476 104.159 75.8766 104.347 75.67 104.49 75.4451 104.635 75.1987 104.743 74.94 104.81 74.6486 104.88 74.3497 104.914 74.05 104.91 73.714 104.905 73.3792 104.868 73.05 104.8 72.7051 104.72 72.3698 104.602 72.05 104.45L72.05 100.79ZM73.64 103.71C73.7345 103.605 73.7999 103.478 73.83 103.34 73.8761 103.16 73.8996 102.976 73.9 102.79L73.9 100.79 74.51 100.79 74.51 102.68C74.5163 102.886 74.4893 103.092 74.43 103.29 74.3778 103.454 74.2888 103.605 74.17 103.73Z"/><path d="M77.55 104.82 77.86 102.26C77.8813 102.075 77.9355 101.896 78.02 101.73 78.0865 101.583 78.1857 101.453 78.31 101.35L78.31 101.35 78.31 101.35 78.31 101.35 77.93 101.43 77.5 101.56 77.36 101.08C77.5471 101.017 77.7374 100.963 77.93 100.92 78.14 100.92 78.35 100.84 78.56 100.82 78.7564 100.806 78.9536 100.806 79.15 100.82 79.6048 100.787 80.0533 100.942 80.39 101.25 80.6989 101.598 80.8571 102.055 80.83 102.52L80.83 104.92 79.23 104.92 79.23 104.41 80.23 104.41 80.23 102.41C80.2515 102.117 80.1662 101.825 79.99 101.59 79.8113 101.395 79.5538 101.292 79.29 101.31 79.0754 101.306 78.8701 101.397 78.73 101.56 78.5721 101.761 78.4781 102.005 78.46 102.26L78.16 104.88Z"/><path d="M82 104.82 82.31 102.26C82.3313 102.075 82.3855 101.896 82.47 101.73 82.5365 101.583 82.6357 101.453 82.76 101.35L82.76 101.35 82.76 101.35 82.76 101.35 82.38 101.43 81.95 101.56 81.81 101.08C81.9971 101.017 82.1874 100.963 82.38 100.92 82.5882 100.876 82.7985 100.843 83.01 100.82 83.2064 100.806 83.4036 100.806 83.6 100.82 84.0548 100.787 84.5033 100.942 84.84 101.25 85.1489 101.598 85.3071 102.055 85.28 102.52L85.28 104.92 83.67 104.92 83.67 104.41 84.67 104.41 84.67 102.41C84.6915 102.117 84.6062 101.825 84.43 101.59 84.2513 101.395 83.9938 101.292 83.73 101.31 83.5154 101.306 83.3101 101.397 83.17 101.56 83.0121 101.761 82.9181 102.005 82.9 102.26L82.6 104.88Z"/><path d="M90.54 104.82 90.54 102.29C90.6391 101.837 90.352 101.389 89.8988 101.29 89.7806 101.264 89.6582 101.264 89.54 101.29L88.09 101.29 88.09 100.78 89.58 100.78C90.0105 100.751 90.4359 100.887 90.77 101.16 91.0598 101.466 91.2085 101.879 91.18 102.3L91.18 104.81ZM88.09 104.82 88.09 103.44C88.0834 103.261 88.1036 103.083 88.15 102.91 88.1833 102.801 88.2234 102.694 88.27 102.59L88.79 102.59C88.7578 102.704 88.7377 102.822 88.73 102.94 88.73 103.06 88.73 103.22 88.73 103.4L88.73 104.82Z"/><path d="M92 101.3 92 99.57 92.63 99.57 92.63 100.79 94.8 100.79 94.8 101.3ZM95.06 101.19 93.58 104.82 92.9 104.82 94.57 100.82 95 100.82Z"/><path d="M96.22 103 96.22 101.3 95.48 101.3 95.48 100.79 96.86 100.79 96.86 103Z"/><path d="M98 104.82 98 100.82 99.51 100.82C99.9411 100.786 100.368 100.922 100.7 101.2 100.989 101.514 101.134 101.934 101.1 102.36L101.1 104.85 100.47 104.85 100.47 102.3C100.495 102.026 100.412 101.754 100.24 101.54 100.041 101.368 99.7822 101.282 99.52 101.3L98.63 101.3 98.63 104.82Z"/><path d="M103.92 100.79C104.351 100.758 104.777 100.894 105.11 101.17 105.395 101.486 105.54 101.905 105.51 102.33L105.51 104.82 104.87 104.82 104.87 102.3C104.898 102.028 104.819 101.755 104.65 101.54 104.448 101.366 104.186 101.28 103.92 101.3L103.35 101.3C103.27 101.448 103.209 101.606 103.17 101.77 103.13 101.967 103.11 102.168 103.11 102.37L103.11 103.72C103.134 104.028 103.037 104.332 102.84 104.57 102.637 104.766 102.361 104.868 102.08 104.85L101.88 104.85 101.68 104.85 101.68 104.34 101.92 104.34C102.081 104.359 102.241 104.3 102.35 104.18 102.453 104.042 102.503 103.872 102.49 103.7L102.49 102.43C102.487 102.221 102.514 102.012 102.57 101.81 102.61 101.629 102.688 101.458 102.8 101.31L102 101.31 102 100.8Z"/><path d="M106.61 104.82 106.92 102.26C106.941 102.075 106.995 101.896 107.08 101.73 107.146 101.583 107.246 101.453 107.37 101.35L107.37 101.35 107.37 101.35 107.37 101.35 106.99 101.43 106.56 101.56 106.42 101.08C106.607 101.017 106.797 100.963 106.99 100.92 107.198 100.876 107.408 100.843 107.62 100.82 107.816 100.806 108.014 100.806 108.21 100.82 108.665 100.787 109.113 100.942 109.45 101.25 109.759 101.598 109.917 102.055 109.89 102.52L109.89 104.92 108.23 104.92 108.23 104.41 109.23 104.41 109.23 102.41C109.251 102.117 109.166 101.825 108.99 101.59 108.811 101.395 108.554 101.292 108.29 101.31 108.075 101.306 107.87 101.397 107.73 101.56 107.568 101.758 107.473 102.004 107.46 102.26L107.16 104.88Z"/><path d="M112.82 104.82 112.82 100.82 116 100.82 116 104.82ZM113.45 104.31 115.45 104.31 115.45 101.31 113.45 101.31Z"/><path d="M117.58 103 117.58 101.3 116.84 101.3 116.84 100.79 118.21 100.79 118.21 103Z"/><path d="M121 104.89C120.707 104.9 120.417 104.831 120.16 104.69 119.92 104.563 119.722 104.368 119.59 104.13 119.455 103.867 119.386 103.575 119.39 103.28L119.39 100.79 120 100.79 120 103.32C119.986 103.602 120.083 103.879 120.27 104.09 120.66 104.478 121.29 104.478 121.68 104.09 121.867 103.879 121.964 103.602 121.95 103.32L121.95 102C121.961 101.818 121.908 101.637 121.8 101.49 121.699 101.369 121.547 101.302 121.39 101.31 121.31 101.3 121.23 101.3 121.15 101.31 121.063 101.329 120.979 101.36 120.9 101.4L120.8 100.98C120.915 100.907 121.04 100.85 121.17 100.81 121.299 100.768 121.434 100.745 121.57 100.74 121.853 100.727 122.126 100.845 122.31 101.06 122.501 101.301 122.597 101.603 122.58 101.91L122.58 103.27C122.588 103.566 122.52 103.859 122.38 104.12 122.253 104.358 122.058 104.553 121.82 104.68 121.57 104.821 121.287 104.893 121 104.89Z"/><path d="M125.36 104.82 125.36 102C125.368 101.806 125.296 101.618 125.16 101.48 125.021 101.346 124.832 101.277 124.64 101.29L123.28 101.29 123.28 100.78 124.66 100.78C125.024 100.756 125.382 100.874 125.66 101.11 125.901 101.362 126.027 101.702 126.01 102.05L126.01 104.81Z"/><path d="M128.8 104.89C128.487 104.9 128.179 104.82 127.91 104.66 127.657 104.504 127.45 104.283 127.31 104.02 127.163 103.707 127.088 103.366 127.09 103.02L127.09 102.61C127.092 102.434 127.119 102.259 127.17 102.09 127.214 101.925 127.281 101.766 127.37 101.62 127.448 101.501 127.546 101.396 127.66 101.31L127.66 101.31 127.66 101.31C127.548 101.323 127.438 101.346 127.33 101.38L126.94 101.48 126.82 101C126.99 101 127.19 100.9 127.4 100.86 127.61 100.82 127.82 100.79 128.04 100.77L128.64 100.77C128.987 100.755 129.331 100.831 129.64 100.99 129.909 101.128 130.127 101.349 130.26 101.62 130.419 101.929 130.495 102.273 130.48 102.62L130.48 103C130.491 103.345 130.419 103.688 130.27 104 130.136 104.267 129.928 104.489 129.67 104.64 129.41 104.804 129.108 104.891 128.8 104.89ZM128.8 104.36C128.999 104.36 129.194 104.301 129.36 104.19 129.524 104.074 129.652 103.915 129.73 103.73 129.826 103.516 129.874 103.284 129.87 103.05L129.87 102.57C129.874 102.326 129.826 102.084 129.73 101.86 129.651 101.675 129.519 101.518 129.35 101.41 129.175 101.296 128.969 101.24 128.76 101.25 128.567 101.243 128.378 101.3 128.22 101.41 128.061 101.531 127.94 101.694 127.87 101.88 127.778 102.109 127.73 102.353 127.73 102.6L127.73 103.05C127.723 103.283 127.767 103.516 127.86 103.73 127.941 103.916 128.073 104.075 128.24 104.19 128.406 104.301 128.601 104.36 128.8 104.36Z"/><path d="M133.93 104.82 133.93 102.29C134.029 101.837 133.742 101.389 133.289 101.29 133.171 101.264 133.048 101.264 132.93 101.29L131.47 101.29 131.47 100.78 133 100.78C133.431 100.749 133.857 100.885 134.19 101.16 134.48 101.466 134.628 101.879 134.6 102.3L134.6 104.81ZM131.49 104.82 131.49 103.44C131.47 103.264 131.47 103.086 131.49 102.91 131.523 102.801 131.563 102.694 131.61 102.59L132.13 102.59C132.13 102.69 132.13 102.81 132.07 102.94 132.01 103.07 132.07 103.22 132.07 103.4L132.07 104.82Z"/><path d="M135.67 104.82 135.98 102.26C136.006 102.076 136.06 101.897 136.14 101.73 136.206 101.583 136.306 101.453 136.43 101.35L136.43 101.35 136.43 101.35 136.43 101.35 136.05 101.43 135.63 101.56 135.48 101.08C135.65 101.02 135.85 100.97 136.05 100.92 136.25 100.87 136.47 100.84 136.68 100.82 136.876 100.806 137.074 100.806 137.27 100.82 137.728 100.786 138.18 100.942 138.52 101.25 138.825 101.6 138.98 102.057 138.95 102.52L138.95 104.92 137.29 104.92 137.29 104.41 138.29 104.41 138.29 102.41C138.309 102.115 138.22 101.824 138.04 101.59 137.862 101.394 137.604 101.291 137.34 101.31 137.128 101.303 136.924 101.395 136.79 101.56 136.628 101.76 136.531 102.004 136.51 102.26L136.21 104.88Z"/><path d="M143.24 104.82 143.24 104.32C143.541 104.322 143.831 104.207 144.05 104 144.266 103.78 144.379 103.478 144.36 103.17L144.36 101.3 141.88 101.3 141.88 100.79 145 100.79 145 103.16C145.006 103.464 144.93 103.765 144.78 104.03 144.635 104.278 144.419 104.477 144.16 104.6 143.875 104.746 143.56 104.821 143.24 104.82ZM142 106.24 142 103.31C141.993 103.131 142.014 102.953 142.06 102.78 142.093 102.671 142.133 102.564 142.18 102.46L142.7 102.46C142.669 102.571 142.649 102.685 142.64 102.8 142.64 102.93 142.64 103.09 142.64 103.27L142.64 106.27Z"/><path d="M146.54 103 146.54 101.3 145.8 101.3 145.8 100.79 147.18 100.79 147.18 103Z"/><path d="M148.59 104.89 148.25 104.89 147.93 104.83 147.93 104.34C148.096 104.357 148.264 104.357 148.43 104.34 148.587 104.35 148.74 104.292 148.85 104.18 148.955 104.035 149.004 103.858 148.99 103.68L148.99 101.28 148.2 101.28 148.2 100.77 149.63 100.77 149.63 103.77C149.649 104.076 149.549 104.377 149.35 104.61 149.147 104.806 148.871 104.908 148.59 104.89Z"/><path d="M152.24 104.82 152.24 104.32C152.541 104.322 152.831 104.207 153.05 104 153.266 103.78 153.379 103.478 153.36 103.17L153.36 101.3 150.88 101.3 150.88 100.79 154 100.79 154 103.16C154.006 103.464 153.93 103.765 153.78 104.03 153.635 104.278 153.419 104.477 153.16 104.6 152.875 104.746 152.56 104.821 152.24 104.82ZM151 106.24 151 103.31C150.993 103.131 151.014 102.953 151.06 102.78 151.093 102.671 151.133 102.564 151.18 102.46L151.7 102.46C151.669 102.571 151.649 102.685 151.64 102.8 151.64 102.93 151.64 103.09 151.64 103.27L151.64 106.27Z"/><path d="M155.54 103 155.54 101.3 154.8 101.3 154.8 100.79 156.18 100.79 156.18 103Z"/><path d="M158.72 104.89C158.505 104.888 158.291 104.868 158.08 104.83 157.853 104.789 157.629 104.732 157.41 104.66L157.53 104.18C157.732 104.245 157.94 104.291 158.15 104.32 158.332 104.349 158.516 104.366 158.7 104.37 159.013 104.384 159.32 104.281 159.56 104.08 159.775 103.876 159.889 103.586 159.87 103.29L159.87 101.29 158.25 101.29C158.171 101.441 158.114 101.603 158.08 101.77 158.032 101.956 158.009 102.148 158.01 102.34L158.01 102.65C158.076 102.658 158.144 102.658 158.21 102.65L158.54 102.65 158.54 103.2 158.06 103.2C157.941 103.189 157.824 103.166 157.71 103.13 157.6 103.092 157.493 103.045 157.39 102.99L157.39 102.47C157.391 102.244 157.418 102.02 157.47 101.8 157.518 101.604 157.599 101.418 157.71 101.25L157.22 101.25 157.22 100.74 160.51 100.74 160.51 103.12C160.526 103.468 160.446 103.814 160.28 104.12 160.134 104.368 159.914 104.564 159.65 104.68 159.361 104.821 159.042 104.893 158.72 104.89Z"/><path d="M161.4 101.3 161.4 99.57 162 99.57 162 100.79 164.19 100.79 164.19 101.3ZM164.46 101.19 163 104.82 162.32 104.82 163.99 100.82 164.48 100.82Z"/><path d="M168.67 106.24 168.67 101.3 166.67 101.3 166.67 100.79 169.3 100.79 169.3 106.24Z"/><path d="M172.19 104.82 172.19 102C172.202 101.808 172.133 101.619 172 101.48 171.858 101.345 171.665 101.276 171.47 101.29L170.12 101.29 170.12 100.78 171.49 100.78C171.854 100.752 172.214 100.871 172.49 101.11 172.738 101.358 172.868 101.7 172.85 102.05L172.85 104.81Z"/><path d="M173.55 100.79 176.78 100.79 176.78 101.3 176.1 101.3 176.1 104.82 175.47 104.82 175.47 101.3 173.55 101.3Z"/><path d="M180 104.82 180 102.29C180.029 102.014 179.942 101.739 179.76 101.53 179.545 101.36 179.273 101.277 179 101.3L177.5 101.3 177.5 100.79 179 100.79C179.434 100.759 179.863 100.895 180.2 101.17 180.486 101.478 180.631 101.891 180.6 102.31L180.6 104.82ZM177.55 104.82 177.55 103.44C177.543 103.261 177.564 103.083 177.61 102.91 177.643 102.801 177.683 102.694 177.73 102.59L178.25 102.59C178.219 102.705 178.196 102.822 178.18 102.94 178.18 103.06 178.18 103.22 178.18 103.4L178.18 104.82Z"/><path d="M183.91 104.58C183.906 104.806 183.851 105.028 183.75 105.23 183.651 105.455 183.5 105.654 183.31 105.81L182.94 105.56C183.014 105.467 183.078 105.367 183.13 105.26 183.181 105.159 183.219 105.051 183.24 104.94 183.255 104.824 183.255 104.706 183.24 104.59L183.24 104.07 183.87 104.07Z"/><path d="M184.84 104.82 184.84 100.82 188.05 100.82 188.05 104.82ZM185.47 104.31 187.42 104.31 187.42 101.31 185.47 101.31Z"/><path d="M189.6 103 189.6 101.3 188.86 101.3 188.86 100.79 190.23 100.79 190.23 103Z"/><path d="M191 104.82 191 104.31 193.19 104.31 193.82 104.31 194.31 104.31 194.31 104.8ZM193.19 104.67 193.19 102.29C193.289 101.837 193.002 101.389 192.549 101.29 192.431 101.264 192.308 101.264 192.19 101.29L191.19 101.29 191.19 100.78 192.19 100.78C192.621 100.751 193.046 100.887 193.38 101.16 193.666 101.468 193.811 101.881 193.78 102.3L193.78 104.66Z"/><path d="M197.43 104.82 197.43 102.29C197.529 101.837 197.242 101.389 196.789 101.29 196.671 101.264 196.548 101.264 196.43 101.29L195 101.29 195 100.78 196.49 100.78C196.921 100.751 197.346 100.887 197.68 101.16 197.97 101.466 198.118 101.879 198.09 102.3L198.09 104.81ZM194.99 104.82 194.99 103.44C194.965 103.264 194.965 103.086 194.99 102.91 195.023 102.801 195.063 102.694 195.11 102.59L195.63 102.59C195.603 102.705 195.583 102.822 195.57 102.94 195.57 103.06 195.57 103.22 195.57 103.4L195.57 104.82Z"/><path d="M199.4 104.82 199.4 101.3 198.93 101.3 198.93 100.79 200 100.79 200 104.79Z"/><path d="M204.09 104.82 201.17 100.82 201.88 100.82 204.8 104.82ZM201.32 104.82 201.32 103.36C201.302 103.044 201.371 102.729 201.52 102.45 201.673 102.211 201.902 102.031 202.17 101.94L202.42 102.27C202.089 102.422 201.892 102.768 201.93 103.13L201.93 104.82ZM204.82 100.82 203.43 103.25 203.01 102.76 204.1 100.82Z"/><path d="M207.49 104.82 207.49 100.82 210.71 100.82 210.71 104.82ZM208.13 104.31 210.13 104.31 210.13 101.31 208.13 101.31Z"/><path d="M213.59 100.79C214.021 100.758 214.447 100.894 214.78 101.17 215.069 101.484 215.214 101.904 215.18 102.33L215.18 104.82 214.55 104.82 214.55 102.3C214.578 102.028 214.499 101.755 214.33 101.54 214.131 101.368 213.872 101.282 213.61 101.3L213 101.3C212.911 101.444 212.85 101.604 212.82 101.77 212.771 101.966 212.748 102.168 212.75 102.37L212.75 103.72C212.774 104.028 212.677 104.332 212.48 104.57 212.277 104.766 212.001 104.868 211.72 104.85L211.52 104.85 211.33 104.85 211.33 104.34 211.56 104.34C211.723 104.356 211.885 104.297 212 104.18 212.1 104.041 212.146 103.87 212.13 103.7L212.13 102.43C212.132 102.221 212.159 102.013 212.21 101.81 212.25 101.629 212.328 101.458 212.44 101.31L211.68 101.31 211.68 100.8Z"/><path d="M219.14 104.82 216.22 100.82 216.93 100.82 219.84 104.82ZM216.36 104.82 216.36 103.36C216.345 103.043 216.418 102.728 216.57 102.45 216.72 102.209 216.95 102.028 217.22 101.94L217.47 102.27C217.139 102.422 216.942 102.768 216.98 103.13L216.98 104.82ZM219.86 100.82 218.47 103.25 218.05 102.76 219.15 100.82Z"/><path d="M221.42 100.79 221.42 104.1C221.643 104.194 221.874 104.268 222.11 104.32 222.337 104.37 222.568 104.397 222.8 104.4 223.096 104.407 223.391 104.36 223.67 104.26 223.912 104.18 224.126 104.035 224.29 103.84 224.444 103.633 224.522 103.378 224.51 103.12L224.51 100.79 225.13 100.79 225.13 103.17C225.137 103.438 225.075 103.703 224.95 103.94 224.828 104.159 224.657 104.347 224.45 104.49 224.226 104.636 223.979 104.744 223.72 104.81 223.429 104.88 223.13 104.914 222.83 104.91 222.494 104.906 222.159 104.869 221.83 104.8 221.485 104.72 221.149 104.603 220.83 104.45L220.83 100.79ZM222.42 103.71C222.514 103.605 222.58 103.478 222.61 103.34 222.661 103.161 222.685 102.976 222.68 102.79L222.68 100.79 223.3 100.79 223.3 102.68C223.303 102.887 223.273 103.093 223.21 103.29 223.163 103.457 223.073 103.608 222.95 103.73Z"/><path d="M228.1 104.82 228.1 100.82 231.31 100.82 231.31 104.82ZM228.73 104.31 230.73 104.31 230.73 101.31 228.73 101.31Z"/><path d="M232.13 100.79 235.36 100.79 235.36 101.3 234.68 101.3 234.68 104.82 234.05 104.82 234.05 101.3 232.13 101.3Z"/><path d="M239 104.82 236.08 100.82 236.79 100.82 239.7 104.82ZM236.22 104.82 236.22 103.36C236.205 103.043 236.278 102.728 236.43 102.45 236.58 102.209 236.81 102.028 237.08 101.94L237.33 102.27C236.999 102.422 236.802 102.768 236.84 103.13L236.84 104.82ZM239.72 100.82 238.33 103.25 237.91 102.76 239.01 100.82Z"/><path d="M243 104.82 243 102.29C243.029 102.014 242.942 101.739 242.76 101.53 242.545 101.36 242.273 101.277 242 101.3L240.54 101.3 240.54 100.79 242.03 100.79C242.464 100.759 242.893 100.895 243.23 101.17 243.516 101.478 243.661 101.891 243.63 102.31L243.63 104.82ZM240.55 104.82 240.55 103.44C240.543 103.261 240.564 103.083 240.61 102.91 240.643 102.801 240.683 102.694 240.73 102.59L241.25 102.59C241.218 102.704 241.198 102.822 241.19 102.94 241.179 103.093 241.179 103.247 241.19 103.4L241.19 104.82Z"/><path d="M245 104.82 245 101.3 244.54 101.3 244.54 100.79 245.64 100.79 245.64 104.79Z"/><path d="M248.6 104.82 248.6 100.82 251.81 100.82 251.81 104.82ZM249.23 104.31 251.23 104.31 251.23 101.31 249.23 101.31Z"/><path d="M253.36 103 253.36 101.3 252.62 101.3 252.62 100.79 254 100.79 254 103Z"/><path d="M258 104.82 255.08 100.82 255.79 100.82 258.71 104.82ZM255.23 104.82 255.23 103.36C255.217 103.044 255.286 102.731 255.43 102.45 255.583 102.211 255.812 102.031 256.08 101.94L256.33 102.27C256.004 102.427 255.808 102.769 255.84 103.13L255.84 104.82ZM258.73 100.82 257.34 103.25 256.92 102.76 258.01 100.82Z"/><path d="M261.3 100.79C261.731 100.758 262.157 100.894 262.49 101.17 262.775 101.486 262.92 101.905 262.89 102.33L262.89 104.82 262.25 104.82 262.25 102.3C262.277 102.028 262.199 101.755 262.03 101.54 261.828 101.366 261.566 101.28 261.3 101.3L260.73 101.3C260.65 101.448 260.589 101.606 260.55 101.77 260.51 101.967 260.49 102.168 260.49 102.37L260.49 103.72C260.514 104.028 260.417 104.332 260.22 104.57 260.017 104.766 259.741 104.868 259.46 104.85L259.26 104.85 259.07 104.85 259.07 104.34 259.3 104.34C259.463 104.356 259.625 104.297 259.74 104.18 259.836 104.039 259.882 103.87 259.87 103.7L259.87 102.43C259.872 102.221 259.899 102.013 259.95 101.81 259.99 101.629 260.068 101.458 260.18 101.31L259.42 101.31 259.42 100.8Z"/><path d="M264 104.82 264.31 102.26C264.331 102.075 264.385 101.896 264.47 101.73 264.536 101.583 264.636 101.453 264.76 101.35L264.76 101.35 264.76 101.35 264.38 101.43 263.95 101.56 263.81 101.08C263.997 101.017 264.187 100.963 264.38 100.92 264.588 100.876 264.798 100.843 265.01 100.82 265.206 100.806 265.404 100.806 265.6 100.82 266.055 100.787 266.503 100.942 266.84 101.25 267.149 101.598 267.307 102.055 267.28 102.52L267.28 104.92 265.62 104.92 265.62 104.41 266.62 104.41 266.62 102.41C266.641 102.117 266.556 101.825 266.38 101.59 266.201 101.395 265.944 101.292 265.68 101.31 265.465 101.306 265.26 101.397 265.12 101.56 264.962 101.761 264.868 102.005 264.85 102.26L264.55 104.88Z"/><path d="M270.81 104.82 270.81 102.29C270.839 102.014 270.752 101.739 270.57 101.53 270.355 101.36 270.083 101.277 269.81 101.3L268.35 101.3 268.35 100.79 269.84 100.79C270.274 100.759 270.703 100.895 271.04 101.17 271.326 101.478 271.471 101.891 271.44 102.31L271.44 104.82ZM268.36 104.82 268.36 103.44C268.353 103.261 268.374 103.083 268.42 102.91 268.444 102.798 268.485 102.69 268.54 102.59L269.06 102.59C269.029 102.705 269.006 102.822 268.99 102.94 268.99 103.06 268.99 103.22 268.99 103.4L268.99 104.82Z"/><path d="M274 101.3 274 99.57 274.63 99.57 274.63 100.79 276.82 100.79 276.82 101.3ZM277.06 101.19 275.58 104.82 274.9 104.82 276.57 100.82 277 100.82Z"/><path d="M278.71 104.88C278.53 104.894 278.35 104.894 278.17 104.88 277.967 104.845 277.767 104.799 277.57 104.74L277.67 104.27C277.996 104.362 278.332 104.412 278.67 104.42 278.98 104.433 279.283 104.329 279.52 104.13 279.732 103.924 279.842 103.635 279.82 103.34L279.82 101.34 277.72 101.34 277.72 100.83 280.45 100.83 280.45 103.19C280.468 103.536 280.395 103.88 280.24 104.19 280.104 104.437 279.894 104.636 279.64 104.76 279.342 104.867 279.025 104.908 278.71 104.88Z"/><path d="M281.87 104.82 281.87 101.3 281.4 101.3 281.4 100.79 282.5 100.79 282.5 104.79Z"/><path d="M286.56 104.82 283.64 100.82 284.35 100.82 287.27 104.82ZM283.78 104.82 283.78 103.36C283.765 103.043 283.838 102.728 283.99 102.45 284.143 102.211 284.372 102.031 284.64 101.94L284.89 102.27C284.559 102.422 284.362 102.768 284.4 103.13L284.4 104.82ZM287.28 100.82 285.9 103.25 285.48 102.76 286.57 100.82Z"/><path d="M290.57 104.82 290.57 102.29C290.669 101.837 290.382 101.389 289.929 101.29 289.811 101.264 289.688 101.264 289.57 101.29L288.11 101.29 288.11 100.78 289.6 100.78C290.031 100.751 290.456 100.887 290.79 101.16 291.08 101.466 291.228 101.879 291.2 102.3L291.2 104.81ZM288.12 104.82 288.12 103.44C288.113 103.261 288.134 103.083 288.18 102.91 288.213 102.801 288.253 102.694 288.3 102.59L288.82 102.59C288.788 102.704 288.768 102.822 288.76 102.94 288.76 103.06 288.76 103.22 288.76 103.4L288.76 104.82Z"/><path d="M294.52 104.58C294.515 104.805 294.464 105.026 294.37 105.23 294.264 105.454 294.11 105.652 293.92 105.81L293.56 105.56C293.627 105.465 293.687 105.364 293.74 105.26 293.79 105.158 293.831 105.05 293.86 104.94 293.87 104.824 293.87 104.706 293.86 104.59L293.86 104.07 294.48 104.07Z"/><path d="M295.61 106.24 295.61 101.3 295.13 101.3 295.13 100.79 296.24 100.79 296.24 106.24Z"/><path d="M297.66 104.82 297.66 101.3 297.2 101.3 297.2 100.79 298.3 100.79 298.3 104.79Z"/><path d="M300.33 104.88C300.15 104.894 299.97 104.894 299.79 104.88 299.59 104.846 299.393 104.8 299.2 104.74L299.3 104.27C299.625 104.364 299.961 104.414 300.3 104.42 300.609 104.431 300.912 104.328 301.15 104.13 301.358 103.922 301.464 103.633 301.44 103.34L301.44 101.34 299.35 101.34 299.35 100.83 302.07 100.83 302.07 103.19C302.088 103.536 302.015 103.88 301.86 104.19 301.729 104.442 301.518 104.642 301.26 104.76 300.963 104.868 300.645 104.909 300.33 104.88Z"/><path d="M303.54 104.89 303.2 104.89 302.89 104.83 302.89 104.34C303.056 104.356 303.224 104.356 303.39 104.34 303.547 104.355 303.702 104.295 303.81 104.18 303.919 104.037 303.969 103.858 303.95 103.68L303.95 101.28 303.16 101.28 303.16 100.77 304.59 100.77 304.59 103.77C304.614 104.076 304.513 104.379 304.31 104.61 304.105 104.809 303.825 104.911 303.54 104.89Z"/><path d="M308.18 104.82 308.18 102.29C308.209 102.014 308.122 101.739 307.94 101.53 307.725 101.36 307.453 101.277 307.18 101.3L305.72 101.3 305.72 100.79 307.21 100.79C307.644 100.759 308.073 100.895 308.41 101.17 308.696 101.478 308.841 101.891 308.81 102.31L308.81 104.82ZM305.73 104.82 305.73 103.44C305.723 103.261 305.744 103.083 305.79 102.91 305.823 102.801 305.863 102.694 305.91 102.59L306.43 102.59C306.398 102.704 306.378 102.822 306.37 102.94 306.359 103.093 306.359 103.247 306.37 103.4L306.37 104.82Z"/><path d="M311.68 104.82 311.68 100.82 314.9 100.82 314.9 104.82ZM312.32 104.31 314.27 104.31 314.27 101.31 312.32 101.31Z"/><path d="M316.33 104.82 316.33 101.3 315.86 101.3 315.86 100.79 317 100.79 317 104.79Z"/><path d="M319.55 104.82 319.55 104.32C319.854 104.322 320.148 104.208 320.37 104 320.582 103.777 320.694 103.477 320.68 103.17L320.68 101.3 318.19 101.3 318.19 100.79 321.31 100.79 321.31 103.16C321.321 103.465 321.244 103.767 321.09 104.03 320.949 104.278 320.737 104.476 320.48 104.6 320.191 104.744 319.873 104.819 319.55 104.82ZM318.27 106.24 318.27 103.31C318.263 103.131 318.284 102.953 318.33 102.78 318.363 102.671 318.403 102.564 318.45 102.46L319 102.46C318.97 102.571 318.949 102.685 318.94 102.8 318.929 102.956 318.929 103.114 318.94 103.27L318.94 106.27Z"/><path d="M322.86 103 322.86 101.3 322.12 101.3 322.12 100.79 323.49 100.79 323.49 103Z"/><path d="M324.63 104.82 324.94 102.26C324.956 102.074 325.011 101.894 325.1 101.73 325.166 101.583 325.266 101.453 325.39 101.35L325.39 101.35 325.39 101.35 325.39 101.35 325.01 101.43 324.58 101.56 324.43 101.08C324.61 101.02 324.8 100.97 325.01 100.92 325.218 100.875 325.428 100.842 325.64 100.82 325.836 100.806 326.034 100.806 326.23 100.82 326.685 100.787 327.133 100.942 327.47 101.25 327.78 101.597 327.936 102.056 327.9 102.52L327.9 104.92 326.25 104.92 326.25 104.41 327.25 104.41 327.25 102.41C327.271 102.117 327.186 101.825 327.01 101.59 326.831 101.396 326.574 101.294 326.31 101.31 326.095 101.303 325.888 101.395 325.75 101.56 325.587 101.758 325.493 102.004 325.48 102.26L325.17 104.88Z"/><path d="M331.44 104.82 331.44 102.29C331.471 102.016 331.388 101.741 331.21 101.53 330.995 101.36 330.723 101.277 330.45 101.3L329 101.3 329 100.79 330.49 100.79C330.921 100.758 331.347 100.894 331.68 101.17 331.973 101.474 332.122 101.889 332.09 102.31L332.09 104.82ZM329 104.82 329 103.44C328.996 103.262 329.013 103.084 329.05 102.91 329.083 102.801 329.123 102.694 329.17 102.59L329.69 102.59C329.69 102.69 329.69 102.81 329.63 102.94 329.57 103.07 329.63 103.22 329.63 103.4L329.63 104.82Z"/><path d="M334.62 101.3 334.62 99.57 335.25 99.57 335.25 100.79 337.44 100.79 337.44 101.3ZM337.68 101.19 336.2 104.82 335.52 104.82 337.19 100.82 337.68 100.82Z"/><path d="M339.16 100.79 339.16 104.1C339.383 104.194 339.614 104.268 339.85 104.32 340.08 104.37 340.315 104.397 340.55 104.4 340.843 104.408 341.135 104.361 341.41 104.26 341.653 104.183 341.868 104.037 342.03 103.84 342.184 103.633 342.262 103.378 342.25 103.12L342.25 100.79 342.87 100.79 342.87 103.17C342.877 103.438 342.815 103.703 342.69 103.94 342.568 104.159 342.397 104.347 342.19 104.49 341.966 104.636 341.719 104.744 341.46 104.81 341.172 104.879 340.876 104.913 340.58 104.91 340.244 104.906 339.909 104.869 339.58 104.8 339.235 104.719 338.9 104.602 338.58 104.45L338.58 100.79ZM340.16 103.71C340.254 103.604 340.322 103.477 340.36 103.34 340.402 103.16 340.423 102.975 340.42 102.79L340.42 100.79 341 100.79 341 102.68C341.003 102.887 340.973 103.093 340.91 103.29 340.863 103.457 340.773 103.608 340.65 103.73Z"/><path d="M345.43 104.82 345.43 104.31 347.62 104.31 348.25 104.31 348.74 104.31 348.74 104.8ZM347.62 104.67 347.62 102.29C347.719 101.837 347.432 101.389 346.979 101.29 346.861 101.264 346.738 101.264 346.62 101.29L345.62 101.29 345.62 100.78 346.62 100.78C347.051 100.751 347.476 100.887 347.81 101.16 348.096 101.468 348.241 101.881 348.21 102.3L348.21 104.66Z"/><path d="M349.72 104.82 349.72 101.3 349.25 101.3 349.25 100.79 350.36 100.79 350.36 104.79Z"/><path d="M351.26 101.3 351.26 99.57 351.89 99.57 351.89 100.79 354.08 100.79 354.08 101.3ZM354.32 101.19 352.84 104.82 352.16 104.82 353.83 100.82 354.32 100.82Z"/><path d="M355.5 103 355.5 101.3 354.76 101.3 354.76 100.79 356.14 100.79 356.14 103Z"/><path d="M357.92 100.79 357.92 104.1C358.143 104.194 358.374 104.268 358.61 104.32 358.837 104.37 359.068 104.397 359.3 104.4 359.596 104.407 359.891 104.36 360.17 104.26 360.41 104.183 360.622 104.037 360.78 103.84 360.937 103.634 361.018 103.379 361.01 103.12L361.01 100.79 361.62 100.79 361.62 103.17C361.627 103.438 361.565 103.703 361.44 103.94 361.321 104.161 361.149 104.35 360.94 104.49 360.717 104.638 360.47 104.746 360.21 104.81 359.922 104.88 359.626 104.914 359.33 104.91 358.637 104.908 357.954 104.751 357.33 104.45L357.33 100.79ZM358.92 103.71C359.011 103.603 359.076 103.476 359.11 103.34 359.152 103.16 359.173 102.975 359.17 102.79L359.17 100.79 359.79 100.79 359.79 102.68C359.791 102.886 359.764 103.091 359.71 103.29 359.654 103.455 359.562 103.605 359.44 103.73Z"/><path d="M364.59 104.82 364.59 100.82 367.81 100.82 367.81 104.82ZM365.23 104.31 367.18 104.31 367.18 101.31 365.23 101.31Z"/><path d="M370.07 104.9C369.842 104.899 369.615 104.879 369.39 104.84 369.132 104.786 368.877 104.712 368.63 104.62L368.79 104.15C368.999 104.231 369.213 104.297 369.43 104.35 369.614 104.388 369.802 104.408 369.99 104.41 370.317 104.425 370.638 104.318 370.89 104.11 371.125 103.88 371.249 103.559 371.23 103.23L371.23 100.79 371.86 100.79 371.86 103.2C371.869 103.528 371.789 103.853 371.63 104.14 371.482 104.389 371.262 104.587 371 104.71 370.708 104.843 370.39 104.908 370.07 104.9ZM368.85 100.79 369.49 100.79 370.14 103.79C370.172 103.94 370.215 104.087 370.27 104.23 370.312 104.346 370.373 104.454 370.45 104.55L370 104.55C369.903 104.448 369.816 104.338 369.74 104.22 369.661 104.08 369.603 103.928 369.57 103.77Z"/><path d="M142.91 49.61 142.91 33.61 144.47 33.61 144.47 49.61Z"/><path d="M146 39.62 146 38.06 148.22 38.06 148.22 33.62 149.77 33.62 149.77 38.06 153.1 38.06 153.1 39.62 149.77 39.62 149.77 47.72C149.77 47.8083 149.802 47.8938 149.86 47.96 150.185 48.0485 150.524 48.079 150.86 48.05L150.86 49.61C150.115 49.6924 149.365 49.4926 148.76 49.05 148.397 48.7035 148.194 48.2218 148.2 47.72L148.2 39.62Z"/><path d="M154.68 41 154.68 36.65 156.8 36.65 155.66 41Z"/><path d="M157.71 45.83 159.26 45.83C159.194 46.4604 159.406 47.0882 159.84 47.55 160.233 47.8917 160.74 48.0737 161.26 48.06 161.778 48.0793 162.284 47.8964 162.67 47.55 163.341 47.0185 163.454 46.0436 162.923 45.3726 162.848 45.2789 162.764 45.1942 162.67 45.12 162.284 44.7736 161.778 44.5907 161.26 44.61 160.326 44.6121 159.427 44.2539 158.75 43.61 157.469 42.4661 157.357 40.5001 158.501 39.2188 158.579 39.1313 158.662 39.0482 158.75 38.97 160.143 37.5824 162.397 37.5867 163.785 38.9796 164.523 39.7204 164.897 40.7481 164.81 41.79L163.26 41.79C163.322 41.1583 163.107 40.5307 162.67 40.07 162.284 39.7236 161.778 39.5407 161.26 39.56 160.74 39.5463 160.233 39.7283 159.84 40.07 159.169 40.6104 159.063 41.5924 159.603 42.2635 159.674 42.3506 159.753 42.4299 159.84 42.5 160.233 42.8417 160.74 43.0237 161.26 43.01 162.187 42.9944 163.085 43.3343 163.77 43.96 165.051 45.1039 165.163 47.0699 164.019 48.3512 163.941 48.4387 163.858 48.5218 163.77 48.6 162.377 49.9876 160.123 49.9833 158.735 48.5904 157.997 47.8496 157.622 46.8219 157.71 45.78Z"/><path d="M171.83 45.5C171.83 43.2301 173.67 41.39 175.94 41.39 177.042 41.3834 178.099 41.8236 178.87 42.61L178.87 42.61 178.82 42.61 178.74 42.54 178.63 42.43 178.5 42.3 178.5 42.22C178.511 41.5388 178.24 40.8835 177.75 40.41 177.281 39.9213 176.627 39.6527 175.95 39.67L174.64 39.67 174.36 38.98 174 38.11 175.95 38.11C178.211 38.1264 180.039 39.9585 180.05 42.22L180.05 49.66 178.5 49.66 178.5 48.8 178.5 48.8 178.5 48.8 178.5 48.8 178.5 48.8 178.5 48.8 178.5 48.8 178.5 48.8 178.5 48.8 178.5 48.8 178.5 48.8 178.5 48.8 178.5 48.8 178.5 48.8 178.5 48.8 178.5 48.8 178.5 48.8C176.899 50.4016 174.303 50.4024 172.702 48.8017 171.932 48.0323 171.5 46.9884 171.5 45.9ZM174.13 43.69C173.127 44.6869 173.123 46.3078 174.12 47.3104 175.117 48.313 176.737 48.3176 177.74 47.3207 178.743 46.3239 178.747 44.703 177.75 43.7004 177.747 43.6969 177.743 43.6934 177.74 43.69 176.739 42.7026 175.131 42.7026 174.13 43.69Z"/><path d="M187.85 43.68C187.862 41.0646 188.28 38.4669 189.09 35.98L190.71 35.98C190.003 38.4851 189.649 41.0769 189.66 43.68 189.67 45.0175 189.76 46.3533 189.93 47.68 190.09 48.9356 190.351 50.1763 190.71 51.39L189.09 51.39C188.704 50.1228 188.393 48.8339 188.16 47.53 187.957 46.2567 187.853 44.9694 187.85 43.68Z"/><path d="M192.05 49.61 192.05 33.61 197.83 33.61C200.406 33.7293 202.398 35.9146 202.279 38.491 202.167 40.9004 200.239 42.8284 197.83 42.94L193.61 42.94 193.61 49.6ZM193.61 41.39 197.83 41.39C199.545 41.2926 200.856 39.8236 200.759 38.1087 200.669 36.5299 199.409 35.2696 197.83 35.18L193.61 35.18Z"/><path d="M204 37.4 204 34.73 205.56 34.73 205.56 37.4ZM204 49.61 204 38.06 205.56 38.06 205.56 49.61Z"/><path d="M207.12 43.83C207.12 40.6433 209.703 38.06 212.89 38.06 214.176 38.0521 215.427 38.4785 216.44 39.27L216.44 41.48 215.88 40.85C215.111 40.0161 214.013 39.5656 212.88 39.62 210.552 39.5066 208.573 41.3018 208.46 43.6296 208.346 45.9575 210.141 47.9366 212.469 48.05 212.606 48.0567 212.743 48.0567 212.88 48.05 214.013 48.1044 215.111 47.6539 215.88 46.82L216.44 46.19 216.44 48.4C215.427 49.1915 214.176 49.6179 212.89 49.61 209.714 49.6211 207.131 47.0557 207.12 43.8801 207.12 43.8634 207.12 43.8467 207.12 43.83Z"/><path d="M217.37 49.61 217.37 38.06 218.93 38.06 218.93 39.19 218.72 39.44 218.72 39.44C220.528 37.6009 223.485 37.5758 225.324 39.3841 226.221 40.2659 226.724 41.4722 226.72 42.73L226.72 49.62 225.16 49.62 225.16 42.72C225.063 41.0052 223.594 39.6939 221.879 39.7913 220.3 39.8809 219.04 41.1411 218.95 42.72L218.95 49.63Z"/><path d="M228.23 37.4 228.23 34.73 229.78 34.73 229.78 37.4ZM228.23 49.61 228.23 38.06 229.78 38.06 229.78 49.61Z"/><path d="M231.32 43.83C231.32 40.6433 233.903 38.06 237.09 38.06 238.376 38.0521 239.627 38.4785 240.64 39.27L240.64 41.48 240.07 40.85C239.303 40.0137 238.203 39.5628 237.07 39.62 234.742 39.5066 232.763 41.3018 232.65 43.6296 232.536 45.9575 234.331 47.9366 236.659 48.05 236.796 48.0567 236.933 48.0567 237.07 48.05 238.203 48.1072 239.303 47.6563 240.07 46.82L240.64 46.19 240.64 48.4C239.627 49.1915 238.376 49.6179 237.09 49.61 233.914 49.6211 231.331 47.0557 231.32 43.8801 231.32 43.8634 231.32 43.8467 231.32 43.83Z"/><path d="M242 51.38C242.707 48.8759 243.044 46.2817 243 43.68 243.041 41.0784 242.705 38.4847 242 35.98L243.58 35.98C243.994 37.2332 244.309 38.5172 244.52 39.82 245.19 43.6908 244.867 47.6684 243.58 51.38Z"/><path d="M252.7 49.61 252.7 33.61 258.47 33.61C262.888 33.623 266.459 37.2153 266.446 41.6336 266.44 43.7389 265.604 45.7569 264.12 47.25 262.644 48.7822 260.598 49.6332 258.47 49.6ZM254.25 48.05 258.47 48.05C262.021 48.0648 264.912 45.198 264.927 41.6468 264.934 39.9207 264.247 38.2642 263.02 37.05 261.825 35.8262 260.18 35.1466 258.47 35.17L254.25 35.17Z"/><path d="M267.35 45.5C267.35 43.2301 269.19 41.39 271.46 41.39 272.562 41.3834 273.619 41.8236 274.39 42.61L274.39 42.61 274.39 42.61 274.31 42.54 274.2 42.43 274.07 42.3 274.07 42.22C274.081 41.5388 273.81 40.8835 273.32 40.41 272.851 39.9213 272.197 39.6527 271.52 39.67L270.21 39.67 269.93 38.98 269.57 38.11 271.52 38.11C273.781 38.1264 275.609 39.9585 275.62 42.22L275.62 49.66 274 49.66 274 48.8 274 48.8 274 48.8 274 48.8 274 48.8 274 48.8 274 48.8 274 48.8 274 48.8 274 48.8 274 48.8 274 48.8 274 48.8 274 48.8 274 48.8 274 48.8 274 48.8C272.399 50.4016 269.803 50.4024 268.202 48.8017 267.432 48.0323 267 46.9884 267 45.9ZM269.65 43.69C268.647 44.6869 268.643 46.3078 269.64 47.3104 270.637 48.313 272.257 48.3176 273.26 47.3207 274.263 46.3239 274.267 44.703 273.27 43.7004 273.267 43.6969 273.263 43.6934 273.26 43.69 272.259 42.7026 270.651 42.7026 269.65 43.69Z"/><path d="M276.43 39.62 276.43 38.06 278.65 38.06 278.65 33.62 280.2 33.62 280.2 38.06 283.53 38.06 283.53 39.62 280.2 39.62 280.2 47.72C280.2 47.8083 280.232 47.8938 280.29 47.96 280.615 48.0485 280.954 48.079 281.29 48.05L281.29 49.61C280.541 49.6949 279.788 49.495 279.18 49.05 278.82 48.7024 278.62 48.2205 278.63 47.72L278.63 39.62Z"/><path d="M284.4 43.83C284.398 40.6488 286.975 38.0681 290.156 38.0659 291.688 38.0648 293.158 38.6744 294.24 39.76 295.382 40.893 295.999 42.4521 295.94 44.06L286 44.06C286.012 45.1123 286.461 46.112 287.24 46.82 288.895 48.4769 291.579 48.4785 293.236 46.8237 293.238 46.8225 293.239 46.8212 293.24 46.82 293.527 46.5182 293.775 46.1823 293.98 45.82L295.69 45.82C295.371 46.5931 294.914 47.3014 294.34 47.91 292.092 50.1688 288.439 50.1778 286.18 47.93 285.089 46.8447 284.477 45.3687 284.48 43.83ZM286.14 42.5 294.2 42.5C294.022 41.8699 293.676 41.2997 293.2 40.85 291.545 39.1931 288.861 39.1915 287.204 40.8463 287.202 40.8475 287.201 40.8488 287.2 40.85 286.7 41.2903 286.332 41.8618 286.14 42.5Z"/></g></g></svg>