<svg width="628" height="334" xmlns="http://www.w3.org/2000/svg" xmlns:xlink="http://www.w3.org/1999/xlink" overflow="hidden"><defs><clipPath id="clip0"><rect x="553" y="265" width="628" height="334"/></clipPath><clipPath id="clip1"><rect x="1128" y="538" width="37" height="37"/></clipPath><clipPath id="clip2"><rect x="1128" y="538" width="37" height="37"/></clipPath><clipPath id="clip3"><rect x="1128" y="538" width="37" height="37"/></clipPath></defs><g clip-path="url(#clip0)" transform="translate(-553 -265)"><rect x="575" y="277" width="516" height="291" fill="#F2E1D6"/><text font-family="OS Luizi Round_FFC,OS Luizi Round_FFC_MSFontService,sans-serif" font-weight="400" font-size="59" direction="rtl" writing-mode="rl-tb" transform="translate(865.026 431)" x="229.167">פלטת גבינות</text><text font-family="OS Luizi Round_FFC,OS Luizi Round_FFC_MSFontService,sans-serif" font-weight="400" font-size="59" direction="rtl" writing-mode="rl-tb" transform="translate(833.693 431)" x="31.3333">, </text><text font-family="OS Luizi Round_FFC,OS Luizi Round_FFC_MSFontService,sans-serif" font-weight="400" font-size="59" direction="rtl" writing-mode="rl-tb" transform="translate(592.193 431)" x="241.5">פירות וירקות</text><rect x="575" y="277" width="606" height="321" fill="#E3D8C4"/><text font-family="Rubik,Rubik_MSFontService,sans-serif" font-weight="400" font-size="17" direction="rtl" writing-mode="rl-tb" transform="translate(914.704 356)" x="235.833">אין כמו לחלוק גבינות טובות לצד יין</text><text font-family="Rubik,Rubik_MSFontService,sans-serif" font-weight="400" font-size="17" direction="rtl" writing-mode="rl-tb" transform="translate(902.037 356)" x="12.6667">.  </text><text font-family="Rubik,Rubik_MSFontService,sans-serif" font-weight="400" font-size="17" direction="rtl" writing-mode="rl-tb" transform="translate(616.204 356)" x="285.833">הנה כמה רעיונות להרכבת פלטה מוצלחת</text><text font-family="Rubik,Rubik_MSFontService,sans-serif" font-weight="400" font-size="17" direction="rtl" writing-mode="rl-tb" transform="translate(611.704 356)" x="4.5">:</text><text font-family="Arial,Arial_MSFontService,sans-serif" font-weight="400" font-size="17" transform="translate(1144.54 377)">•</text><text font-family="Rubik,Rubik_MSFontService,sans-serif" font-weight="400" font-size="17" direction="rtl" writing-mode="rl-tb" transform="translate(1043.54 377)" x="77">לחם מפנק </text><text font-family="Arial,Arial_MSFontService,sans-serif" font-weight="400" font-size="17" transform="translate(1144.54 398)">•<tspan font-family="Rubik,Rubik_MSFontService,sans-serif" font-size="17" x="-53.3334" y="0">4</tspan><tspan font-family="Rubik,Rubik_MSFontService,sans-serif" font-size="17" x="-42.5" y="0">-</tspan><tspan font-family="Rubik,Rubik_MSFontService,sans-serif" font-size="17" x="-34.3334" y="0">5</tspan></text><text font-family="Rubik,Rubik_MSFontService,sans-serif" font-weight="400" font-size="17" direction="rtl" writing-mode="rl-tb" transform="translate(1087.04 398)" x="4.16667"> </text><text font-family="Rubik,Rubik_MSFontService,sans-serif" font-weight="400" font-size="17" direction="rtl" writing-mode="rl-tb" transform="translate(1012.2 398)" x="74.8333">סוגי גבינות</text><text font-family="Arial,Arial_MSFontService,sans-serif" font-weight="400" font-size="17" transform="translate(1144.54 419)">•</text><text font-family="Rubik,Rubik_MSFontService,sans-serif" font-weight="400" font-size="17" direction="rtl" writing-mode="rl-tb" transform="translate(1065.54 419)" x="55">קרקרים</text><text font-family="Arial,Arial_MSFontService,sans-serif" font-weight="400" font-size="17" transform="translate(1144.54 440)">•</text><text font-family="Rubik,Rubik_MSFontService,sans-serif" font-weight="400" font-size="17" direction="rtl" writing-mode="rl-tb" transform="translate(1076.87 440)" x="43.6667">אגוזים</text><text font-family="Arial,Arial_MSFontService,sans-serif" font-weight="400" font-size="17" transform="translate(1144.54 460)">•</text><text font-family="Rubik,Rubik_MSFontService,sans-serif" font-weight="400" font-size="17" direction="rtl" writing-mode="rl-tb" transform="translate(1064.37 460)" x="56.1667">ממרחים</text><text font-family="Rubik,Rubik_MSFontService,sans-serif" font-weight="400" font-size="17" direction="rtl" writing-mode="rl-tb" transform="translate(1051.87 460)" x="12.5">/ </text><text font-family="Rubik,Rubik_MSFontService,sans-serif" font-weight="400" font-size="17" direction="rtl" writing-mode="rl-tb" transform="translate(992.871 460)" x="59">מטבלים </text><text font-family="Rubik,Rubik_MSFontService,sans-serif" font-weight="400" font-size="17" direction="rtl" writing-mode="rl-tb" transform="translate(987.037 460)" x="5.83333">(</text><text font-family="Rubik,Rubik_MSFontService,sans-serif" font-weight="400" font-size="17" direction="rtl" writing-mode="rl-tb" transform="translate(950.871 460)" x="36.1667">פסטו</text><text font-family="Rubik,Rubik_MSFontService,sans-serif" font-weight="400" font-size="17" direction="rtl" writing-mode="rl-tb" transform="translate(942.371 460)" x="8.5">, </text><text font-family="Rubik,Rubik_MSFontService,sans-serif" font-weight="400" font-size="17" direction="rtl" writing-mode="rl-tb" transform="translate(869.371 460)" x="73">סקורדליה </text><text font-family="Rubik,Rubik_MSFontService,sans-serif" font-weight="400" font-size="17" direction="rtl" writing-mode="rl-tb" transform="translate(860.871 460)" x="8.5">, </text><text font-family="Rubik,Rubik_MSFontService,sans-serif" font-weight="400" font-size="17" direction="rtl" writing-mode="rl-tb" transform="translate(806.871 460)" x="54">עגבניות</text><text font-family="Rubik,Rubik_MSFontService,sans-serif" font-weight="400" font-size="17" direction="rtl" writing-mode="rl-tb" transform="translate(798.371 460)" x="8.5">, </text><text font-family="Rubik,Rubik_MSFontService,sans-serif" font-weight="400" font-size="17" direction="rtl" writing-mode="rl-tb" transform="translate(761.537 460)" x="36.8333">זיתים</text><text font-family="Rubik,Rubik_MSFontService,sans-serif" font-weight="400" font-size="17" direction="rtl" writing-mode="rl-tb" transform="translate(753.037 460)" x="8.5">, </text><text font-family="Rubik,Rubik_MSFontService,sans-serif" font-weight="400" font-size="17" direction="rtl" writing-mode="rl-tb" transform="translate(710.537 460)" x="42.5">חמאה</text><text font-family="Rubik,Rubik_MSFontService,sans-serif" font-weight="400" font-size="17" direction="rtl" writing-mode="rl-tb" transform="translate(702.037 460)" x="8.5">, </text><text font-family="Rubik,Rubik_MSFontService,sans-serif" font-weight="400" font-size="17" direction="rtl" writing-mode="rl-tb" transform="translate(671.204 460)" x="30.8333">דבש</text><text font-family="Rubik,Rubik_MSFontService,sans-serif" font-weight="400" font-size="17" direction="rtl" writing-mode="rl-tb" transform="translate(662.704 460)" x="8.5">, </text><text font-family="Rubik,Rubik_MSFontService,sans-serif" font-weight="400" font-size="17" direction="rtl" writing-mode="rl-tb" transform="translate(629.204 460)" x="33.5">ריבה</text><text font-family="Rubik,Rubik_MSFontService,sans-serif" font-weight="400" font-size="17" direction="rtl" writing-mode="rl-tb" transform="translate(614.704 460)" x="14.5">..)</text><text font-family="Arial,Arial_MSFontService,sans-serif" font-weight="400" font-size="17" transform="translate(1144.54 481)">•</text><text font-family="Rubik,Rubik_MSFontService,sans-serif" font-weight="400" font-size="17" direction="rtl" writing-mode="rl-tb" transform="translate(1030.54 481)" x="90">פירות העונה </text><text font-family="Arial,Arial_MSFontService,sans-serif" font-weight="400" font-size="17" transform="translate(1144.54 502)">•</text><text font-family="Rubik,Rubik_MSFontService,sans-serif" font-weight="400" font-size="17" direction="rtl" writing-mode="rl-tb" transform="translate(1037.37 502)" x="83.1667">ירקות טריים</text><text font-family="Rubik,Rubik_MSFontService,sans-serif" font-weight="400" font-size="19" direction="rtl" writing-mode="rl-tb" transform="translate(1110.04 546)" x="13.5">   </text><text font-family="Rubik,Rubik_MSFontService,sans-serif" font-weight="400" font-size="19" direction="rtl" writing-mode="rl-tb" transform="translate(1083.2 546)" x="26.8333">טיפ</text><text font-family="Rubik,Rubik_MSFontService,sans-serif" font-weight="400" font-size="15" direction="rtl" writing-mode="rl-tb" transform="translate(1110.2 565)" x="22">      </text><text font-family="Rubik,Rubik_MSFontService,sans-serif" font-weight="400" font-size="15" direction="rtl" writing-mode="rl-tb" transform="translate(1069.87 565)" x="40.3333">מומלץ </text><text font-family="Rubik,Rubik_MSFontService,sans-serif" font-weight="400" font-size="15" direction="rtl" writing-mode="rl-tb" transform="translate(823.204 565)" x="246.667">להביא את חומרי הגלם בשלמותם לפיקניק </text><text font-family="Rubik,Rubik_MSFontService,sans-serif" font-weight="400" font-size="15" direction="rtl" writing-mode="rl-tb" transform="translate(815.871 565)" x="7.33333">, </text><text font-family="Rubik,Rubik_MSFontService,sans-serif" font-weight="400" font-size="15" direction="rtl" writing-mode="rl-tb" transform="translate(651.871 565)" x="164">לחתוך ולסדר בהגעה למקום</text><text font-family="Rubik,Rubik_MSFontService,sans-serif" font-weight="400" font-size="15" direction="rtl" writing-mode="rl-tb" transform="translate(644.537 565)" x="7.33333">, </text><text font-family="Rubik,Rubik_MSFontService,sans-serif" font-weight="400" font-size="15" direction="rtl" writing-mode="rl-tb" transform="translate(640.871 565)" x="3.66667"> </text><text font-family="Rubik,Rubik_MSFontService,sans-serif" font-weight="400" font-size="15" direction="rtl" writing-mode="rl-tb" transform="translate(1110.2 583)" x="40.3333">           </text><text font-family="Rubik,Rubik_MSFontService,sans-serif" font-weight="400" font-size="15" direction="rtl" writing-mode="rl-tb" transform="translate(1059.2 583)" x="51">לשמירה </text><text font-family="Rubik,Rubik_MSFontService,sans-serif" font-weight="400" font-size="15" direction="rtl" writing-mode="rl-tb" transform="translate(1039.7 583)" x="19.5">על </text><text font-family="Rubik,Rubik_MSFontService,sans-serif" font-weight="400" font-size="15" direction="rtl" writing-mode="rl-tb" transform="translate(996.704 583)" x="43">הטריות</text><text font-family="Rubik,Rubik_MSFontService,sans-serif" font-weight="400" font-size="15" direction="rtl" writing-mode="rl-tb" transform="translate(993.037 583)" x="3.66667">!</text><text font-family="OS Luizi Round_FFC,OS Luizi Round_FFC_MSFontService,sans-serif" font-weight="400" font-size="43" direction="rtl" writing-mode="rl-tb" transform="translate(893.503 325)" x="166.333">פלטת גבינות</text><text font-family="OS Luizi Round_FFC,OS Luizi Round_FFC_MSFontService,sans-serif" font-weight="400" font-size="43" direction="rtl" writing-mode="rl-tb" transform="translate(870.837 325)" x="22.6667">, </text><text font-family="OS Luizi Round_FFC,OS Luizi Round_FFC_MSFontService,sans-serif" font-weight="400" font-size="43" direction="rtl" writing-mode="rl-tb" transform="translate(695.503 325)" x="175.333">פירות וירקות</text><g clip-path="url(#clip1)"><g clip-path="url(#clip2)"><g clip-path="url(#clip3)"><path d="M1142.65 562.667 1150.35 562.667C1151.01 562.667 1151.51 563.168 1151.51 563.823 1151.51 564.478 1151.01 564.979 1150.35 564.979L1142.65 564.979C1141.99 564.979 1141.49 564.478 1141.49 563.823 1141.49 563.168 1141.99 562.667 1142.65 562.667Z"/><path d="M1142.65 566.521 1150.35 566.521C1151.01 566.521 1151.51 567.022 1151.51 567.677 1151.51 568.332 1151.01 568.833 1150.35 568.833L1142.65 568.833C1141.99 568.833 1141.49 568.332 1141.49 567.677 1141.49 567.022 1141.99 566.521 1142.65 566.521Z"/><path d="M1143.99 570.375C1144.11 571.685 1145.19 572.688 1146.5 572.688 1147.81 572.688 1148.89 571.685 1149.01 570.375L1143.99 570.375Z"/><path d="M1146.5 540.312C1146.5 540.312 1146.5 540.312 1146.5 540.312 1146.5 540.312 1146.5 540.312 1146.5 540.312 1141.03 540.351 1136.59 544.745 1136.48 550.218L1136.48 550.565C1136.52 551.759 1136.75 552.916 1137.17 554.033 1137.6 555.074 1138.18 556.037 1138.91 556.885 1139.83 557.888 1140.83 559.853 1141.26 560.701 1141.37 560.971 1141.64 561.125 1141.95 561.125L1151.05 561.125C1151.36 561.125 1151.63 560.971 1151.74 560.701 1152.17 559.853 1153.17 557.888 1154.09 556.885 1154.82 556.037 1155.44 555.074 1155.83 554.033 1156.25 552.916 1156.48 551.759 1156.52 550.565L1156.52 550.218C1156.41 544.745 1151.97 540.351 1146.5 540.312ZM1154.21 550.526C1154.17 551.451 1153.98 552.376 1153.67 553.224 1153.36 553.995 1152.94 554.727 1152.36 555.344 1151.47 556.423 1150.7 557.579 1150.12 558.812L1146.5 558.812 1142.92 558.812C1142.3 557.579 1141.53 556.423 1140.68 555.344 1140.14 554.727 1139.68 553.995 1139.37 553.224 1139.02 552.376 1138.87 551.451 1138.83 550.526L1138.83 550.218C1138.91 546.017 1142.34 542.625 1146.54 542.586L1146.54 542.586 1146.54 542.586C1146.54 542.586 1146.54 542.586 1146.54 542.586 1146.54 542.586 1146.54 542.586 1146.54 542.586L1146.54 542.586 1146.54 542.586C1150.74 542.625 1154.17 545.978 1154.25 550.218L1154.25 550.526Z"/></g></g></g></g></svg>